%TF.GenerationSoftware,KiCad,Pcbnew,7.0.10*%
%TF.CreationDate,2024-02-16T13:50:28-07:00*%
%TF.ProjectId,kb42,6b623432-2e6b-4696-9361-645f70636258,rev?*%
%TF.SameCoordinates,Original*%
%TF.FileFunction,Soldermask,Top*%
%TF.FilePolarity,Negative*%
%FSLAX46Y46*%
G04 Gerber Fmt 4.6, Leading zero omitted, Abs format (unit mm)*
G04 Created by KiCad (PCBNEW 7.0.10) date 2024-02-16 13:50:28*
%MOMM*%
%LPD*%
G01*
G04 APERTURE LIST*
%ADD10C,4.400000*%
%ADD11C,2.200000*%
%ADD12C,0.800000*%
%ADD13O,2.000000X1.600000*%
%ADD14O,1.700000X1.700000*%
%ADD15R,1.700000X1.700000*%
G04 APERTURE END LIST*
D10*
%TO.C,SW18*%
X168910000Y-95100000D03*
D11*
X165100000Y-98910000D03*
X172710000Y-98900000D03*
X168910000Y-101600000D03*
%TD*%
D10*
%TO.C,SW11*%
X149860000Y-72390000D03*
D11*
X146050000Y-76200000D03*
X153660000Y-76190000D03*
X149860000Y-78890000D03*
%TD*%
D10*
%TO.C,SW2*%
X92710000Y-60960000D03*
D11*
X88900000Y-64770000D03*
X96510000Y-64760000D03*
X92710000Y-67460000D03*
%TD*%
D10*
%TO.C,SW13*%
X73660000Y-102870000D03*
D11*
X69850000Y-106680000D03*
X77460000Y-106670000D03*
X73660000Y-109370000D03*
%TD*%
D10*
%TO.C,SW4*%
X130810000Y-48260000D03*
D11*
X127000000Y-52070000D03*
X134610000Y-52060000D03*
X130810000Y-54760000D03*
%TD*%
D10*
%TO.C,SW21*%
X208806860Y-124557303D03*
D11*
X203811051Y-126575741D03*
X210820000Y-129540000D03*
X206267108Y-130540585D03*
%TD*%
D10*
%TO.C,SW3*%
X111770000Y-54610000D03*
D11*
X107960000Y-58420000D03*
X115570000Y-58410000D03*
X111770000Y-61110000D03*
%TD*%
D10*
%TO.C,SW17*%
X149860000Y-91440000D03*
D11*
X146050000Y-95250000D03*
X153660000Y-95240000D03*
X149860000Y-97940000D03*
%TD*%
D10*
%TO.C,SW10*%
X130810000Y-67160000D03*
D11*
X127000000Y-70970000D03*
X134610000Y-70960000D03*
X130810000Y-73660000D03*
%TD*%
D10*
%TO.C,SW8*%
X92710000Y-80010000D03*
D11*
X88900000Y-83820000D03*
X96510000Y-83810000D03*
X92710000Y-86510000D03*
%TD*%
D10*
%TO.C,SW1*%
X73660000Y-64770000D03*
D11*
X69850000Y-68580000D03*
X77460000Y-68570000D03*
X73660000Y-71270000D03*
%TD*%
D10*
%TO.C,SW7*%
X73660000Y-83670000D03*
D11*
X69850000Y-87480000D03*
X77460000Y-87470000D03*
X73660000Y-90170000D03*
%TD*%
D10*
%TO.C,SW5*%
X149860000Y-53340000D03*
D11*
X146050000Y-57150000D03*
X153660000Y-57140000D03*
X149860000Y-59840000D03*
%TD*%
D10*
%TO.C,SW9*%
X111760000Y-73660000D03*
D11*
X107950000Y-77470000D03*
X115560000Y-77460000D03*
X111760000Y-80160000D03*
%TD*%
D10*
%TO.C,SW15*%
X111770000Y-92710000D03*
D11*
X107960000Y-96520000D03*
X115570000Y-96510000D03*
X111770000Y-99210000D03*
%TD*%
D10*
%TO.C,SW12*%
X168910000Y-76050000D03*
D11*
X165100000Y-79860000D03*
X172710000Y-79850000D03*
X168910000Y-82550000D03*
%TD*%
D10*
%TO.C,SW6*%
X168920000Y-57160000D03*
D11*
X165110000Y-60970000D03*
X172720000Y-60960000D03*
X168920000Y-63660000D03*
%TD*%
D12*
%TO.C,J2*%
X218142500Y-106900000D03*
X211142500Y-106900000D03*
X218142500Y-109000000D03*
X211142500Y-109000000D03*
D13*
X208442500Y-106700000D03*
X208442500Y-109200000D03*
X209542500Y-104600000D03*
X209542500Y-111300000D03*
X213542500Y-104600000D03*
X216542500Y-111300000D03*
X216542500Y-104600000D03*
X213542500Y-111300000D03*
%TD*%
D10*
%TO.C,SW20*%
X186690000Y-118120000D03*
D11*
X182276283Y-121210518D03*
X189772406Y-122522133D03*
X185561287Y-124521250D03*
%TD*%
D10*
%TO.C,SW19*%
X165110000Y-116850000D03*
D11*
X161300000Y-120660000D03*
X168910000Y-120650000D03*
X165110000Y-123350000D03*
%TD*%
D10*
%TO.C,SW14*%
X92710000Y-99060000D03*
D11*
X88900000Y-102870000D03*
X96510000Y-102860000D03*
X92710000Y-105560000D03*
%TD*%
D14*
%TO.C,U1*%
X191530000Y-46990000D03*
X207010000Y-46953500D03*
X191530000Y-49530000D03*
X207010000Y-49493500D03*
D15*
X191530000Y-52070000D03*
X207010000Y-52033500D03*
D14*
X191530000Y-54610000D03*
X207010000Y-54573500D03*
X191530000Y-57150000D03*
X207010000Y-57113500D03*
X191530000Y-59690000D03*
X207010000Y-59653500D03*
X191530000Y-62230000D03*
X207010000Y-62193500D03*
D15*
X191530000Y-64770000D03*
X207010000Y-64733500D03*
D14*
X191530000Y-67310000D03*
X207010000Y-67273500D03*
X191530000Y-69850000D03*
X207010000Y-69813500D03*
X191530000Y-72390000D03*
X207010000Y-72353500D03*
X191530000Y-74930000D03*
X207010000Y-74893500D03*
D15*
X191530000Y-77470000D03*
X207010000Y-77433500D03*
D14*
X191530000Y-80010000D03*
X207010000Y-79973500D03*
X191530000Y-82550000D03*
X207010000Y-82513500D03*
X191530000Y-85090000D03*
X207010000Y-85053500D03*
X191530000Y-87630000D03*
X207010000Y-87593500D03*
D15*
X191530000Y-90170000D03*
X207010000Y-90133500D03*
D14*
X191530000Y-92710000D03*
X207010000Y-92673500D03*
X191530000Y-95250000D03*
X207010000Y-95213500D03*
X189230000Y-95213500D03*
X209310000Y-95250000D03*
X189230000Y-92673500D03*
X209310000Y-92710000D03*
D15*
X189230000Y-90133500D03*
X209310000Y-90170000D03*
D14*
X189230000Y-87593500D03*
X209310000Y-87630000D03*
X189230000Y-85053500D03*
X209310000Y-85090000D03*
X189230000Y-82513500D03*
X209310000Y-82550000D03*
X189230000Y-79973500D03*
X209310000Y-80010000D03*
D15*
X189230000Y-77433500D03*
X209310000Y-77470000D03*
D14*
X189230000Y-74893500D03*
X209310000Y-74930000D03*
X189230000Y-72353500D03*
X209310000Y-72390000D03*
X189230000Y-69813500D03*
X209310000Y-69850000D03*
X189230000Y-67273500D03*
X209310000Y-67310000D03*
D15*
X189230000Y-64733500D03*
X209310000Y-64770000D03*
D14*
X189230000Y-62193500D03*
X209310000Y-62230000D03*
X189230000Y-59653500D03*
X209310000Y-59690000D03*
X189230000Y-57113500D03*
X209310000Y-57150000D03*
X189230000Y-54573500D03*
X209310000Y-54610000D03*
D15*
X189230000Y-52033500D03*
X209310000Y-52070000D03*
D14*
X189230000Y-49493500D03*
X209310000Y-49530000D03*
X189230000Y-46953500D03*
X209310000Y-46990000D03*
%TD*%
D10*
%TO.C,SW16*%
X130810000Y-86360000D03*
D11*
X127000000Y-90170000D03*
X134610000Y-90160000D03*
X130810000Y-92860000D03*
%TD*%
M02*
