M48
; DRILL file {KiCad 7.0.10} date Fri Feb 16 13:50:44 2024
; FORMAT={-:-/ absolute / inch / decimal}
; #@! TF.CreationDate,2024-02-16T13:50:44-07:00
; #@! TF.GenerationSoftware,Kicad,Pcbnew,7.0.10
; #@! TF.FileFunction,Plated,1,2,PTH
FMAT,2
INCH
; #@! TA.AperFunction,Plated,PTH,ComponentDrill
T1C0.0354
; #@! TA.AperFunction,Plated,PTH,ComponentDrill
T2C0.0402
; #@! TA.AperFunction,Plated,PTH,ComponentDrill
T3C0.0472
%
G90
G05
T2
X7.45Y-1.8486
X7.45Y-1.9486
X7.45Y-2.0486
X7.45Y-2.1486
X7.45Y-2.2486
X7.45Y-2.3486
X7.45Y-2.4486
X7.45Y-2.5486
X7.45Y-2.6486
X7.45Y-2.7486
X7.45Y-2.8486
X7.45Y-2.9486
X7.45Y-3.0486
X7.45Y-3.1486
X7.45Y-3.2486
X7.45Y-3.3486
X7.45Y-3.4486
X7.45Y-3.5486
X7.45Y-3.6486
X7.45Y-3.7486
X7.5406Y-1.85
X7.5406Y-1.95
X7.5406Y-2.05
X7.5406Y-2.15
X7.5406Y-2.25
X7.5406Y-2.35
X7.5406Y-2.45
X7.5406Y-2.55
X7.5406Y-2.65
X7.5406Y-2.75
X7.5406Y-2.85
X7.5406Y-2.95
X7.5406Y-3.05
X7.5406Y-3.15
X7.5406Y-3.25
X7.5406Y-3.35
X7.5406Y-3.45
X7.5406Y-3.55
X7.5406Y-3.65
X7.5406Y-3.75
X8.15Y-1.8486
X8.15Y-1.9486
X8.15Y-2.0486
X8.15Y-2.1486
X8.15Y-2.2486
X8.15Y-2.3486
X8.15Y-2.4486
X8.15Y-2.5486
X8.15Y-2.6486
X8.15Y-2.7486
X8.15Y-2.8486
X8.15Y-2.9486
X8.15Y-3.0486
X8.15Y-3.1486
X8.15Y-3.2486
X8.15Y-3.3486
X8.15Y-3.4486
X8.15Y-3.5486
X8.15Y-3.6486
X8.15Y-3.7486
X8.2406Y-1.85
X8.2406Y-1.95
X8.2406Y-2.05
X8.2406Y-2.15
X8.2406Y-2.25
X8.2406Y-2.35
X8.2406Y-2.45
X8.2406Y-2.55
X8.2406Y-2.65
X8.2406Y-2.75
X8.2406Y-2.85
X8.2406Y-2.95
X8.2406Y-3.05
X8.2406Y-3.15
X8.2406Y-3.25
X8.2406Y-3.35
X8.2406Y-3.45
X8.2406Y-3.55
X8.2406Y-3.65
X8.2406Y-3.75
T3
X2.75Y-2.7
X2.75Y-3.4441
X2.75Y-4.2
X2.9Y-2.8059
X2.9Y-3.55
X2.9Y-4.3059
X3.0496Y-2.6996
X3.0496Y-3.4437
X3.0496Y-4.1996
X3.5Y-2.55
X3.5Y-3.3
X3.5Y-4.05
X3.65Y-2.6559
X3.65Y-3.4059
X3.65Y-4.1559
X3.7996Y-2.5496
X3.7996Y-3.2996
X3.7996Y-4.0496
X4.25Y-3.05
X4.2504Y-2.3
X4.2504Y-3.8
X4.4Y-3.1559
X4.4004Y-2.4059
X4.4004Y-3.9059
X4.5496Y-3.0496
X4.55Y-2.2996
X4.55Y-3.7996
X5.0Y-2.05
X5.0Y-2.7941
X5.0Y-3.55
X5.15Y-2.1559
X5.15Y-2.9
X5.15Y-3.6559
X5.2996Y-2.0496
X5.2996Y-2.7937
X5.2996Y-3.5496
X5.75Y-2.25
X5.75Y-3.0
X5.75Y-3.75
X5.9Y-2.3559
X5.9Y-3.1059
X5.9Y-3.8559
X6.0496Y-2.2496
X6.0496Y-2.9996
X6.0496Y-3.7496
X6.3504Y-4.7504
X6.5Y-3.1441
X6.5Y-3.8941
X6.5004Y-2.4004
X6.5004Y-4.8563
X6.65Y-3.25
X6.65Y-4.0
X6.65Y-4.75
X6.6504Y-2.5063
X6.7996Y-3.1437
X6.7996Y-3.8937
X6.8Y-2.4
X7.1762Y-4.7721
X7.3056Y-4.9024
X7.4714Y-4.8237
X8.0241Y-4.9833
X8.1208Y-5.1394
X8.3Y-5.1
T1
G00X8.2143Y-4.2008
M15
G01X8.1985Y-4.2008
M16
G05
G00X8.2143Y-4.2992
M15
G01X8.1985Y-4.2992
M16
G05
G00X8.2576Y-4.1181
M15
G01X8.2418Y-4.1181
M16
G05
G00X8.2576Y-4.3819
M15
G01X8.2418Y-4.3819
M16
G05
G00X8.4151Y-4.1181
M15
G01X8.3993Y-4.1181
M16
G05
G00X8.4151Y-4.3819
M15
G01X8.3993Y-4.3819
M16
G05
G00X8.5332Y-4.1181
M15
G01X8.5174Y-4.1181
M16
G05
G00X8.5332Y-4.3819
M15
G01X8.5174Y-4.3819
M16
G05
M30
