M48
; DRILL file {KiCad 7.0.10} date Fri Feb 16 13:50:44 2024
; FORMAT={-:-/ absolute / inch / decimal}
; #@! TF.CreationDate,2024-02-16T13:50:44-07:00
; #@! TF.GenerationSoftware,Kicad,Pcbnew,7.0.10
; #@! TF.FileFunction,NonPlated,1,2,NPTH
FMAT,2
INCH
; #@! TA.AperFunction,NonPlated,NPTH,ComponentDrill
T1C0.0315
; #@! TA.AperFunction,NonPlated,NPTH,ComponentDrill
T2C0.1732
%
G90
G05
T1
X8.3127Y-4.2087
X8.3127Y-4.2913
X8.5883Y-4.2087
X8.5883Y-4.2913
T2
X2.9Y-2.55
X2.9Y-3.2941
X2.9Y-4.05
X3.65Y-2.4
X3.65Y-3.15
X3.65Y-3.9
X4.4Y-2.9
X4.4004Y-2.15
X4.4004Y-3.65
X5.15Y-1.9
X5.15Y-2.6441
X5.15Y-3.4
X5.9Y-2.1
X5.9Y-2.85
X5.9Y-3.6
X6.5004Y-4.6004
X6.65Y-2.9941
X6.65Y-3.7441
X6.6504Y-2.2504
X7.35Y-4.6504
X8.2207Y-4.9038
M30
