%TF.GenerationSoftware,KiCad,Pcbnew,7.0.10*%
%TF.CreationDate,2024-02-16T13:50:28-07:00*%
%TF.ProjectId,kb42,6b623432-2e6b-4696-9361-645f70636258,rev?*%
%TF.SameCoordinates,Original*%
%TF.FileFunction,Legend,Bot*%
%TF.FilePolarity,Positive*%
%FSLAX46Y46*%
G04 Gerber Fmt 4.6, Leading zero omitted, Abs format (unit mm)*
G04 Created by KiCad (PCBNEW 7.0.10) date 2024-02-16 13:50:28*
%MOMM*%
%LPD*%
G01*
G04 APERTURE LIST*
%ADD10C,0.150000*%
%ADD11C,0.120000*%
G04 APERTURE END LIST*
D10*
X168620839Y-128164295D02*
X168620839Y-127364295D01*
X168620839Y-127364295D02*
X168430363Y-127364295D01*
X168430363Y-127364295D02*
X168316077Y-127402390D01*
X168316077Y-127402390D02*
X168239887Y-127478580D01*
X168239887Y-127478580D02*
X168201792Y-127554771D01*
X168201792Y-127554771D02*
X168163696Y-127707152D01*
X168163696Y-127707152D02*
X168163696Y-127821438D01*
X168163696Y-127821438D02*
X168201792Y-127973819D01*
X168201792Y-127973819D02*
X168239887Y-128050009D01*
X168239887Y-128050009D02*
X168316077Y-128126200D01*
X168316077Y-128126200D02*
X168430363Y-128164295D01*
X168430363Y-128164295D02*
X168620839Y-128164295D01*
X167516077Y-128126200D02*
X167592268Y-128164295D01*
X167592268Y-128164295D02*
X167744649Y-128164295D01*
X167744649Y-128164295D02*
X167820839Y-128126200D01*
X167820839Y-128126200D02*
X167858935Y-128050009D01*
X167858935Y-128050009D02*
X167858935Y-127745247D01*
X167858935Y-127745247D02*
X167820839Y-127669057D01*
X167820839Y-127669057D02*
X167744649Y-127630961D01*
X167744649Y-127630961D02*
X167592268Y-127630961D01*
X167592268Y-127630961D02*
X167516077Y-127669057D01*
X167516077Y-127669057D02*
X167477982Y-127745247D01*
X167477982Y-127745247D02*
X167477982Y-127821438D01*
X167477982Y-127821438D02*
X167858935Y-127897628D01*
X167173221Y-128126200D02*
X167097030Y-128164295D01*
X167097030Y-128164295D02*
X166944649Y-128164295D01*
X166944649Y-128164295D02*
X166868459Y-128126200D01*
X166868459Y-128126200D02*
X166830363Y-128050009D01*
X166830363Y-128050009D02*
X166830363Y-128011914D01*
X166830363Y-128011914D02*
X166868459Y-127935723D01*
X166868459Y-127935723D02*
X166944649Y-127897628D01*
X166944649Y-127897628D02*
X167058935Y-127897628D01*
X167058935Y-127897628D02*
X167135125Y-127859533D01*
X167135125Y-127859533D02*
X167173221Y-127783342D01*
X167173221Y-127783342D02*
X167173221Y-127745247D01*
X167173221Y-127745247D02*
X167135125Y-127669057D01*
X167135125Y-127669057D02*
X167058935Y-127630961D01*
X167058935Y-127630961D02*
X166944649Y-127630961D01*
X166944649Y-127630961D02*
X166868459Y-127669057D01*
X166487506Y-128164295D02*
X166487506Y-127630961D01*
X166487506Y-127364295D02*
X166525602Y-127402390D01*
X166525602Y-127402390D02*
X166487506Y-127440485D01*
X166487506Y-127440485D02*
X166449411Y-127402390D01*
X166449411Y-127402390D02*
X166487506Y-127364295D01*
X166487506Y-127364295D02*
X166487506Y-127440485D01*
X165763697Y-127630961D02*
X165763697Y-128278580D01*
X165763697Y-128278580D02*
X165801792Y-128354771D01*
X165801792Y-128354771D02*
X165839888Y-128392866D01*
X165839888Y-128392866D02*
X165916078Y-128430961D01*
X165916078Y-128430961D02*
X166030364Y-128430961D01*
X166030364Y-128430961D02*
X166106554Y-128392866D01*
X165763697Y-128126200D02*
X165839888Y-128164295D01*
X165839888Y-128164295D02*
X165992269Y-128164295D01*
X165992269Y-128164295D02*
X166068459Y-128126200D01*
X166068459Y-128126200D02*
X166106554Y-128088104D01*
X166106554Y-128088104D02*
X166144650Y-128011914D01*
X166144650Y-128011914D02*
X166144650Y-127783342D01*
X166144650Y-127783342D02*
X166106554Y-127707152D01*
X166106554Y-127707152D02*
X166068459Y-127669057D01*
X166068459Y-127669057D02*
X165992269Y-127630961D01*
X165992269Y-127630961D02*
X165839888Y-127630961D01*
X165839888Y-127630961D02*
X165763697Y-127669057D01*
X165382744Y-127630961D02*
X165382744Y-128164295D01*
X165382744Y-127707152D02*
X165344649Y-127669057D01*
X165344649Y-127669057D02*
X165268459Y-127630961D01*
X165268459Y-127630961D02*
X165154173Y-127630961D01*
X165154173Y-127630961D02*
X165077982Y-127669057D01*
X165077982Y-127669057D02*
X165039887Y-127745247D01*
X165039887Y-127745247D02*
X165039887Y-128164295D01*
X164354172Y-128126200D02*
X164430363Y-128164295D01*
X164430363Y-128164295D02*
X164582744Y-128164295D01*
X164582744Y-128164295D02*
X164658934Y-128126200D01*
X164658934Y-128126200D02*
X164697030Y-128050009D01*
X164697030Y-128050009D02*
X164697030Y-127745247D01*
X164697030Y-127745247D02*
X164658934Y-127669057D01*
X164658934Y-127669057D02*
X164582744Y-127630961D01*
X164582744Y-127630961D02*
X164430363Y-127630961D01*
X164430363Y-127630961D02*
X164354172Y-127669057D01*
X164354172Y-127669057D02*
X164316077Y-127745247D01*
X164316077Y-127745247D02*
X164316077Y-127821438D01*
X164316077Y-127821438D02*
X164697030Y-127897628D01*
X163630363Y-128164295D02*
X163630363Y-127364295D01*
X163630363Y-128126200D02*
X163706554Y-128164295D01*
X163706554Y-128164295D02*
X163858935Y-128164295D01*
X163858935Y-128164295D02*
X163935125Y-128126200D01*
X163935125Y-128126200D02*
X163973220Y-128088104D01*
X163973220Y-128088104D02*
X164011316Y-128011914D01*
X164011316Y-128011914D02*
X164011316Y-127783342D01*
X164011316Y-127783342D02*
X163973220Y-127707152D01*
X163973220Y-127707152D02*
X163935125Y-127669057D01*
X163935125Y-127669057D02*
X163858935Y-127630961D01*
X163858935Y-127630961D02*
X163706554Y-127630961D01*
X163706554Y-127630961D02*
X163630363Y-127669057D01*
X162639886Y-128164295D02*
X162639886Y-127364295D01*
X162639886Y-127669057D02*
X162563696Y-127630961D01*
X162563696Y-127630961D02*
X162411315Y-127630961D01*
X162411315Y-127630961D02*
X162335124Y-127669057D01*
X162335124Y-127669057D02*
X162297029Y-127707152D01*
X162297029Y-127707152D02*
X162258934Y-127783342D01*
X162258934Y-127783342D02*
X162258934Y-128011914D01*
X162258934Y-128011914D02*
X162297029Y-128088104D01*
X162297029Y-128088104D02*
X162335124Y-128126200D01*
X162335124Y-128126200D02*
X162411315Y-128164295D01*
X162411315Y-128164295D02*
X162563696Y-128164295D01*
X162563696Y-128164295D02*
X162639886Y-128126200D01*
X161992267Y-127630961D02*
X161801791Y-128164295D01*
X161611314Y-127630961D02*
X161801791Y-128164295D01*
X161801791Y-128164295D02*
X161877981Y-128354771D01*
X161877981Y-128354771D02*
X161916076Y-128392866D01*
X161916076Y-128392866D02*
X161992267Y-128430961D01*
X160811314Y-127364295D02*
X160354171Y-127364295D01*
X160582743Y-128164295D02*
X160582743Y-127364295D01*
X160163695Y-127630961D02*
X159973219Y-128164295D01*
X159782742Y-127630961D02*
X159973219Y-128164295D01*
X159973219Y-128164295D02*
X160049409Y-128354771D01*
X160049409Y-128354771D02*
X160087504Y-128392866D01*
X160087504Y-128392866D02*
X160163695Y-128430961D01*
X158868456Y-128164295D02*
X158868456Y-127364295D01*
X158868456Y-127364295D02*
X158677980Y-127364295D01*
X158677980Y-127364295D02*
X158563694Y-127402390D01*
X158563694Y-127402390D02*
X158487504Y-127478580D01*
X158487504Y-127478580D02*
X158449409Y-127554771D01*
X158449409Y-127554771D02*
X158411313Y-127707152D01*
X158411313Y-127707152D02*
X158411313Y-127821438D01*
X158411313Y-127821438D02*
X158449409Y-127973819D01*
X158449409Y-127973819D02*
X158487504Y-128050009D01*
X158487504Y-128050009D02*
X158563694Y-128126200D01*
X158563694Y-128126200D02*
X158677980Y-128164295D01*
X158677980Y-128164295D02*
X158868456Y-128164295D01*
X157725599Y-128164295D02*
X157725599Y-127745247D01*
X157725599Y-127745247D02*
X157763694Y-127669057D01*
X157763694Y-127669057D02*
X157839885Y-127630961D01*
X157839885Y-127630961D02*
X157992266Y-127630961D01*
X157992266Y-127630961D02*
X158068456Y-127669057D01*
X157725599Y-128126200D02*
X157801790Y-128164295D01*
X157801790Y-128164295D02*
X157992266Y-128164295D01*
X157992266Y-128164295D02*
X158068456Y-128126200D01*
X158068456Y-128126200D02*
X158106552Y-128050009D01*
X158106552Y-128050009D02*
X158106552Y-127973819D01*
X158106552Y-127973819D02*
X158068456Y-127897628D01*
X158068456Y-127897628D02*
X157992266Y-127859533D01*
X157992266Y-127859533D02*
X157801790Y-127859533D01*
X157801790Y-127859533D02*
X157725599Y-127821438D01*
X157420837Y-127630961D02*
X157230361Y-128164295D01*
X157230361Y-128164295D02*
X157039884Y-127630961D01*
X156735122Y-128164295D02*
X156735122Y-127630961D01*
X156735122Y-127364295D02*
X156773218Y-127402390D01*
X156773218Y-127402390D02*
X156735122Y-127440485D01*
X156735122Y-127440485D02*
X156697027Y-127402390D01*
X156697027Y-127402390D02*
X156735122Y-127364295D01*
X156735122Y-127364295D02*
X156735122Y-127440485D01*
X156392266Y-128126200D02*
X156316075Y-128164295D01*
X156316075Y-128164295D02*
X156163694Y-128164295D01*
X156163694Y-128164295D02*
X156087504Y-128126200D01*
X156087504Y-128126200D02*
X156049408Y-128050009D01*
X156049408Y-128050009D02*
X156049408Y-128011914D01*
X156049408Y-128011914D02*
X156087504Y-127935723D01*
X156087504Y-127935723D02*
X156163694Y-127897628D01*
X156163694Y-127897628D02*
X156277980Y-127897628D01*
X156277980Y-127897628D02*
X156354170Y-127859533D01*
X156354170Y-127859533D02*
X156392266Y-127783342D01*
X156392266Y-127783342D02*
X156392266Y-127745247D01*
X156392266Y-127745247D02*
X156354170Y-127669057D01*
X156354170Y-127669057D02*
X156277980Y-127630961D01*
X156277980Y-127630961D02*
X156163694Y-127630961D01*
X156163694Y-127630961D02*
X156087504Y-127669057D01*
X170357619Y-99424200D02*
X170243333Y-99462295D01*
X170243333Y-99462295D02*
X170052857Y-99462295D01*
X170052857Y-99462295D02*
X169976666Y-99424200D01*
X169976666Y-99424200D02*
X169938571Y-99386104D01*
X169938571Y-99386104D02*
X169900476Y-99309914D01*
X169900476Y-99309914D02*
X169900476Y-99233723D01*
X169900476Y-99233723D02*
X169938571Y-99157533D01*
X169938571Y-99157533D02*
X169976666Y-99119438D01*
X169976666Y-99119438D02*
X170052857Y-99081342D01*
X170052857Y-99081342D02*
X170205238Y-99043247D01*
X170205238Y-99043247D02*
X170281428Y-99005152D01*
X170281428Y-99005152D02*
X170319523Y-98967057D01*
X170319523Y-98967057D02*
X170357619Y-98890866D01*
X170357619Y-98890866D02*
X170357619Y-98814676D01*
X170357619Y-98814676D02*
X170319523Y-98738485D01*
X170319523Y-98738485D02*
X170281428Y-98700390D01*
X170281428Y-98700390D02*
X170205238Y-98662295D01*
X170205238Y-98662295D02*
X170014761Y-98662295D01*
X170014761Y-98662295D02*
X169900476Y-98700390D01*
X169633809Y-98662295D02*
X169443333Y-99462295D01*
X169443333Y-99462295D02*
X169290952Y-98890866D01*
X169290952Y-98890866D02*
X169138571Y-99462295D01*
X169138571Y-99462295D02*
X168948095Y-98662295D01*
X168224285Y-99462295D02*
X168681428Y-99462295D01*
X168452856Y-99462295D02*
X168452856Y-98662295D01*
X168452856Y-98662295D02*
X168529047Y-98776580D01*
X168529047Y-98776580D02*
X168605237Y-98852771D01*
X168605237Y-98852771D02*
X168681428Y-98890866D01*
X167767142Y-99005152D02*
X167843332Y-98967057D01*
X167843332Y-98967057D02*
X167881427Y-98928961D01*
X167881427Y-98928961D02*
X167919523Y-98852771D01*
X167919523Y-98852771D02*
X167919523Y-98814676D01*
X167919523Y-98814676D02*
X167881427Y-98738485D01*
X167881427Y-98738485D02*
X167843332Y-98700390D01*
X167843332Y-98700390D02*
X167767142Y-98662295D01*
X167767142Y-98662295D02*
X167614761Y-98662295D01*
X167614761Y-98662295D02*
X167538570Y-98700390D01*
X167538570Y-98700390D02*
X167500475Y-98738485D01*
X167500475Y-98738485D02*
X167462380Y-98814676D01*
X167462380Y-98814676D02*
X167462380Y-98852771D01*
X167462380Y-98852771D02*
X167500475Y-98928961D01*
X167500475Y-98928961D02*
X167538570Y-98967057D01*
X167538570Y-98967057D02*
X167614761Y-99005152D01*
X167614761Y-99005152D02*
X167767142Y-99005152D01*
X167767142Y-99005152D02*
X167843332Y-99043247D01*
X167843332Y-99043247D02*
X167881427Y-99081342D01*
X167881427Y-99081342D02*
X167919523Y-99157533D01*
X167919523Y-99157533D02*
X167919523Y-99309914D01*
X167919523Y-99309914D02*
X167881427Y-99386104D01*
X167881427Y-99386104D02*
X167843332Y-99424200D01*
X167843332Y-99424200D02*
X167767142Y-99462295D01*
X167767142Y-99462295D02*
X167614761Y-99462295D01*
X167614761Y-99462295D02*
X167538570Y-99424200D01*
X167538570Y-99424200D02*
X167500475Y-99386104D01*
X167500475Y-99386104D02*
X167462380Y-99309914D01*
X167462380Y-99309914D02*
X167462380Y-99157533D01*
X167462380Y-99157533D02*
X167500475Y-99081342D01*
X167500475Y-99081342D02*
X167538570Y-99043247D01*
X167538570Y-99043247D02*
X167614761Y-99005152D01*
X151307619Y-76714200D02*
X151193333Y-76752295D01*
X151193333Y-76752295D02*
X151002857Y-76752295D01*
X151002857Y-76752295D02*
X150926666Y-76714200D01*
X150926666Y-76714200D02*
X150888571Y-76676104D01*
X150888571Y-76676104D02*
X150850476Y-76599914D01*
X150850476Y-76599914D02*
X150850476Y-76523723D01*
X150850476Y-76523723D02*
X150888571Y-76447533D01*
X150888571Y-76447533D02*
X150926666Y-76409438D01*
X150926666Y-76409438D02*
X151002857Y-76371342D01*
X151002857Y-76371342D02*
X151155238Y-76333247D01*
X151155238Y-76333247D02*
X151231428Y-76295152D01*
X151231428Y-76295152D02*
X151269523Y-76257057D01*
X151269523Y-76257057D02*
X151307619Y-76180866D01*
X151307619Y-76180866D02*
X151307619Y-76104676D01*
X151307619Y-76104676D02*
X151269523Y-76028485D01*
X151269523Y-76028485D02*
X151231428Y-75990390D01*
X151231428Y-75990390D02*
X151155238Y-75952295D01*
X151155238Y-75952295D02*
X150964761Y-75952295D01*
X150964761Y-75952295D02*
X150850476Y-75990390D01*
X150583809Y-75952295D02*
X150393333Y-76752295D01*
X150393333Y-76752295D02*
X150240952Y-76180866D01*
X150240952Y-76180866D02*
X150088571Y-76752295D01*
X150088571Y-76752295D02*
X149898095Y-75952295D01*
X149174285Y-76752295D02*
X149631428Y-76752295D01*
X149402856Y-76752295D02*
X149402856Y-75952295D01*
X149402856Y-75952295D02*
X149479047Y-76066580D01*
X149479047Y-76066580D02*
X149555237Y-76142771D01*
X149555237Y-76142771D02*
X149631428Y-76180866D01*
X148412380Y-76752295D02*
X148869523Y-76752295D01*
X148640951Y-76752295D02*
X148640951Y-75952295D01*
X148640951Y-75952295D02*
X148717142Y-76066580D01*
X148717142Y-76066580D02*
X148793332Y-76142771D01*
X148793332Y-76142771D02*
X148869523Y-76180866D01*
X93776667Y-65284200D02*
X93662381Y-65322295D01*
X93662381Y-65322295D02*
X93471905Y-65322295D01*
X93471905Y-65322295D02*
X93395714Y-65284200D01*
X93395714Y-65284200D02*
X93357619Y-65246104D01*
X93357619Y-65246104D02*
X93319524Y-65169914D01*
X93319524Y-65169914D02*
X93319524Y-65093723D01*
X93319524Y-65093723D02*
X93357619Y-65017533D01*
X93357619Y-65017533D02*
X93395714Y-64979438D01*
X93395714Y-64979438D02*
X93471905Y-64941342D01*
X93471905Y-64941342D02*
X93624286Y-64903247D01*
X93624286Y-64903247D02*
X93700476Y-64865152D01*
X93700476Y-64865152D02*
X93738571Y-64827057D01*
X93738571Y-64827057D02*
X93776667Y-64750866D01*
X93776667Y-64750866D02*
X93776667Y-64674676D01*
X93776667Y-64674676D02*
X93738571Y-64598485D01*
X93738571Y-64598485D02*
X93700476Y-64560390D01*
X93700476Y-64560390D02*
X93624286Y-64522295D01*
X93624286Y-64522295D02*
X93433809Y-64522295D01*
X93433809Y-64522295D02*
X93319524Y-64560390D01*
X93052857Y-64522295D02*
X92862381Y-65322295D01*
X92862381Y-65322295D02*
X92710000Y-64750866D01*
X92710000Y-64750866D02*
X92557619Y-65322295D01*
X92557619Y-65322295D02*
X92367143Y-64522295D01*
X92100476Y-64598485D02*
X92062380Y-64560390D01*
X92062380Y-64560390D02*
X91986190Y-64522295D01*
X91986190Y-64522295D02*
X91795714Y-64522295D01*
X91795714Y-64522295D02*
X91719523Y-64560390D01*
X91719523Y-64560390D02*
X91681428Y-64598485D01*
X91681428Y-64598485D02*
X91643333Y-64674676D01*
X91643333Y-64674676D02*
X91643333Y-64750866D01*
X91643333Y-64750866D02*
X91681428Y-64865152D01*
X91681428Y-64865152D02*
X92138571Y-65322295D01*
X92138571Y-65322295D02*
X91643333Y-65322295D01*
X75107619Y-107194200D02*
X74993333Y-107232295D01*
X74993333Y-107232295D02*
X74802857Y-107232295D01*
X74802857Y-107232295D02*
X74726666Y-107194200D01*
X74726666Y-107194200D02*
X74688571Y-107156104D01*
X74688571Y-107156104D02*
X74650476Y-107079914D01*
X74650476Y-107079914D02*
X74650476Y-107003723D01*
X74650476Y-107003723D02*
X74688571Y-106927533D01*
X74688571Y-106927533D02*
X74726666Y-106889438D01*
X74726666Y-106889438D02*
X74802857Y-106851342D01*
X74802857Y-106851342D02*
X74955238Y-106813247D01*
X74955238Y-106813247D02*
X75031428Y-106775152D01*
X75031428Y-106775152D02*
X75069523Y-106737057D01*
X75069523Y-106737057D02*
X75107619Y-106660866D01*
X75107619Y-106660866D02*
X75107619Y-106584676D01*
X75107619Y-106584676D02*
X75069523Y-106508485D01*
X75069523Y-106508485D02*
X75031428Y-106470390D01*
X75031428Y-106470390D02*
X74955238Y-106432295D01*
X74955238Y-106432295D02*
X74764761Y-106432295D01*
X74764761Y-106432295D02*
X74650476Y-106470390D01*
X74383809Y-106432295D02*
X74193333Y-107232295D01*
X74193333Y-107232295D02*
X74040952Y-106660866D01*
X74040952Y-106660866D02*
X73888571Y-107232295D01*
X73888571Y-107232295D02*
X73698095Y-106432295D01*
X72974285Y-107232295D02*
X73431428Y-107232295D01*
X73202856Y-107232295D02*
X73202856Y-106432295D01*
X73202856Y-106432295D02*
X73279047Y-106546580D01*
X73279047Y-106546580D02*
X73355237Y-106622771D01*
X73355237Y-106622771D02*
X73431428Y-106660866D01*
X72707618Y-106432295D02*
X72212380Y-106432295D01*
X72212380Y-106432295D02*
X72479046Y-106737057D01*
X72479046Y-106737057D02*
X72364761Y-106737057D01*
X72364761Y-106737057D02*
X72288570Y-106775152D01*
X72288570Y-106775152D02*
X72250475Y-106813247D01*
X72250475Y-106813247D02*
X72212380Y-106889438D01*
X72212380Y-106889438D02*
X72212380Y-107079914D01*
X72212380Y-107079914D02*
X72250475Y-107156104D01*
X72250475Y-107156104D02*
X72288570Y-107194200D01*
X72288570Y-107194200D02*
X72364761Y-107232295D01*
X72364761Y-107232295D02*
X72593332Y-107232295D01*
X72593332Y-107232295D02*
X72669523Y-107194200D01*
X72669523Y-107194200D02*
X72707618Y-107156104D01*
X131876667Y-52584200D02*
X131762381Y-52622295D01*
X131762381Y-52622295D02*
X131571905Y-52622295D01*
X131571905Y-52622295D02*
X131495714Y-52584200D01*
X131495714Y-52584200D02*
X131457619Y-52546104D01*
X131457619Y-52546104D02*
X131419524Y-52469914D01*
X131419524Y-52469914D02*
X131419524Y-52393723D01*
X131419524Y-52393723D02*
X131457619Y-52317533D01*
X131457619Y-52317533D02*
X131495714Y-52279438D01*
X131495714Y-52279438D02*
X131571905Y-52241342D01*
X131571905Y-52241342D02*
X131724286Y-52203247D01*
X131724286Y-52203247D02*
X131800476Y-52165152D01*
X131800476Y-52165152D02*
X131838571Y-52127057D01*
X131838571Y-52127057D02*
X131876667Y-52050866D01*
X131876667Y-52050866D02*
X131876667Y-51974676D01*
X131876667Y-51974676D02*
X131838571Y-51898485D01*
X131838571Y-51898485D02*
X131800476Y-51860390D01*
X131800476Y-51860390D02*
X131724286Y-51822295D01*
X131724286Y-51822295D02*
X131533809Y-51822295D01*
X131533809Y-51822295D02*
X131419524Y-51860390D01*
X131152857Y-51822295D02*
X130962381Y-52622295D01*
X130962381Y-52622295D02*
X130810000Y-52050866D01*
X130810000Y-52050866D02*
X130657619Y-52622295D01*
X130657619Y-52622295D02*
X130467143Y-51822295D01*
X129819523Y-52088961D02*
X129819523Y-52622295D01*
X130009999Y-51784200D02*
X130200476Y-52355628D01*
X130200476Y-52355628D02*
X129705237Y-52355628D01*
X208449800Y-129103379D02*
X208329714Y-129093791D01*
X208329714Y-129093791D02*
X208154380Y-129019366D01*
X208154380Y-129019366D02*
X208099131Y-128954529D01*
X208099131Y-128954529D02*
X208078949Y-128904577D01*
X208078949Y-128904577D02*
X208073653Y-128819558D01*
X208073653Y-128819558D02*
X208103423Y-128749425D01*
X208103423Y-128749425D02*
X208168259Y-128694176D01*
X208168259Y-128694176D02*
X208218211Y-128673994D01*
X208218211Y-128673994D02*
X208303230Y-128668697D01*
X208303230Y-128668697D02*
X208458382Y-128693171D01*
X208458382Y-128693171D02*
X208543401Y-128687874D01*
X208543401Y-128687874D02*
X208593353Y-128667692D01*
X208593353Y-128667692D02*
X208658190Y-128612443D01*
X208658190Y-128612443D02*
X208687960Y-128542309D01*
X208687960Y-128542309D02*
X208682663Y-128457291D01*
X208682663Y-128457291D02*
X208662481Y-128407339D01*
X208662481Y-128407339D02*
X208607232Y-128342502D01*
X208607232Y-128342502D02*
X208431898Y-128268077D01*
X208431898Y-128268077D02*
X208311813Y-128258489D01*
X208081229Y-128119227D02*
X207593310Y-128781206D01*
X207593310Y-128781206D02*
X207676318Y-128195663D01*
X207676318Y-128195663D02*
X207312775Y-128662126D01*
X207312775Y-128662126D02*
X207450026Y-127851297D01*
X207174788Y-127817236D02*
X207154606Y-127767284D01*
X207154606Y-127767284D02*
X207099357Y-127702447D01*
X207099357Y-127702447D02*
X206924023Y-127628022D01*
X206924023Y-127628022D02*
X206839004Y-127633319D01*
X206839004Y-127633319D02*
X206789052Y-127653501D01*
X206789052Y-127653501D02*
X206724216Y-127708749D01*
X206724216Y-127708749D02*
X206694446Y-127778883D01*
X206694446Y-127778883D02*
X206684857Y-127898969D01*
X206684857Y-127898969D02*
X206927040Y-128498391D01*
X206927040Y-128498391D02*
X206471171Y-128304886D01*
X205769833Y-128007186D02*
X206190636Y-128185806D01*
X205980235Y-128096496D02*
X206292819Y-127360092D01*
X206292819Y-127360092D02*
X206318298Y-127495063D01*
X206318298Y-127495063D02*
X206358662Y-127594966D01*
X206358662Y-127594966D02*
X206413911Y-127659803D01*
X112836667Y-58934200D02*
X112722381Y-58972295D01*
X112722381Y-58972295D02*
X112531905Y-58972295D01*
X112531905Y-58972295D02*
X112455714Y-58934200D01*
X112455714Y-58934200D02*
X112417619Y-58896104D01*
X112417619Y-58896104D02*
X112379524Y-58819914D01*
X112379524Y-58819914D02*
X112379524Y-58743723D01*
X112379524Y-58743723D02*
X112417619Y-58667533D01*
X112417619Y-58667533D02*
X112455714Y-58629438D01*
X112455714Y-58629438D02*
X112531905Y-58591342D01*
X112531905Y-58591342D02*
X112684286Y-58553247D01*
X112684286Y-58553247D02*
X112760476Y-58515152D01*
X112760476Y-58515152D02*
X112798571Y-58477057D01*
X112798571Y-58477057D02*
X112836667Y-58400866D01*
X112836667Y-58400866D02*
X112836667Y-58324676D01*
X112836667Y-58324676D02*
X112798571Y-58248485D01*
X112798571Y-58248485D02*
X112760476Y-58210390D01*
X112760476Y-58210390D02*
X112684286Y-58172295D01*
X112684286Y-58172295D02*
X112493809Y-58172295D01*
X112493809Y-58172295D02*
X112379524Y-58210390D01*
X112112857Y-58172295D02*
X111922381Y-58972295D01*
X111922381Y-58972295D02*
X111770000Y-58400866D01*
X111770000Y-58400866D02*
X111617619Y-58972295D01*
X111617619Y-58972295D02*
X111427143Y-58172295D01*
X111198571Y-58172295D02*
X110703333Y-58172295D01*
X110703333Y-58172295D02*
X110969999Y-58477057D01*
X110969999Y-58477057D02*
X110855714Y-58477057D01*
X110855714Y-58477057D02*
X110779523Y-58515152D01*
X110779523Y-58515152D02*
X110741428Y-58553247D01*
X110741428Y-58553247D02*
X110703333Y-58629438D01*
X110703333Y-58629438D02*
X110703333Y-58819914D01*
X110703333Y-58819914D02*
X110741428Y-58896104D01*
X110741428Y-58896104D02*
X110779523Y-58934200D01*
X110779523Y-58934200D02*
X110855714Y-58972295D01*
X110855714Y-58972295D02*
X111084285Y-58972295D01*
X111084285Y-58972295D02*
X111160476Y-58934200D01*
X111160476Y-58934200D02*
X111198571Y-58896104D01*
X151307619Y-95764200D02*
X151193333Y-95802295D01*
X151193333Y-95802295D02*
X151002857Y-95802295D01*
X151002857Y-95802295D02*
X150926666Y-95764200D01*
X150926666Y-95764200D02*
X150888571Y-95726104D01*
X150888571Y-95726104D02*
X150850476Y-95649914D01*
X150850476Y-95649914D02*
X150850476Y-95573723D01*
X150850476Y-95573723D02*
X150888571Y-95497533D01*
X150888571Y-95497533D02*
X150926666Y-95459438D01*
X150926666Y-95459438D02*
X151002857Y-95421342D01*
X151002857Y-95421342D02*
X151155238Y-95383247D01*
X151155238Y-95383247D02*
X151231428Y-95345152D01*
X151231428Y-95345152D02*
X151269523Y-95307057D01*
X151269523Y-95307057D02*
X151307619Y-95230866D01*
X151307619Y-95230866D02*
X151307619Y-95154676D01*
X151307619Y-95154676D02*
X151269523Y-95078485D01*
X151269523Y-95078485D02*
X151231428Y-95040390D01*
X151231428Y-95040390D02*
X151155238Y-95002295D01*
X151155238Y-95002295D02*
X150964761Y-95002295D01*
X150964761Y-95002295D02*
X150850476Y-95040390D01*
X150583809Y-95002295D02*
X150393333Y-95802295D01*
X150393333Y-95802295D02*
X150240952Y-95230866D01*
X150240952Y-95230866D02*
X150088571Y-95802295D01*
X150088571Y-95802295D02*
X149898095Y-95002295D01*
X149174285Y-95802295D02*
X149631428Y-95802295D01*
X149402856Y-95802295D02*
X149402856Y-95002295D01*
X149402856Y-95002295D02*
X149479047Y-95116580D01*
X149479047Y-95116580D02*
X149555237Y-95192771D01*
X149555237Y-95192771D02*
X149631428Y-95230866D01*
X148907618Y-95002295D02*
X148374284Y-95002295D01*
X148374284Y-95002295D02*
X148717142Y-95802295D01*
X132257619Y-71484200D02*
X132143333Y-71522295D01*
X132143333Y-71522295D02*
X131952857Y-71522295D01*
X131952857Y-71522295D02*
X131876666Y-71484200D01*
X131876666Y-71484200D02*
X131838571Y-71446104D01*
X131838571Y-71446104D02*
X131800476Y-71369914D01*
X131800476Y-71369914D02*
X131800476Y-71293723D01*
X131800476Y-71293723D02*
X131838571Y-71217533D01*
X131838571Y-71217533D02*
X131876666Y-71179438D01*
X131876666Y-71179438D02*
X131952857Y-71141342D01*
X131952857Y-71141342D02*
X132105238Y-71103247D01*
X132105238Y-71103247D02*
X132181428Y-71065152D01*
X132181428Y-71065152D02*
X132219523Y-71027057D01*
X132219523Y-71027057D02*
X132257619Y-70950866D01*
X132257619Y-70950866D02*
X132257619Y-70874676D01*
X132257619Y-70874676D02*
X132219523Y-70798485D01*
X132219523Y-70798485D02*
X132181428Y-70760390D01*
X132181428Y-70760390D02*
X132105238Y-70722295D01*
X132105238Y-70722295D02*
X131914761Y-70722295D01*
X131914761Y-70722295D02*
X131800476Y-70760390D01*
X131533809Y-70722295D02*
X131343333Y-71522295D01*
X131343333Y-71522295D02*
X131190952Y-70950866D01*
X131190952Y-70950866D02*
X131038571Y-71522295D01*
X131038571Y-71522295D02*
X130848095Y-70722295D01*
X130124285Y-71522295D02*
X130581428Y-71522295D01*
X130352856Y-71522295D02*
X130352856Y-70722295D01*
X130352856Y-70722295D02*
X130429047Y-70836580D01*
X130429047Y-70836580D02*
X130505237Y-70912771D01*
X130505237Y-70912771D02*
X130581428Y-70950866D01*
X129629046Y-70722295D02*
X129552856Y-70722295D01*
X129552856Y-70722295D02*
X129476665Y-70760390D01*
X129476665Y-70760390D02*
X129438570Y-70798485D01*
X129438570Y-70798485D02*
X129400475Y-70874676D01*
X129400475Y-70874676D02*
X129362380Y-71027057D01*
X129362380Y-71027057D02*
X129362380Y-71217533D01*
X129362380Y-71217533D02*
X129400475Y-71369914D01*
X129400475Y-71369914D02*
X129438570Y-71446104D01*
X129438570Y-71446104D02*
X129476665Y-71484200D01*
X129476665Y-71484200D02*
X129552856Y-71522295D01*
X129552856Y-71522295D02*
X129629046Y-71522295D01*
X129629046Y-71522295D02*
X129705237Y-71484200D01*
X129705237Y-71484200D02*
X129743332Y-71446104D01*
X129743332Y-71446104D02*
X129781427Y-71369914D01*
X129781427Y-71369914D02*
X129819523Y-71217533D01*
X129819523Y-71217533D02*
X129819523Y-71027057D01*
X129819523Y-71027057D02*
X129781427Y-70874676D01*
X129781427Y-70874676D02*
X129743332Y-70798485D01*
X129743332Y-70798485D02*
X129705237Y-70760390D01*
X129705237Y-70760390D02*
X129629046Y-70722295D01*
X93776667Y-84334200D02*
X93662381Y-84372295D01*
X93662381Y-84372295D02*
X93471905Y-84372295D01*
X93471905Y-84372295D02*
X93395714Y-84334200D01*
X93395714Y-84334200D02*
X93357619Y-84296104D01*
X93357619Y-84296104D02*
X93319524Y-84219914D01*
X93319524Y-84219914D02*
X93319524Y-84143723D01*
X93319524Y-84143723D02*
X93357619Y-84067533D01*
X93357619Y-84067533D02*
X93395714Y-84029438D01*
X93395714Y-84029438D02*
X93471905Y-83991342D01*
X93471905Y-83991342D02*
X93624286Y-83953247D01*
X93624286Y-83953247D02*
X93700476Y-83915152D01*
X93700476Y-83915152D02*
X93738571Y-83877057D01*
X93738571Y-83877057D02*
X93776667Y-83800866D01*
X93776667Y-83800866D02*
X93776667Y-83724676D01*
X93776667Y-83724676D02*
X93738571Y-83648485D01*
X93738571Y-83648485D02*
X93700476Y-83610390D01*
X93700476Y-83610390D02*
X93624286Y-83572295D01*
X93624286Y-83572295D02*
X93433809Y-83572295D01*
X93433809Y-83572295D02*
X93319524Y-83610390D01*
X93052857Y-83572295D02*
X92862381Y-84372295D01*
X92862381Y-84372295D02*
X92710000Y-83800866D01*
X92710000Y-83800866D02*
X92557619Y-84372295D01*
X92557619Y-84372295D02*
X92367143Y-83572295D01*
X91948095Y-83915152D02*
X92024285Y-83877057D01*
X92024285Y-83877057D02*
X92062380Y-83838961D01*
X92062380Y-83838961D02*
X92100476Y-83762771D01*
X92100476Y-83762771D02*
X92100476Y-83724676D01*
X92100476Y-83724676D02*
X92062380Y-83648485D01*
X92062380Y-83648485D02*
X92024285Y-83610390D01*
X92024285Y-83610390D02*
X91948095Y-83572295D01*
X91948095Y-83572295D02*
X91795714Y-83572295D01*
X91795714Y-83572295D02*
X91719523Y-83610390D01*
X91719523Y-83610390D02*
X91681428Y-83648485D01*
X91681428Y-83648485D02*
X91643333Y-83724676D01*
X91643333Y-83724676D02*
X91643333Y-83762771D01*
X91643333Y-83762771D02*
X91681428Y-83838961D01*
X91681428Y-83838961D02*
X91719523Y-83877057D01*
X91719523Y-83877057D02*
X91795714Y-83915152D01*
X91795714Y-83915152D02*
X91948095Y-83915152D01*
X91948095Y-83915152D02*
X92024285Y-83953247D01*
X92024285Y-83953247D02*
X92062380Y-83991342D01*
X92062380Y-83991342D02*
X92100476Y-84067533D01*
X92100476Y-84067533D02*
X92100476Y-84219914D01*
X92100476Y-84219914D02*
X92062380Y-84296104D01*
X92062380Y-84296104D02*
X92024285Y-84334200D01*
X92024285Y-84334200D02*
X91948095Y-84372295D01*
X91948095Y-84372295D02*
X91795714Y-84372295D01*
X91795714Y-84372295D02*
X91719523Y-84334200D01*
X91719523Y-84334200D02*
X91681428Y-84296104D01*
X91681428Y-84296104D02*
X91643333Y-84219914D01*
X91643333Y-84219914D02*
X91643333Y-84067533D01*
X91643333Y-84067533D02*
X91681428Y-83991342D01*
X91681428Y-83991342D02*
X91719523Y-83953247D01*
X91719523Y-83953247D02*
X91795714Y-83915152D01*
X74726667Y-69094200D02*
X74612381Y-69132295D01*
X74612381Y-69132295D02*
X74421905Y-69132295D01*
X74421905Y-69132295D02*
X74345714Y-69094200D01*
X74345714Y-69094200D02*
X74307619Y-69056104D01*
X74307619Y-69056104D02*
X74269524Y-68979914D01*
X74269524Y-68979914D02*
X74269524Y-68903723D01*
X74269524Y-68903723D02*
X74307619Y-68827533D01*
X74307619Y-68827533D02*
X74345714Y-68789438D01*
X74345714Y-68789438D02*
X74421905Y-68751342D01*
X74421905Y-68751342D02*
X74574286Y-68713247D01*
X74574286Y-68713247D02*
X74650476Y-68675152D01*
X74650476Y-68675152D02*
X74688571Y-68637057D01*
X74688571Y-68637057D02*
X74726667Y-68560866D01*
X74726667Y-68560866D02*
X74726667Y-68484676D01*
X74726667Y-68484676D02*
X74688571Y-68408485D01*
X74688571Y-68408485D02*
X74650476Y-68370390D01*
X74650476Y-68370390D02*
X74574286Y-68332295D01*
X74574286Y-68332295D02*
X74383809Y-68332295D01*
X74383809Y-68332295D02*
X74269524Y-68370390D01*
X74002857Y-68332295D02*
X73812381Y-69132295D01*
X73812381Y-69132295D02*
X73660000Y-68560866D01*
X73660000Y-68560866D02*
X73507619Y-69132295D01*
X73507619Y-69132295D02*
X73317143Y-68332295D01*
X72593333Y-69132295D02*
X73050476Y-69132295D01*
X72821904Y-69132295D02*
X72821904Y-68332295D01*
X72821904Y-68332295D02*
X72898095Y-68446580D01*
X72898095Y-68446580D02*
X72974285Y-68522771D01*
X72974285Y-68522771D02*
X73050476Y-68560866D01*
X74726667Y-87994200D02*
X74612381Y-88032295D01*
X74612381Y-88032295D02*
X74421905Y-88032295D01*
X74421905Y-88032295D02*
X74345714Y-87994200D01*
X74345714Y-87994200D02*
X74307619Y-87956104D01*
X74307619Y-87956104D02*
X74269524Y-87879914D01*
X74269524Y-87879914D02*
X74269524Y-87803723D01*
X74269524Y-87803723D02*
X74307619Y-87727533D01*
X74307619Y-87727533D02*
X74345714Y-87689438D01*
X74345714Y-87689438D02*
X74421905Y-87651342D01*
X74421905Y-87651342D02*
X74574286Y-87613247D01*
X74574286Y-87613247D02*
X74650476Y-87575152D01*
X74650476Y-87575152D02*
X74688571Y-87537057D01*
X74688571Y-87537057D02*
X74726667Y-87460866D01*
X74726667Y-87460866D02*
X74726667Y-87384676D01*
X74726667Y-87384676D02*
X74688571Y-87308485D01*
X74688571Y-87308485D02*
X74650476Y-87270390D01*
X74650476Y-87270390D02*
X74574286Y-87232295D01*
X74574286Y-87232295D02*
X74383809Y-87232295D01*
X74383809Y-87232295D02*
X74269524Y-87270390D01*
X74002857Y-87232295D02*
X73812381Y-88032295D01*
X73812381Y-88032295D02*
X73660000Y-87460866D01*
X73660000Y-87460866D02*
X73507619Y-88032295D01*
X73507619Y-88032295D02*
X73317143Y-87232295D01*
X73088571Y-87232295D02*
X72555237Y-87232295D01*
X72555237Y-87232295D02*
X72898095Y-88032295D01*
X150926667Y-57664200D02*
X150812381Y-57702295D01*
X150812381Y-57702295D02*
X150621905Y-57702295D01*
X150621905Y-57702295D02*
X150545714Y-57664200D01*
X150545714Y-57664200D02*
X150507619Y-57626104D01*
X150507619Y-57626104D02*
X150469524Y-57549914D01*
X150469524Y-57549914D02*
X150469524Y-57473723D01*
X150469524Y-57473723D02*
X150507619Y-57397533D01*
X150507619Y-57397533D02*
X150545714Y-57359438D01*
X150545714Y-57359438D02*
X150621905Y-57321342D01*
X150621905Y-57321342D02*
X150774286Y-57283247D01*
X150774286Y-57283247D02*
X150850476Y-57245152D01*
X150850476Y-57245152D02*
X150888571Y-57207057D01*
X150888571Y-57207057D02*
X150926667Y-57130866D01*
X150926667Y-57130866D02*
X150926667Y-57054676D01*
X150926667Y-57054676D02*
X150888571Y-56978485D01*
X150888571Y-56978485D02*
X150850476Y-56940390D01*
X150850476Y-56940390D02*
X150774286Y-56902295D01*
X150774286Y-56902295D02*
X150583809Y-56902295D01*
X150583809Y-56902295D02*
X150469524Y-56940390D01*
X150202857Y-56902295D02*
X150012381Y-57702295D01*
X150012381Y-57702295D02*
X149860000Y-57130866D01*
X149860000Y-57130866D02*
X149707619Y-57702295D01*
X149707619Y-57702295D02*
X149517143Y-56902295D01*
X148831428Y-56902295D02*
X149212380Y-56902295D01*
X149212380Y-56902295D02*
X149250476Y-57283247D01*
X149250476Y-57283247D02*
X149212380Y-57245152D01*
X149212380Y-57245152D02*
X149136190Y-57207057D01*
X149136190Y-57207057D02*
X148945714Y-57207057D01*
X148945714Y-57207057D02*
X148869523Y-57245152D01*
X148869523Y-57245152D02*
X148831428Y-57283247D01*
X148831428Y-57283247D02*
X148793333Y-57359438D01*
X148793333Y-57359438D02*
X148793333Y-57549914D01*
X148793333Y-57549914D02*
X148831428Y-57626104D01*
X148831428Y-57626104D02*
X148869523Y-57664200D01*
X148869523Y-57664200D02*
X148945714Y-57702295D01*
X148945714Y-57702295D02*
X149136190Y-57702295D01*
X149136190Y-57702295D02*
X149212380Y-57664200D01*
X149212380Y-57664200D02*
X149250476Y-57626104D01*
X112826667Y-77984200D02*
X112712381Y-78022295D01*
X112712381Y-78022295D02*
X112521905Y-78022295D01*
X112521905Y-78022295D02*
X112445714Y-77984200D01*
X112445714Y-77984200D02*
X112407619Y-77946104D01*
X112407619Y-77946104D02*
X112369524Y-77869914D01*
X112369524Y-77869914D02*
X112369524Y-77793723D01*
X112369524Y-77793723D02*
X112407619Y-77717533D01*
X112407619Y-77717533D02*
X112445714Y-77679438D01*
X112445714Y-77679438D02*
X112521905Y-77641342D01*
X112521905Y-77641342D02*
X112674286Y-77603247D01*
X112674286Y-77603247D02*
X112750476Y-77565152D01*
X112750476Y-77565152D02*
X112788571Y-77527057D01*
X112788571Y-77527057D02*
X112826667Y-77450866D01*
X112826667Y-77450866D02*
X112826667Y-77374676D01*
X112826667Y-77374676D02*
X112788571Y-77298485D01*
X112788571Y-77298485D02*
X112750476Y-77260390D01*
X112750476Y-77260390D02*
X112674286Y-77222295D01*
X112674286Y-77222295D02*
X112483809Y-77222295D01*
X112483809Y-77222295D02*
X112369524Y-77260390D01*
X112102857Y-77222295D02*
X111912381Y-78022295D01*
X111912381Y-78022295D02*
X111760000Y-77450866D01*
X111760000Y-77450866D02*
X111607619Y-78022295D01*
X111607619Y-78022295D02*
X111417143Y-77222295D01*
X111074285Y-78022295D02*
X110921904Y-78022295D01*
X110921904Y-78022295D02*
X110845714Y-77984200D01*
X110845714Y-77984200D02*
X110807618Y-77946104D01*
X110807618Y-77946104D02*
X110731428Y-77831819D01*
X110731428Y-77831819D02*
X110693333Y-77679438D01*
X110693333Y-77679438D02*
X110693333Y-77374676D01*
X110693333Y-77374676D02*
X110731428Y-77298485D01*
X110731428Y-77298485D02*
X110769523Y-77260390D01*
X110769523Y-77260390D02*
X110845714Y-77222295D01*
X110845714Y-77222295D02*
X110998095Y-77222295D01*
X110998095Y-77222295D02*
X111074285Y-77260390D01*
X111074285Y-77260390D02*
X111112380Y-77298485D01*
X111112380Y-77298485D02*
X111150476Y-77374676D01*
X111150476Y-77374676D02*
X111150476Y-77565152D01*
X111150476Y-77565152D02*
X111112380Y-77641342D01*
X111112380Y-77641342D02*
X111074285Y-77679438D01*
X111074285Y-77679438D02*
X110998095Y-77717533D01*
X110998095Y-77717533D02*
X110845714Y-77717533D01*
X110845714Y-77717533D02*
X110769523Y-77679438D01*
X110769523Y-77679438D02*
X110731428Y-77641342D01*
X110731428Y-77641342D02*
X110693333Y-77565152D01*
X113217619Y-97034200D02*
X113103333Y-97072295D01*
X113103333Y-97072295D02*
X112912857Y-97072295D01*
X112912857Y-97072295D02*
X112836666Y-97034200D01*
X112836666Y-97034200D02*
X112798571Y-96996104D01*
X112798571Y-96996104D02*
X112760476Y-96919914D01*
X112760476Y-96919914D02*
X112760476Y-96843723D01*
X112760476Y-96843723D02*
X112798571Y-96767533D01*
X112798571Y-96767533D02*
X112836666Y-96729438D01*
X112836666Y-96729438D02*
X112912857Y-96691342D01*
X112912857Y-96691342D02*
X113065238Y-96653247D01*
X113065238Y-96653247D02*
X113141428Y-96615152D01*
X113141428Y-96615152D02*
X113179523Y-96577057D01*
X113179523Y-96577057D02*
X113217619Y-96500866D01*
X113217619Y-96500866D02*
X113217619Y-96424676D01*
X113217619Y-96424676D02*
X113179523Y-96348485D01*
X113179523Y-96348485D02*
X113141428Y-96310390D01*
X113141428Y-96310390D02*
X113065238Y-96272295D01*
X113065238Y-96272295D02*
X112874761Y-96272295D01*
X112874761Y-96272295D02*
X112760476Y-96310390D01*
X112493809Y-96272295D02*
X112303333Y-97072295D01*
X112303333Y-97072295D02*
X112150952Y-96500866D01*
X112150952Y-96500866D02*
X111998571Y-97072295D01*
X111998571Y-97072295D02*
X111808095Y-96272295D01*
X111084285Y-97072295D02*
X111541428Y-97072295D01*
X111312856Y-97072295D02*
X111312856Y-96272295D01*
X111312856Y-96272295D02*
X111389047Y-96386580D01*
X111389047Y-96386580D02*
X111465237Y-96462771D01*
X111465237Y-96462771D02*
X111541428Y-96500866D01*
X110360475Y-96272295D02*
X110741427Y-96272295D01*
X110741427Y-96272295D02*
X110779523Y-96653247D01*
X110779523Y-96653247D02*
X110741427Y-96615152D01*
X110741427Y-96615152D02*
X110665237Y-96577057D01*
X110665237Y-96577057D02*
X110474761Y-96577057D01*
X110474761Y-96577057D02*
X110398570Y-96615152D01*
X110398570Y-96615152D02*
X110360475Y-96653247D01*
X110360475Y-96653247D02*
X110322380Y-96729438D01*
X110322380Y-96729438D02*
X110322380Y-96919914D01*
X110322380Y-96919914D02*
X110360475Y-96996104D01*
X110360475Y-96996104D02*
X110398570Y-97034200D01*
X110398570Y-97034200D02*
X110474761Y-97072295D01*
X110474761Y-97072295D02*
X110665237Y-97072295D01*
X110665237Y-97072295D02*
X110741427Y-97034200D01*
X110741427Y-97034200D02*
X110779523Y-96996104D01*
X170357619Y-80374200D02*
X170243333Y-80412295D01*
X170243333Y-80412295D02*
X170052857Y-80412295D01*
X170052857Y-80412295D02*
X169976666Y-80374200D01*
X169976666Y-80374200D02*
X169938571Y-80336104D01*
X169938571Y-80336104D02*
X169900476Y-80259914D01*
X169900476Y-80259914D02*
X169900476Y-80183723D01*
X169900476Y-80183723D02*
X169938571Y-80107533D01*
X169938571Y-80107533D02*
X169976666Y-80069438D01*
X169976666Y-80069438D02*
X170052857Y-80031342D01*
X170052857Y-80031342D02*
X170205238Y-79993247D01*
X170205238Y-79993247D02*
X170281428Y-79955152D01*
X170281428Y-79955152D02*
X170319523Y-79917057D01*
X170319523Y-79917057D02*
X170357619Y-79840866D01*
X170357619Y-79840866D02*
X170357619Y-79764676D01*
X170357619Y-79764676D02*
X170319523Y-79688485D01*
X170319523Y-79688485D02*
X170281428Y-79650390D01*
X170281428Y-79650390D02*
X170205238Y-79612295D01*
X170205238Y-79612295D02*
X170014761Y-79612295D01*
X170014761Y-79612295D02*
X169900476Y-79650390D01*
X169633809Y-79612295D02*
X169443333Y-80412295D01*
X169443333Y-80412295D02*
X169290952Y-79840866D01*
X169290952Y-79840866D02*
X169138571Y-80412295D01*
X169138571Y-80412295D02*
X168948095Y-79612295D01*
X168224285Y-80412295D02*
X168681428Y-80412295D01*
X168452856Y-80412295D02*
X168452856Y-79612295D01*
X168452856Y-79612295D02*
X168529047Y-79726580D01*
X168529047Y-79726580D02*
X168605237Y-79802771D01*
X168605237Y-79802771D02*
X168681428Y-79840866D01*
X167919523Y-79688485D02*
X167881427Y-79650390D01*
X167881427Y-79650390D02*
X167805237Y-79612295D01*
X167805237Y-79612295D02*
X167614761Y-79612295D01*
X167614761Y-79612295D02*
X167538570Y-79650390D01*
X167538570Y-79650390D02*
X167500475Y-79688485D01*
X167500475Y-79688485D02*
X167462380Y-79764676D01*
X167462380Y-79764676D02*
X167462380Y-79840866D01*
X167462380Y-79840866D02*
X167500475Y-79955152D01*
X167500475Y-79955152D02*
X167957618Y-80412295D01*
X167957618Y-80412295D02*
X167462380Y-80412295D01*
X169986667Y-61484200D02*
X169872381Y-61522295D01*
X169872381Y-61522295D02*
X169681905Y-61522295D01*
X169681905Y-61522295D02*
X169605714Y-61484200D01*
X169605714Y-61484200D02*
X169567619Y-61446104D01*
X169567619Y-61446104D02*
X169529524Y-61369914D01*
X169529524Y-61369914D02*
X169529524Y-61293723D01*
X169529524Y-61293723D02*
X169567619Y-61217533D01*
X169567619Y-61217533D02*
X169605714Y-61179438D01*
X169605714Y-61179438D02*
X169681905Y-61141342D01*
X169681905Y-61141342D02*
X169834286Y-61103247D01*
X169834286Y-61103247D02*
X169910476Y-61065152D01*
X169910476Y-61065152D02*
X169948571Y-61027057D01*
X169948571Y-61027057D02*
X169986667Y-60950866D01*
X169986667Y-60950866D02*
X169986667Y-60874676D01*
X169986667Y-60874676D02*
X169948571Y-60798485D01*
X169948571Y-60798485D02*
X169910476Y-60760390D01*
X169910476Y-60760390D02*
X169834286Y-60722295D01*
X169834286Y-60722295D02*
X169643809Y-60722295D01*
X169643809Y-60722295D02*
X169529524Y-60760390D01*
X169262857Y-60722295D02*
X169072381Y-61522295D01*
X169072381Y-61522295D02*
X168920000Y-60950866D01*
X168920000Y-60950866D02*
X168767619Y-61522295D01*
X168767619Y-61522295D02*
X168577143Y-60722295D01*
X167929523Y-60722295D02*
X168081904Y-60722295D01*
X168081904Y-60722295D02*
X168158095Y-60760390D01*
X168158095Y-60760390D02*
X168196190Y-60798485D01*
X168196190Y-60798485D02*
X168272380Y-60912771D01*
X168272380Y-60912771D02*
X168310476Y-61065152D01*
X168310476Y-61065152D02*
X168310476Y-61369914D01*
X168310476Y-61369914D02*
X168272380Y-61446104D01*
X168272380Y-61446104D02*
X168234285Y-61484200D01*
X168234285Y-61484200D02*
X168158095Y-61522295D01*
X168158095Y-61522295D02*
X168005714Y-61522295D01*
X168005714Y-61522295D02*
X167929523Y-61484200D01*
X167929523Y-61484200D02*
X167891428Y-61446104D01*
X167891428Y-61446104D02*
X167853333Y-61369914D01*
X167853333Y-61369914D02*
X167853333Y-61179438D01*
X167853333Y-61179438D02*
X167891428Y-61103247D01*
X167891428Y-61103247D02*
X167929523Y-61065152D01*
X167929523Y-61065152D02*
X168005714Y-61027057D01*
X168005714Y-61027057D02*
X168158095Y-61027057D01*
X168158095Y-61027057D02*
X168234285Y-61065152D01*
X168234285Y-61065152D02*
X168272380Y-61103247D01*
X168272380Y-61103247D02*
X168310476Y-61179438D01*
X187364736Y-122629882D02*
X187245572Y-122647553D01*
X187245572Y-122647553D02*
X187057989Y-122614477D01*
X187057989Y-122614477D02*
X186989571Y-122563730D01*
X186989571Y-122563730D02*
X186958670Y-122519598D01*
X186958670Y-122519598D02*
X186934384Y-122437950D01*
X186934384Y-122437950D02*
X186947614Y-122362917D01*
X186947614Y-122362917D02*
X186998361Y-122294499D01*
X186998361Y-122294499D02*
X187042493Y-122263598D01*
X187042493Y-122263598D02*
X187124141Y-122239312D01*
X187124141Y-122239312D02*
X187280822Y-122228256D01*
X187280822Y-122228256D02*
X187362470Y-122203970D01*
X187362470Y-122203970D02*
X187406602Y-122173069D01*
X187406602Y-122173069D02*
X187457349Y-122104651D01*
X187457349Y-122104651D02*
X187470579Y-122029618D01*
X187470579Y-122029618D02*
X187446293Y-121947970D01*
X187446293Y-121947970D02*
X187415391Y-121903838D01*
X187415391Y-121903838D02*
X187346974Y-121853091D01*
X187346974Y-121853091D02*
X187159391Y-121820015D01*
X187159391Y-121820015D02*
X187040227Y-121837686D01*
X186784226Y-121753864D02*
X186457725Y-122508634D01*
X186457725Y-122508634D02*
X186406887Y-121919426D01*
X186406887Y-121919426D02*
X186157593Y-122455713D01*
X186157593Y-122455713D02*
X186108929Y-121634791D01*
X185833083Y-121663517D02*
X185802182Y-121619386D01*
X185802182Y-121619386D02*
X185733764Y-121568639D01*
X185733764Y-121568639D02*
X185546182Y-121535563D01*
X185546182Y-121535563D02*
X185464534Y-121559849D01*
X185464534Y-121559849D02*
X185420402Y-121590750D01*
X185420402Y-121590750D02*
X185369655Y-121659168D01*
X185369655Y-121659168D02*
X185356425Y-121734201D01*
X185356425Y-121734201D02*
X185374096Y-121853366D01*
X185374096Y-121853366D02*
X185744912Y-122382946D01*
X185744912Y-122382946D02*
X185257197Y-122296949D01*
X184908401Y-121423105D02*
X184833368Y-121409875D01*
X184833368Y-121409875D02*
X184751720Y-121434161D01*
X184751720Y-121434161D02*
X184707589Y-121465062D01*
X184707589Y-121465062D02*
X184656842Y-121533480D01*
X184656842Y-121533480D02*
X184592865Y-121676931D01*
X184592865Y-121676931D02*
X184559789Y-121864513D01*
X184559789Y-121864513D02*
X184570845Y-122021194D01*
X184570845Y-122021194D02*
X184595131Y-122102842D01*
X184595131Y-122102842D02*
X184626032Y-122146974D01*
X184626032Y-122146974D02*
X184694450Y-122197721D01*
X184694450Y-122197721D02*
X184769483Y-122210951D01*
X184769483Y-122210951D02*
X184851131Y-122186665D01*
X184851131Y-122186665D02*
X184895263Y-122155764D01*
X184895263Y-122155764D02*
X184946009Y-122087346D01*
X184946009Y-122087346D02*
X185009987Y-121943895D01*
X185009987Y-121943895D02*
X185043062Y-121756313D01*
X185043062Y-121756313D02*
X185032007Y-121599632D01*
X185032007Y-121599632D02*
X185007720Y-121517984D01*
X185007720Y-121517984D02*
X184976819Y-121473852D01*
X184976819Y-121473852D02*
X184908401Y-121423105D01*
X166557619Y-121174200D02*
X166443333Y-121212295D01*
X166443333Y-121212295D02*
X166252857Y-121212295D01*
X166252857Y-121212295D02*
X166176666Y-121174200D01*
X166176666Y-121174200D02*
X166138571Y-121136104D01*
X166138571Y-121136104D02*
X166100476Y-121059914D01*
X166100476Y-121059914D02*
X166100476Y-120983723D01*
X166100476Y-120983723D02*
X166138571Y-120907533D01*
X166138571Y-120907533D02*
X166176666Y-120869438D01*
X166176666Y-120869438D02*
X166252857Y-120831342D01*
X166252857Y-120831342D02*
X166405238Y-120793247D01*
X166405238Y-120793247D02*
X166481428Y-120755152D01*
X166481428Y-120755152D02*
X166519523Y-120717057D01*
X166519523Y-120717057D02*
X166557619Y-120640866D01*
X166557619Y-120640866D02*
X166557619Y-120564676D01*
X166557619Y-120564676D02*
X166519523Y-120488485D01*
X166519523Y-120488485D02*
X166481428Y-120450390D01*
X166481428Y-120450390D02*
X166405238Y-120412295D01*
X166405238Y-120412295D02*
X166214761Y-120412295D01*
X166214761Y-120412295D02*
X166100476Y-120450390D01*
X165833809Y-120412295D02*
X165643333Y-121212295D01*
X165643333Y-121212295D02*
X165490952Y-120640866D01*
X165490952Y-120640866D02*
X165338571Y-121212295D01*
X165338571Y-121212295D02*
X165148095Y-120412295D01*
X164424285Y-121212295D02*
X164881428Y-121212295D01*
X164652856Y-121212295D02*
X164652856Y-120412295D01*
X164652856Y-120412295D02*
X164729047Y-120526580D01*
X164729047Y-120526580D02*
X164805237Y-120602771D01*
X164805237Y-120602771D02*
X164881428Y-120640866D01*
X164043332Y-121212295D02*
X163890951Y-121212295D01*
X163890951Y-121212295D02*
X163814761Y-121174200D01*
X163814761Y-121174200D02*
X163776665Y-121136104D01*
X163776665Y-121136104D02*
X163700475Y-121021819D01*
X163700475Y-121021819D02*
X163662380Y-120869438D01*
X163662380Y-120869438D02*
X163662380Y-120564676D01*
X163662380Y-120564676D02*
X163700475Y-120488485D01*
X163700475Y-120488485D02*
X163738570Y-120450390D01*
X163738570Y-120450390D02*
X163814761Y-120412295D01*
X163814761Y-120412295D02*
X163967142Y-120412295D01*
X163967142Y-120412295D02*
X164043332Y-120450390D01*
X164043332Y-120450390D02*
X164081427Y-120488485D01*
X164081427Y-120488485D02*
X164119523Y-120564676D01*
X164119523Y-120564676D02*
X164119523Y-120755152D01*
X164119523Y-120755152D02*
X164081427Y-120831342D01*
X164081427Y-120831342D02*
X164043332Y-120869438D01*
X164043332Y-120869438D02*
X163967142Y-120907533D01*
X163967142Y-120907533D02*
X163814761Y-120907533D01*
X163814761Y-120907533D02*
X163738570Y-120869438D01*
X163738570Y-120869438D02*
X163700475Y-120831342D01*
X163700475Y-120831342D02*
X163662380Y-120755152D01*
X94157619Y-103384200D02*
X94043333Y-103422295D01*
X94043333Y-103422295D02*
X93852857Y-103422295D01*
X93852857Y-103422295D02*
X93776666Y-103384200D01*
X93776666Y-103384200D02*
X93738571Y-103346104D01*
X93738571Y-103346104D02*
X93700476Y-103269914D01*
X93700476Y-103269914D02*
X93700476Y-103193723D01*
X93700476Y-103193723D02*
X93738571Y-103117533D01*
X93738571Y-103117533D02*
X93776666Y-103079438D01*
X93776666Y-103079438D02*
X93852857Y-103041342D01*
X93852857Y-103041342D02*
X94005238Y-103003247D01*
X94005238Y-103003247D02*
X94081428Y-102965152D01*
X94081428Y-102965152D02*
X94119523Y-102927057D01*
X94119523Y-102927057D02*
X94157619Y-102850866D01*
X94157619Y-102850866D02*
X94157619Y-102774676D01*
X94157619Y-102774676D02*
X94119523Y-102698485D01*
X94119523Y-102698485D02*
X94081428Y-102660390D01*
X94081428Y-102660390D02*
X94005238Y-102622295D01*
X94005238Y-102622295D02*
X93814761Y-102622295D01*
X93814761Y-102622295D02*
X93700476Y-102660390D01*
X93433809Y-102622295D02*
X93243333Y-103422295D01*
X93243333Y-103422295D02*
X93090952Y-102850866D01*
X93090952Y-102850866D02*
X92938571Y-103422295D01*
X92938571Y-103422295D02*
X92748095Y-102622295D01*
X92024285Y-103422295D02*
X92481428Y-103422295D01*
X92252856Y-103422295D02*
X92252856Y-102622295D01*
X92252856Y-102622295D02*
X92329047Y-102736580D01*
X92329047Y-102736580D02*
X92405237Y-102812771D01*
X92405237Y-102812771D02*
X92481428Y-102850866D01*
X91338570Y-102888961D02*
X91338570Y-103422295D01*
X91529046Y-102584200D02*
X91719523Y-103155628D01*
X91719523Y-103155628D02*
X91224284Y-103155628D01*
X211606627Y-59774994D02*
X211687439Y-59801931D01*
X211687439Y-59801931D02*
X211768251Y-59882743D01*
X211768251Y-59882743D02*
X211822126Y-59990493D01*
X211822126Y-59990493D02*
X211822126Y-60098242D01*
X211822126Y-60098242D02*
X211795189Y-60179055D01*
X211795189Y-60179055D02*
X211714376Y-60313742D01*
X211714376Y-60313742D02*
X211633564Y-60394554D01*
X211633564Y-60394554D02*
X211498877Y-60475366D01*
X211498877Y-60475366D02*
X211418065Y-60502303D01*
X211418065Y-60502303D02*
X211310315Y-60502303D01*
X211310315Y-60502303D02*
X211202566Y-60448429D01*
X211202566Y-60448429D02*
X211148691Y-60394554D01*
X211148691Y-60394554D02*
X211094816Y-60286804D01*
X211094816Y-60286804D02*
X211094816Y-60232929D01*
X211094816Y-60232929D02*
X211283378Y-60044368D01*
X211283378Y-60044368D02*
X211391128Y-60152117D01*
X210798505Y-60044368D02*
X211364190Y-59478682D01*
X211364190Y-59478682D02*
X211148691Y-59263183D01*
X211148691Y-59263183D02*
X211067879Y-59236246D01*
X211067879Y-59236246D02*
X211014004Y-59236246D01*
X211014004Y-59236246D02*
X210933192Y-59263183D01*
X210933192Y-59263183D02*
X210852380Y-59343995D01*
X210852380Y-59343995D02*
X210825442Y-59424807D01*
X210825442Y-59424807D02*
X210825442Y-59478682D01*
X210825442Y-59478682D02*
X210852380Y-59559494D01*
X210852380Y-59559494D02*
X211067879Y-59774994D01*
X210367506Y-58859122D02*
X209990383Y-59236246D01*
X210717693Y-58778310D02*
X210448319Y-59317058D01*
X210448319Y-59317058D02*
X210098132Y-58966872D01*
X211706627Y-49604994D02*
X211787439Y-49631931D01*
X211787439Y-49631931D02*
X211868251Y-49712743D01*
X211868251Y-49712743D02*
X211922126Y-49820493D01*
X211922126Y-49820493D02*
X211922126Y-49928242D01*
X211922126Y-49928242D02*
X211895189Y-50009055D01*
X211895189Y-50009055D02*
X211814376Y-50143742D01*
X211814376Y-50143742D02*
X211733564Y-50224554D01*
X211733564Y-50224554D02*
X211598877Y-50305366D01*
X211598877Y-50305366D02*
X211518065Y-50332303D01*
X211518065Y-50332303D02*
X211410315Y-50332303D01*
X211410315Y-50332303D02*
X211302566Y-50278429D01*
X211302566Y-50278429D02*
X211248691Y-50224554D01*
X211248691Y-50224554D02*
X211194816Y-50116804D01*
X211194816Y-50116804D02*
X211194816Y-50062929D01*
X211194816Y-50062929D02*
X211383378Y-49874368D01*
X211383378Y-49874368D02*
X211491128Y-49982117D01*
X210898505Y-49874368D02*
X211464190Y-49308682D01*
X211464190Y-49308682D02*
X211248691Y-49093183D01*
X211248691Y-49093183D02*
X211167879Y-49066246D01*
X211167879Y-49066246D02*
X211114004Y-49066246D01*
X211114004Y-49066246D02*
X211033192Y-49093183D01*
X211033192Y-49093183D02*
X210952380Y-49173995D01*
X210952380Y-49173995D02*
X210925442Y-49254807D01*
X210925442Y-49254807D02*
X210925442Y-49308682D01*
X210925442Y-49308682D02*
X210952380Y-49389494D01*
X210952380Y-49389494D02*
X211167879Y-49604994D01*
X210036508Y-49012371D02*
X210359757Y-49335620D01*
X210198132Y-49173995D02*
X210763818Y-48608310D01*
X210763818Y-48608310D02*
X210736880Y-48742997D01*
X210736880Y-48742997D02*
X210736880Y-48850746D01*
X210736880Y-48850746D02*
X210763818Y-48931559D01*
X186229876Y-57574368D02*
X185879690Y-57224182D01*
X185879690Y-57224182D02*
X185852752Y-57628243D01*
X185852752Y-57628243D02*
X185771940Y-57547431D01*
X185771940Y-57547431D02*
X185691128Y-57520493D01*
X185691128Y-57520493D02*
X185637253Y-57520493D01*
X185637253Y-57520493D02*
X185556441Y-57547431D01*
X185556441Y-57547431D02*
X185421754Y-57682118D01*
X185421754Y-57682118D02*
X185394817Y-57762930D01*
X185394817Y-57762930D02*
X185394817Y-57816805D01*
X185394817Y-57816805D02*
X185421754Y-57897617D01*
X185421754Y-57897617D02*
X185583378Y-58059241D01*
X185583378Y-58059241D02*
X185664191Y-58086179D01*
X185664191Y-58086179D02*
X185718065Y-58086179D01*
X185718065Y-57062557D02*
X184963818Y-57439681D01*
X184963818Y-57439681D02*
X185340942Y-56685434D01*
X185206255Y-56550747D02*
X184856069Y-56200561D01*
X184856069Y-56200561D02*
X184829131Y-56604622D01*
X184829131Y-56604622D02*
X184748319Y-56523809D01*
X184748319Y-56523809D02*
X184667507Y-56496872D01*
X184667507Y-56496872D02*
X184613632Y-56496872D01*
X184613632Y-56496872D02*
X184532820Y-56523809D01*
X184532820Y-56523809D02*
X184398133Y-56658496D01*
X184398133Y-56658496D02*
X184371195Y-56739309D01*
X184371195Y-56739309D02*
X184371195Y-56793183D01*
X184371195Y-56793183D02*
X184398133Y-56873996D01*
X184398133Y-56873996D02*
X184559757Y-57035620D01*
X184559757Y-57035620D02*
X184640569Y-57062557D01*
X184640569Y-57062557D02*
X184694444Y-57062557D01*
X211506627Y-69904994D02*
X211587439Y-69931931D01*
X211587439Y-69931931D02*
X211668251Y-70012743D01*
X211668251Y-70012743D02*
X211722126Y-70120493D01*
X211722126Y-70120493D02*
X211722126Y-70228242D01*
X211722126Y-70228242D02*
X211695189Y-70309055D01*
X211695189Y-70309055D02*
X211614376Y-70443742D01*
X211614376Y-70443742D02*
X211533564Y-70524554D01*
X211533564Y-70524554D02*
X211398877Y-70605366D01*
X211398877Y-70605366D02*
X211318065Y-70632303D01*
X211318065Y-70632303D02*
X211210315Y-70632303D01*
X211210315Y-70632303D02*
X211102566Y-70578429D01*
X211102566Y-70578429D02*
X211048691Y-70524554D01*
X211048691Y-70524554D02*
X210994816Y-70416804D01*
X210994816Y-70416804D02*
X210994816Y-70362929D01*
X210994816Y-70362929D02*
X211183378Y-70174368D01*
X211183378Y-70174368D02*
X211291128Y-70282117D01*
X210698505Y-70174368D02*
X211264190Y-69608682D01*
X211264190Y-69608682D02*
X211048691Y-69393183D01*
X211048691Y-69393183D02*
X210967879Y-69366246D01*
X210967879Y-69366246D02*
X210914004Y-69366246D01*
X210914004Y-69366246D02*
X210833192Y-69393183D01*
X210833192Y-69393183D02*
X210752380Y-69473995D01*
X210752380Y-69473995D02*
X210725442Y-69554807D01*
X210725442Y-69554807D02*
X210725442Y-69608682D01*
X210725442Y-69608682D02*
X210752380Y-69689494D01*
X210752380Y-69689494D02*
X210967879Y-69904994D01*
X210752380Y-69096872D02*
X210375256Y-68719748D01*
X210375256Y-68719748D02*
X210052007Y-69527870D01*
X211606627Y-47074994D02*
X211687439Y-47101931D01*
X211687439Y-47101931D02*
X211768251Y-47182743D01*
X211768251Y-47182743D02*
X211822126Y-47290493D01*
X211822126Y-47290493D02*
X211822126Y-47398242D01*
X211822126Y-47398242D02*
X211795189Y-47479055D01*
X211795189Y-47479055D02*
X211714376Y-47613742D01*
X211714376Y-47613742D02*
X211633564Y-47694554D01*
X211633564Y-47694554D02*
X211498877Y-47775366D01*
X211498877Y-47775366D02*
X211418065Y-47802303D01*
X211418065Y-47802303D02*
X211310315Y-47802303D01*
X211310315Y-47802303D02*
X211202566Y-47748429D01*
X211202566Y-47748429D02*
X211148691Y-47694554D01*
X211148691Y-47694554D02*
X211094816Y-47586804D01*
X211094816Y-47586804D02*
X211094816Y-47532929D01*
X211094816Y-47532929D02*
X211283378Y-47344368D01*
X211283378Y-47344368D02*
X211391128Y-47452117D01*
X210798505Y-47344368D02*
X211364190Y-46778682D01*
X211364190Y-46778682D02*
X211148691Y-46563183D01*
X211148691Y-46563183D02*
X211067879Y-46536246D01*
X211067879Y-46536246D02*
X211014004Y-46536246D01*
X211014004Y-46536246D02*
X210933192Y-46563183D01*
X210933192Y-46563183D02*
X210852380Y-46643995D01*
X210852380Y-46643995D02*
X210825442Y-46724807D01*
X210825442Y-46724807D02*
X210825442Y-46778682D01*
X210825442Y-46778682D02*
X210852380Y-46859494D01*
X210852380Y-46859494D02*
X211067879Y-47074994D01*
X210690755Y-46105247D02*
X210636880Y-46051372D01*
X210636880Y-46051372D02*
X210556068Y-46024435D01*
X210556068Y-46024435D02*
X210502193Y-46024435D01*
X210502193Y-46024435D02*
X210421381Y-46051372D01*
X210421381Y-46051372D02*
X210286694Y-46132185D01*
X210286694Y-46132185D02*
X210152007Y-46266872D01*
X210152007Y-46266872D02*
X210071195Y-46401559D01*
X210071195Y-46401559D02*
X210044258Y-46482371D01*
X210044258Y-46482371D02*
X210044258Y-46536246D01*
X210044258Y-46536246D02*
X210071195Y-46617058D01*
X210071195Y-46617058D02*
X210125070Y-46670933D01*
X210125070Y-46670933D02*
X210205882Y-46697870D01*
X210205882Y-46697870D02*
X210259757Y-46697870D01*
X210259757Y-46697870D02*
X210340569Y-46670933D01*
X210340569Y-46670933D02*
X210475256Y-46590120D01*
X210475256Y-46590120D02*
X210609943Y-46455433D01*
X210609943Y-46455433D02*
X210690755Y-46320746D01*
X210690755Y-46320746D02*
X210717693Y-46239934D01*
X210717693Y-46239934D02*
X210717693Y-46186059D01*
X210717693Y-46186059D02*
X210690755Y-46105247D01*
X186022001Y-70204368D02*
X186102814Y-70231305D01*
X186102814Y-70231305D02*
X186183626Y-70312118D01*
X186183626Y-70312118D02*
X186237501Y-70419867D01*
X186237501Y-70419867D02*
X186237501Y-70527617D01*
X186237501Y-70527617D02*
X186210563Y-70608429D01*
X186210563Y-70608429D02*
X186129751Y-70743116D01*
X186129751Y-70743116D02*
X186048939Y-70823928D01*
X186048939Y-70823928D02*
X185914252Y-70904741D01*
X185914252Y-70904741D02*
X185833439Y-70931678D01*
X185833439Y-70931678D02*
X185725690Y-70931678D01*
X185725690Y-70931678D02*
X185617940Y-70877803D01*
X185617940Y-70877803D02*
X185564065Y-70823928D01*
X185564065Y-70823928D02*
X185510191Y-70716179D01*
X185510191Y-70716179D02*
X185510191Y-70662304D01*
X185510191Y-70662304D02*
X185698752Y-70473742D01*
X185698752Y-70473742D02*
X185806502Y-70581492D01*
X185213879Y-70473742D02*
X185779565Y-69908057D01*
X185779565Y-69908057D02*
X185564065Y-69692557D01*
X185564065Y-69692557D02*
X185483253Y-69665620D01*
X185483253Y-69665620D02*
X185429378Y-69665620D01*
X185429378Y-69665620D02*
X185348566Y-69692557D01*
X185348566Y-69692557D02*
X185267754Y-69773370D01*
X185267754Y-69773370D02*
X185240817Y-69854182D01*
X185240817Y-69854182D02*
X185240817Y-69908057D01*
X185240817Y-69908057D02*
X185267754Y-69988869D01*
X185267754Y-69988869D02*
X185483253Y-70204368D01*
X185186942Y-69423183D02*
X185186942Y-69369309D01*
X185186942Y-69369309D02*
X185160004Y-69288496D01*
X185160004Y-69288496D02*
X185025317Y-69153809D01*
X185025317Y-69153809D02*
X184944505Y-69126872D01*
X184944505Y-69126872D02*
X184890630Y-69126872D01*
X184890630Y-69126872D02*
X184809818Y-69153809D01*
X184809818Y-69153809D02*
X184755943Y-69207684D01*
X184755943Y-69207684D02*
X184702069Y-69315434D01*
X184702069Y-69315434D02*
X184702069Y-69961931D01*
X184702069Y-69961931D02*
X184351882Y-69611745D01*
X184432694Y-68561186D02*
X184540444Y-68668936D01*
X184540444Y-68668936D02*
X184567381Y-68749748D01*
X184567381Y-68749748D02*
X184567381Y-68803623D01*
X184567381Y-68803623D02*
X184540444Y-68938310D01*
X184540444Y-68938310D02*
X184459632Y-69072997D01*
X184459632Y-69072997D02*
X184244133Y-69288496D01*
X184244133Y-69288496D02*
X184163320Y-69315434D01*
X184163320Y-69315434D02*
X184109446Y-69315434D01*
X184109446Y-69315434D02*
X184028633Y-69288496D01*
X184028633Y-69288496D02*
X183920884Y-69180747D01*
X183920884Y-69180747D02*
X183893946Y-69099934D01*
X183893946Y-69099934D02*
X183893946Y-69046060D01*
X183893946Y-69046060D02*
X183920884Y-68965247D01*
X183920884Y-68965247D02*
X184055571Y-68830560D01*
X184055571Y-68830560D02*
X184136383Y-68803623D01*
X184136383Y-68803623D02*
X184190258Y-68803623D01*
X184190258Y-68803623D02*
X184271070Y-68830560D01*
X184271070Y-68830560D02*
X184378820Y-68938310D01*
X184378820Y-68938310D02*
X184405757Y-69019122D01*
X184405757Y-69019122D02*
X184405757Y-69072997D01*
X184405757Y-69072997D02*
X184378820Y-69153809D01*
X186199250Y-50153742D02*
X185445003Y-50530866D01*
X185445003Y-50530866D02*
X185822126Y-49776618D01*
X185121754Y-50153742D02*
X185014004Y-50099867D01*
X185014004Y-50099867D02*
X184879317Y-49965180D01*
X184879317Y-49965180D02*
X184852380Y-49884368D01*
X184852380Y-49884368D02*
X184852380Y-49830493D01*
X184852380Y-49830493D02*
X184879317Y-49749681D01*
X184879317Y-49749681D02*
X184933192Y-49695806D01*
X184933192Y-49695806D02*
X185014004Y-49668869D01*
X185014004Y-49668869D02*
X185067879Y-49668869D01*
X185067879Y-49668869D02*
X185148691Y-49695806D01*
X185148691Y-49695806D02*
X185283378Y-49776618D01*
X185283378Y-49776618D02*
X185364191Y-49803556D01*
X185364191Y-49803556D02*
X185418065Y-49803556D01*
X185418065Y-49803556D02*
X185498878Y-49776618D01*
X185498878Y-49776618D02*
X185552752Y-49722744D01*
X185552752Y-49722744D02*
X185579690Y-49641931D01*
X185579690Y-49641931D02*
X185579690Y-49588057D01*
X185579690Y-49588057D02*
X185552752Y-49507244D01*
X185552752Y-49507244D02*
X185418065Y-49372557D01*
X185418065Y-49372557D02*
X185310316Y-49318683D01*
X184690755Y-49237870D02*
X184421381Y-49507244D01*
X185175629Y-49130121D02*
X184690755Y-49237870D01*
X184690755Y-49237870D02*
X184798505Y-48752997D01*
X184098133Y-49130121D02*
X183990383Y-49076246D01*
X183990383Y-49076246D02*
X183855696Y-48941559D01*
X183855696Y-48941559D02*
X183828759Y-48860747D01*
X183828759Y-48860747D02*
X183828759Y-48806872D01*
X183828759Y-48806872D02*
X183855696Y-48726060D01*
X183855696Y-48726060D02*
X183909571Y-48672185D01*
X183909571Y-48672185D02*
X183990383Y-48645248D01*
X183990383Y-48645248D02*
X184044258Y-48645248D01*
X184044258Y-48645248D02*
X184125070Y-48672185D01*
X184125070Y-48672185D02*
X184259757Y-48752997D01*
X184259757Y-48752997D02*
X184340569Y-48779935D01*
X184340569Y-48779935D02*
X184394444Y-48779935D01*
X184394444Y-48779935D02*
X184475256Y-48752997D01*
X184475256Y-48752997D02*
X184529131Y-48699122D01*
X184529131Y-48699122D02*
X184556069Y-48618310D01*
X184556069Y-48618310D02*
X184556069Y-48564435D01*
X184556069Y-48564435D02*
X184529131Y-48483623D01*
X184529131Y-48483623D02*
X184394444Y-48348936D01*
X184394444Y-48348936D02*
X184286695Y-48295061D01*
X212276001Y-85444368D02*
X212356814Y-85471305D01*
X212356814Y-85471305D02*
X212437626Y-85552118D01*
X212437626Y-85552118D02*
X212491501Y-85659867D01*
X212491501Y-85659867D02*
X212491501Y-85767617D01*
X212491501Y-85767617D02*
X212464563Y-85848429D01*
X212464563Y-85848429D02*
X212383751Y-85983116D01*
X212383751Y-85983116D02*
X212302939Y-86063928D01*
X212302939Y-86063928D02*
X212168252Y-86144741D01*
X212168252Y-86144741D02*
X212087439Y-86171678D01*
X212087439Y-86171678D02*
X211979690Y-86171678D01*
X211979690Y-86171678D02*
X211871940Y-86117803D01*
X211871940Y-86117803D02*
X211818065Y-86063928D01*
X211818065Y-86063928D02*
X211764191Y-85956179D01*
X211764191Y-85956179D02*
X211764191Y-85902304D01*
X211764191Y-85902304D02*
X211952752Y-85713742D01*
X211952752Y-85713742D02*
X212060502Y-85821492D01*
X211467879Y-85713742D02*
X212033565Y-85148057D01*
X212033565Y-85148057D02*
X211818065Y-84932557D01*
X211818065Y-84932557D02*
X211737253Y-84905620D01*
X211737253Y-84905620D02*
X211683378Y-84905620D01*
X211683378Y-84905620D02*
X211602566Y-84932557D01*
X211602566Y-84932557D02*
X211521754Y-85013370D01*
X211521754Y-85013370D02*
X211494817Y-85094182D01*
X211494817Y-85094182D02*
X211494817Y-85148057D01*
X211494817Y-85148057D02*
X211521754Y-85228869D01*
X211521754Y-85228869D02*
X211737253Y-85444368D01*
X210605882Y-84851745D02*
X210929131Y-85174994D01*
X210767507Y-85013370D02*
X211333192Y-84447684D01*
X211333192Y-84447684D02*
X211306255Y-84582371D01*
X211306255Y-84582371D02*
X211306255Y-84690121D01*
X211306255Y-84690121D02*
X211333192Y-84770933D01*
X210902194Y-84124435D02*
X210902194Y-84070560D01*
X210902194Y-84070560D02*
X210875256Y-83989748D01*
X210875256Y-83989748D02*
X210740569Y-83855061D01*
X210740569Y-83855061D02*
X210659757Y-83828124D01*
X210659757Y-83828124D02*
X210605882Y-83828124D01*
X210605882Y-83828124D02*
X210525070Y-83855061D01*
X210525070Y-83855061D02*
X210471195Y-83908936D01*
X210471195Y-83908936D02*
X210417320Y-84016686D01*
X210417320Y-84016686D02*
X210417320Y-84663183D01*
X210417320Y-84663183D02*
X210067134Y-84312997D01*
X211633564Y-52181931D02*
X211714376Y-52208868D01*
X211714376Y-52208868D02*
X211795188Y-52289680D01*
X211795188Y-52289680D02*
X211849063Y-52397430D01*
X211849063Y-52397430D02*
X211849063Y-52505180D01*
X211849063Y-52505180D02*
X211822126Y-52585992D01*
X211822126Y-52585992D02*
X211741314Y-52720679D01*
X211741314Y-52720679D02*
X211660501Y-52801491D01*
X211660501Y-52801491D02*
X211525814Y-52882303D01*
X211525814Y-52882303D02*
X211445002Y-52909241D01*
X211445002Y-52909241D02*
X211337253Y-52909241D01*
X211337253Y-52909241D02*
X211229503Y-52855366D01*
X211229503Y-52855366D02*
X211175628Y-52801491D01*
X211175628Y-52801491D02*
X211121753Y-52693741D01*
X211121753Y-52693741D02*
X211121753Y-52639867D01*
X211121753Y-52639867D02*
X211310315Y-52451305D01*
X211310315Y-52451305D02*
X211418065Y-52559054D01*
X210825442Y-52451305D02*
X211391127Y-51885619D01*
X211391127Y-51885619D02*
X210502193Y-52128056D01*
X210502193Y-52128056D02*
X211067879Y-51562371D01*
X210232819Y-51858682D02*
X210798505Y-51292997D01*
X210798505Y-51292997D02*
X210663818Y-51158310D01*
X210663818Y-51158310D02*
X210556068Y-51104435D01*
X210556068Y-51104435D02*
X210448319Y-51104435D01*
X210448319Y-51104435D02*
X210367506Y-51131372D01*
X210367506Y-51131372D02*
X210232819Y-51212185D01*
X210232819Y-51212185D02*
X210152007Y-51292997D01*
X210152007Y-51292997D02*
X210071195Y-51427684D01*
X210071195Y-51427684D02*
X210044258Y-51508496D01*
X210044258Y-51508496D02*
X210044258Y-51616246D01*
X210044258Y-51616246D02*
X210098132Y-51723995D01*
X210098132Y-51723995D02*
X210232819Y-51858682D01*
X211633564Y-77581931D02*
X211714376Y-77608868D01*
X211714376Y-77608868D02*
X211795188Y-77689680D01*
X211795188Y-77689680D02*
X211849063Y-77797430D01*
X211849063Y-77797430D02*
X211849063Y-77905180D01*
X211849063Y-77905180D02*
X211822126Y-77985992D01*
X211822126Y-77985992D02*
X211741314Y-78120679D01*
X211741314Y-78120679D02*
X211660501Y-78201491D01*
X211660501Y-78201491D02*
X211525814Y-78282303D01*
X211525814Y-78282303D02*
X211445002Y-78309241D01*
X211445002Y-78309241D02*
X211337253Y-78309241D01*
X211337253Y-78309241D02*
X211229503Y-78255366D01*
X211229503Y-78255366D02*
X211175628Y-78201491D01*
X211175628Y-78201491D02*
X211121753Y-78093741D01*
X211121753Y-78093741D02*
X211121753Y-78039867D01*
X211121753Y-78039867D02*
X211310315Y-77851305D01*
X211310315Y-77851305D02*
X211418065Y-77959054D01*
X210825442Y-77851305D02*
X211391127Y-77285619D01*
X211391127Y-77285619D02*
X210502193Y-77528056D01*
X210502193Y-77528056D02*
X211067879Y-76962371D01*
X210232819Y-77258682D02*
X210798505Y-76692997D01*
X210798505Y-76692997D02*
X210663818Y-76558310D01*
X210663818Y-76558310D02*
X210556068Y-76504435D01*
X210556068Y-76504435D02*
X210448319Y-76504435D01*
X210448319Y-76504435D02*
X210367506Y-76531372D01*
X210367506Y-76531372D02*
X210232819Y-76612185D01*
X210232819Y-76612185D02*
X210152007Y-76692997D01*
X210152007Y-76692997D02*
X210071195Y-76827684D01*
X210071195Y-76827684D02*
X210044258Y-76908496D01*
X210044258Y-76908496D02*
X210044258Y-77016246D01*
X210044258Y-77016246D02*
X210098132Y-77123995D01*
X210098132Y-77123995D02*
X210232819Y-77258682D01*
X185964935Y-60617549D02*
X185695561Y-60348175D01*
X185857186Y-60833049D02*
X186234309Y-60078801D01*
X186234309Y-60078801D02*
X185480062Y-60455925D01*
X185291500Y-60267363D02*
X185857186Y-59701678D01*
X185857186Y-59701678D02*
X185722499Y-59566991D01*
X185722499Y-59566991D02*
X185614749Y-59513116D01*
X185614749Y-59513116D02*
X185507000Y-59513116D01*
X185507000Y-59513116D02*
X185426187Y-59540053D01*
X185426187Y-59540053D02*
X185291500Y-59620866D01*
X185291500Y-59620866D02*
X185210688Y-59701678D01*
X185210688Y-59701678D02*
X185129876Y-59836365D01*
X185129876Y-59836365D02*
X185102939Y-59917177D01*
X185102939Y-59917177D02*
X185102939Y-60024927D01*
X185102939Y-60024927D02*
X185156813Y-60132676D01*
X185156813Y-60132676D02*
X185291500Y-60267363D01*
X184456441Y-59324554D02*
X184456441Y-59378429D01*
X184456441Y-59378429D02*
X184510316Y-59486179D01*
X184510316Y-59486179D02*
X184564191Y-59540053D01*
X184564191Y-59540053D02*
X184671940Y-59593928D01*
X184671940Y-59593928D02*
X184779690Y-59593928D01*
X184779690Y-59593928D02*
X184860502Y-59566991D01*
X184860502Y-59566991D02*
X184995189Y-59486179D01*
X184995189Y-59486179D02*
X185076001Y-59405366D01*
X185076001Y-59405366D02*
X185156813Y-59270679D01*
X185156813Y-59270679D02*
X185183751Y-59189867D01*
X185183751Y-59189867D02*
X185183751Y-59082118D01*
X185183751Y-59082118D02*
X185129876Y-58974368D01*
X185129876Y-58974368D02*
X185076001Y-58920493D01*
X185076001Y-58920493D02*
X184968252Y-58866618D01*
X184968252Y-58866618D02*
X184914377Y-58866618D01*
X184240942Y-59324554D02*
X183809943Y-58893556D01*
X184375629Y-58220121D02*
X183621381Y-58597244D01*
X183621381Y-58597244D02*
X183998505Y-57842997D01*
X182921009Y-57896872D02*
X183378945Y-57816060D01*
X183244258Y-58220121D02*
X183809943Y-57654435D01*
X183809943Y-57654435D02*
X183594444Y-57438936D01*
X183594444Y-57438936D02*
X183513632Y-57411999D01*
X183513632Y-57411999D02*
X183459757Y-57411999D01*
X183459757Y-57411999D02*
X183378945Y-57438936D01*
X183378945Y-57438936D02*
X183298133Y-57519748D01*
X183298133Y-57519748D02*
X183271195Y-57600561D01*
X183271195Y-57600561D02*
X183271195Y-57654435D01*
X183271195Y-57654435D02*
X183298133Y-57735248D01*
X183298133Y-57735248D02*
X183513632Y-57950747D01*
X182974884Y-57358124D02*
X182786322Y-57169562D01*
X182409199Y-57385061D02*
X182678573Y-57654435D01*
X182678573Y-57654435D02*
X183244258Y-57088750D01*
X183244258Y-57088750D02*
X182974884Y-56819376D01*
X182274511Y-56657751D02*
X182463073Y-56846313D01*
X182166762Y-57142625D02*
X182732447Y-56576939D01*
X182732447Y-56576939D02*
X182463073Y-56307565D01*
X194215238Y-97607700D02*
X194100952Y-97645795D01*
X194100952Y-97645795D02*
X193910476Y-97645795D01*
X193910476Y-97645795D02*
X193834285Y-97607700D01*
X193834285Y-97607700D02*
X193796190Y-97569604D01*
X193796190Y-97569604D02*
X193758095Y-97493414D01*
X193758095Y-97493414D02*
X193758095Y-97417223D01*
X193758095Y-97417223D02*
X193796190Y-97341033D01*
X193796190Y-97341033D02*
X193834285Y-97302938D01*
X193834285Y-97302938D02*
X193910476Y-97264842D01*
X193910476Y-97264842D02*
X194062857Y-97226747D01*
X194062857Y-97226747D02*
X194139047Y-97188652D01*
X194139047Y-97188652D02*
X194177142Y-97150557D01*
X194177142Y-97150557D02*
X194215238Y-97074366D01*
X194215238Y-97074366D02*
X194215238Y-96998176D01*
X194215238Y-96998176D02*
X194177142Y-96921985D01*
X194177142Y-96921985D02*
X194139047Y-96883890D01*
X194139047Y-96883890D02*
X194062857Y-96845795D01*
X194062857Y-96845795D02*
X193872380Y-96845795D01*
X193872380Y-96845795D02*
X193758095Y-96883890D01*
X193491428Y-96845795D02*
X193300952Y-97645795D01*
X193300952Y-97645795D02*
X193148571Y-97074366D01*
X193148571Y-97074366D02*
X192996190Y-97645795D01*
X192996190Y-97645795D02*
X192805714Y-96845795D01*
X192500951Y-97645795D02*
X192500951Y-96845795D01*
X192500951Y-96845795D02*
X192310475Y-96845795D01*
X192310475Y-96845795D02*
X192196189Y-96883890D01*
X192196189Y-96883890D02*
X192119999Y-96960080D01*
X192119999Y-96960080D02*
X192081904Y-97036271D01*
X192081904Y-97036271D02*
X192043808Y-97188652D01*
X192043808Y-97188652D02*
X192043808Y-97302938D01*
X192043808Y-97302938D02*
X192081904Y-97455319D01*
X192081904Y-97455319D02*
X192119999Y-97531509D01*
X192119999Y-97531509D02*
X192196189Y-97607700D01*
X192196189Y-97607700D02*
X192310475Y-97645795D01*
X192310475Y-97645795D02*
X192500951Y-97645795D01*
X191700951Y-97645795D02*
X191700951Y-96845795D01*
X191167618Y-96845795D02*
X191015237Y-96845795D01*
X191015237Y-96845795D02*
X190939047Y-96883890D01*
X190939047Y-96883890D02*
X190862856Y-96960080D01*
X190862856Y-96960080D02*
X190824761Y-97112461D01*
X190824761Y-97112461D02*
X190824761Y-97379128D01*
X190824761Y-97379128D02*
X190862856Y-97531509D01*
X190862856Y-97531509D02*
X190939047Y-97607700D01*
X190939047Y-97607700D02*
X191015237Y-97645795D01*
X191015237Y-97645795D02*
X191167618Y-97645795D01*
X191167618Y-97645795D02*
X191243809Y-97607700D01*
X191243809Y-97607700D02*
X191319999Y-97531509D01*
X191319999Y-97531509D02*
X191358095Y-97379128D01*
X191358095Y-97379128D02*
X191358095Y-97112461D01*
X191358095Y-97112461D02*
X191319999Y-96960080D01*
X191319999Y-96960080D02*
X191243809Y-96883890D01*
X191243809Y-96883890D02*
X191167618Y-96845795D01*
X212130001Y-87984368D02*
X212210814Y-88011305D01*
X212210814Y-88011305D02*
X212291626Y-88092118D01*
X212291626Y-88092118D02*
X212345501Y-88199867D01*
X212345501Y-88199867D02*
X212345501Y-88307617D01*
X212345501Y-88307617D02*
X212318563Y-88388429D01*
X212318563Y-88388429D02*
X212237751Y-88523116D01*
X212237751Y-88523116D02*
X212156939Y-88603928D01*
X212156939Y-88603928D02*
X212022252Y-88684741D01*
X212022252Y-88684741D02*
X211941439Y-88711678D01*
X211941439Y-88711678D02*
X211833690Y-88711678D01*
X211833690Y-88711678D02*
X211725940Y-88657803D01*
X211725940Y-88657803D02*
X211672065Y-88603928D01*
X211672065Y-88603928D02*
X211618191Y-88496179D01*
X211618191Y-88496179D02*
X211618191Y-88442304D01*
X211618191Y-88442304D02*
X211806752Y-88253742D01*
X211806752Y-88253742D02*
X211914502Y-88361492D01*
X211321879Y-88253742D02*
X211887565Y-87688057D01*
X211887565Y-87688057D02*
X211672065Y-87472557D01*
X211672065Y-87472557D02*
X211591253Y-87445620D01*
X211591253Y-87445620D02*
X211537378Y-87445620D01*
X211537378Y-87445620D02*
X211456566Y-87472557D01*
X211456566Y-87472557D02*
X211375754Y-87553370D01*
X211375754Y-87553370D02*
X211348817Y-87634182D01*
X211348817Y-87634182D02*
X211348817Y-87688057D01*
X211348817Y-87688057D02*
X211375754Y-87768869D01*
X211375754Y-87768869D02*
X211591253Y-87984368D01*
X210459882Y-87391745D02*
X210783131Y-87714994D01*
X210621507Y-87553370D02*
X211187192Y-86987684D01*
X211187192Y-86987684D02*
X211160255Y-87122371D01*
X211160255Y-87122371D02*
X211160255Y-87230121D01*
X211160255Y-87230121D02*
X211187192Y-87310933D01*
X210837006Y-86637498D02*
X210486820Y-86287312D01*
X210486820Y-86287312D02*
X210459882Y-86691373D01*
X210459882Y-86691373D02*
X210379070Y-86610560D01*
X210379070Y-86610560D02*
X210298258Y-86583623D01*
X210298258Y-86583623D02*
X210244383Y-86583623D01*
X210244383Y-86583623D02*
X210163571Y-86610560D01*
X210163571Y-86610560D02*
X210028884Y-86745247D01*
X210028884Y-86745247D02*
X210001946Y-86826060D01*
X210001946Y-86826060D02*
X210001946Y-86879934D01*
X210001946Y-86879934D02*
X210028884Y-86960747D01*
X210028884Y-86960747D02*
X210190508Y-87122371D01*
X210190508Y-87122371D02*
X210271320Y-87149308D01*
X210271320Y-87149308D02*
X210325195Y-87149308D01*
X211606627Y-75014994D02*
X211687439Y-75041931D01*
X211687439Y-75041931D02*
X211768251Y-75122743D01*
X211768251Y-75122743D02*
X211822126Y-75230493D01*
X211822126Y-75230493D02*
X211822126Y-75338242D01*
X211822126Y-75338242D02*
X211795189Y-75419055D01*
X211795189Y-75419055D02*
X211714376Y-75553742D01*
X211714376Y-75553742D02*
X211633564Y-75634554D01*
X211633564Y-75634554D02*
X211498877Y-75715366D01*
X211498877Y-75715366D02*
X211418065Y-75742303D01*
X211418065Y-75742303D02*
X211310315Y-75742303D01*
X211310315Y-75742303D02*
X211202566Y-75688429D01*
X211202566Y-75688429D02*
X211148691Y-75634554D01*
X211148691Y-75634554D02*
X211094816Y-75526804D01*
X211094816Y-75526804D02*
X211094816Y-75472929D01*
X211094816Y-75472929D02*
X211283378Y-75284368D01*
X211283378Y-75284368D02*
X211391128Y-75392117D01*
X210798505Y-75284368D02*
X211364190Y-74718682D01*
X211364190Y-74718682D02*
X211148691Y-74503183D01*
X211148691Y-74503183D02*
X211067879Y-74476246D01*
X211067879Y-74476246D02*
X211014004Y-74476246D01*
X211014004Y-74476246D02*
X210933192Y-74503183D01*
X210933192Y-74503183D02*
X210852380Y-74583995D01*
X210852380Y-74583995D02*
X210825442Y-74664807D01*
X210825442Y-74664807D02*
X210825442Y-74718682D01*
X210825442Y-74718682D02*
X210852380Y-74799494D01*
X210852380Y-74799494D02*
X211067879Y-75014994D01*
X210205882Y-74691745D02*
X210098132Y-74583995D01*
X210098132Y-74583995D02*
X210071195Y-74503183D01*
X210071195Y-74503183D02*
X210071195Y-74449308D01*
X210071195Y-74449308D02*
X210098132Y-74314621D01*
X210098132Y-74314621D02*
X210178945Y-74179934D01*
X210178945Y-74179934D02*
X210394444Y-73964435D01*
X210394444Y-73964435D02*
X210475256Y-73937498D01*
X210475256Y-73937498D02*
X210529131Y-73937498D01*
X210529131Y-73937498D02*
X210609943Y-73964435D01*
X210609943Y-73964435D02*
X210717693Y-74072185D01*
X210717693Y-74072185D02*
X210744630Y-74152997D01*
X210744630Y-74152997D02*
X210744630Y-74206872D01*
X210744630Y-74206872D02*
X210717693Y-74287684D01*
X210717693Y-74287684D02*
X210583006Y-74422371D01*
X210583006Y-74422371D02*
X210502193Y-74449308D01*
X210502193Y-74449308D02*
X210448319Y-74449308D01*
X210448319Y-74449308D02*
X210367506Y-74422371D01*
X210367506Y-74422371D02*
X210259757Y-74314621D01*
X210259757Y-74314621D02*
X210232819Y-74233809D01*
X210232819Y-74233809D02*
X210232819Y-74179934D01*
X210232819Y-74179934D02*
X210259757Y-74099122D01*
X205629524Y-97607700D02*
X205515238Y-97645795D01*
X205515238Y-97645795D02*
X205324762Y-97645795D01*
X205324762Y-97645795D02*
X205248571Y-97607700D01*
X205248571Y-97607700D02*
X205210476Y-97569604D01*
X205210476Y-97569604D02*
X205172381Y-97493414D01*
X205172381Y-97493414D02*
X205172381Y-97417223D01*
X205172381Y-97417223D02*
X205210476Y-97341033D01*
X205210476Y-97341033D02*
X205248571Y-97302938D01*
X205248571Y-97302938D02*
X205324762Y-97264842D01*
X205324762Y-97264842D02*
X205477143Y-97226747D01*
X205477143Y-97226747D02*
X205553333Y-97188652D01*
X205553333Y-97188652D02*
X205591428Y-97150557D01*
X205591428Y-97150557D02*
X205629524Y-97074366D01*
X205629524Y-97074366D02*
X205629524Y-96998176D01*
X205629524Y-96998176D02*
X205591428Y-96921985D01*
X205591428Y-96921985D02*
X205553333Y-96883890D01*
X205553333Y-96883890D02*
X205477143Y-96845795D01*
X205477143Y-96845795D02*
X205286666Y-96845795D01*
X205286666Y-96845795D02*
X205172381Y-96883890D01*
X204905714Y-96845795D02*
X204715238Y-97645795D01*
X204715238Y-97645795D02*
X204562857Y-97074366D01*
X204562857Y-97074366D02*
X204410476Y-97645795D01*
X204410476Y-97645795D02*
X204220000Y-96845795D01*
X203458094Y-97569604D02*
X203496190Y-97607700D01*
X203496190Y-97607700D02*
X203610475Y-97645795D01*
X203610475Y-97645795D02*
X203686666Y-97645795D01*
X203686666Y-97645795D02*
X203800952Y-97607700D01*
X203800952Y-97607700D02*
X203877142Y-97531509D01*
X203877142Y-97531509D02*
X203915237Y-97455319D01*
X203915237Y-97455319D02*
X203953333Y-97302938D01*
X203953333Y-97302938D02*
X203953333Y-97188652D01*
X203953333Y-97188652D02*
X203915237Y-97036271D01*
X203915237Y-97036271D02*
X203877142Y-96960080D01*
X203877142Y-96960080D02*
X203800952Y-96883890D01*
X203800952Y-96883890D02*
X203686666Y-96845795D01*
X203686666Y-96845795D02*
X203610475Y-96845795D01*
X203610475Y-96845795D02*
X203496190Y-96883890D01*
X203496190Y-96883890D02*
X203458094Y-96921985D01*
X202734285Y-97645795D02*
X203115237Y-97645795D01*
X203115237Y-97645795D02*
X203115237Y-96845795D01*
X202467618Y-97645795D02*
X202467618Y-96845795D01*
X202010475Y-97645795D02*
X202353333Y-97188652D01*
X202010475Y-96845795D02*
X202467618Y-97302938D01*
X186033564Y-77581931D02*
X186114376Y-77608868D01*
X186114376Y-77608868D02*
X186195188Y-77689680D01*
X186195188Y-77689680D02*
X186249063Y-77797430D01*
X186249063Y-77797430D02*
X186249063Y-77905180D01*
X186249063Y-77905180D02*
X186222126Y-77985992D01*
X186222126Y-77985992D02*
X186141314Y-78120679D01*
X186141314Y-78120679D02*
X186060501Y-78201491D01*
X186060501Y-78201491D02*
X185925814Y-78282303D01*
X185925814Y-78282303D02*
X185845002Y-78309241D01*
X185845002Y-78309241D02*
X185737253Y-78309241D01*
X185737253Y-78309241D02*
X185629503Y-78255366D01*
X185629503Y-78255366D02*
X185575628Y-78201491D01*
X185575628Y-78201491D02*
X185521753Y-78093741D01*
X185521753Y-78093741D02*
X185521753Y-78039867D01*
X185521753Y-78039867D02*
X185710315Y-77851305D01*
X185710315Y-77851305D02*
X185818065Y-77959054D01*
X185225442Y-77851305D02*
X185791127Y-77285619D01*
X185791127Y-77285619D02*
X184902193Y-77528056D01*
X184902193Y-77528056D02*
X185467879Y-76962371D01*
X184632819Y-77258682D02*
X185198505Y-76692997D01*
X185198505Y-76692997D02*
X185063818Y-76558310D01*
X185063818Y-76558310D02*
X184956068Y-76504435D01*
X184956068Y-76504435D02*
X184848319Y-76504435D01*
X184848319Y-76504435D02*
X184767506Y-76531372D01*
X184767506Y-76531372D02*
X184632819Y-76612185D01*
X184632819Y-76612185D02*
X184552007Y-76692997D01*
X184552007Y-76692997D02*
X184471195Y-76827684D01*
X184471195Y-76827684D02*
X184444258Y-76908496D01*
X184444258Y-76908496D02*
X184444258Y-77016246D01*
X184444258Y-77016246D02*
X184498132Y-77123995D01*
X184498132Y-77123995D02*
X184632819Y-77258682D01*
X186033564Y-90281931D02*
X186114376Y-90308868D01*
X186114376Y-90308868D02*
X186195188Y-90389680D01*
X186195188Y-90389680D02*
X186249063Y-90497430D01*
X186249063Y-90497430D02*
X186249063Y-90605180D01*
X186249063Y-90605180D02*
X186222126Y-90685992D01*
X186222126Y-90685992D02*
X186141314Y-90820679D01*
X186141314Y-90820679D02*
X186060501Y-90901491D01*
X186060501Y-90901491D02*
X185925814Y-90982303D01*
X185925814Y-90982303D02*
X185845002Y-91009241D01*
X185845002Y-91009241D02*
X185737253Y-91009241D01*
X185737253Y-91009241D02*
X185629503Y-90955366D01*
X185629503Y-90955366D02*
X185575628Y-90901491D01*
X185575628Y-90901491D02*
X185521753Y-90793741D01*
X185521753Y-90793741D02*
X185521753Y-90739867D01*
X185521753Y-90739867D02*
X185710315Y-90551305D01*
X185710315Y-90551305D02*
X185818065Y-90659054D01*
X185225442Y-90551305D02*
X185791127Y-89985619D01*
X185791127Y-89985619D02*
X184902193Y-90228056D01*
X184902193Y-90228056D02*
X185467879Y-89662371D01*
X184632819Y-89958682D02*
X185198505Y-89392997D01*
X185198505Y-89392997D02*
X185063818Y-89258310D01*
X185063818Y-89258310D02*
X184956068Y-89204435D01*
X184956068Y-89204435D02*
X184848319Y-89204435D01*
X184848319Y-89204435D02*
X184767506Y-89231372D01*
X184767506Y-89231372D02*
X184632819Y-89312185D01*
X184632819Y-89312185D02*
X184552007Y-89392997D01*
X184552007Y-89392997D02*
X184471195Y-89527684D01*
X184471195Y-89527684D02*
X184444258Y-89608496D01*
X184444258Y-89608496D02*
X184444258Y-89716246D01*
X184444258Y-89716246D02*
X184498132Y-89823995D01*
X184498132Y-89823995D02*
X184632819Y-89958682D01*
X212176001Y-93064368D02*
X212256814Y-93091305D01*
X212256814Y-93091305D02*
X212337626Y-93172118D01*
X212337626Y-93172118D02*
X212391501Y-93279867D01*
X212391501Y-93279867D02*
X212391501Y-93387617D01*
X212391501Y-93387617D02*
X212364563Y-93468429D01*
X212364563Y-93468429D02*
X212283751Y-93603116D01*
X212283751Y-93603116D02*
X212202939Y-93683928D01*
X212202939Y-93683928D02*
X212068252Y-93764741D01*
X212068252Y-93764741D02*
X211987439Y-93791678D01*
X211987439Y-93791678D02*
X211879690Y-93791678D01*
X211879690Y-93791678D02*
X211771940Y-93737803D01*
X211771940Y-93737803D02*
X211718065Y-93683928D01*
X211718065Y-93683928D02*
X211664191Y-93576179D01*
X211664191Y-93576179D02*
X211664191Y-93522304D01*
X211664191Y-93522304D02*
X211852752Y-93333742D01*
X211852752Y-93333742D02*
X211960502Y-93441492D01*
X211367879Y-93333742D02*
X211933565Y-92768057D01*
X211933565Y-92768057D02*
X211718065Y-92552557D01*
X211718065Y-92552557D02*
X211637253Y-92525620D01*
X211637253Y-92525620D02*
X211583378Y-92525620D01*
X211583378Y-92525620D02*
X211502566Y-92552557D01*
X211502566Y-92552557D02*
X211421754Y-92633370D01*
X211421754Y-92633370D02*
X211394817Y-92714182D01*
X211394817Y-92714182D02*
X211394817Y-92768057D01*
X211394817Y-92768057D02*
X211421754Y-92848869D01*
X211421754Y-92848869D02*
X211637253Y-93064368D01*
X210505882Y-92471745D02*
X210829131Y-92794994D01*
X210667507Y-92633370D02*
X211233192Y-92067684D01*
X211233192Y-92067684D02*
X211206255Y-92202371D01*
X211206255Y-92202371D02*
X211206255Y-92310121D01*
X211206255Y-92310121D02*
X211233192Y-92390933D01*
X210398133Y-91609748D02*
X210021009Y-91986872D01*
X210748319Y-91528936D02*
X210478945Y-92067684D01*
X210478945Y-92067684D02*
X210128759Y-91717498D01*
X186022001Y-67674368D02*
X186102814Y-67701305D01*
X186102814Y-67701305D02*
X186183626Y-67782118D01*
X186183626Y-67782118D02*
X186237501Y-67889867D01*
X186237501Y-67889867D02*
X186237501Y-67997617D01*
X186237501Y-67997617D02*
X186210563Y-68078429D01*
X186210563Y-68078429D02*
X186129751Y-68213116D01*
X186129751Y-68213116D02*
X186048939Y-68293928D01*
X186048939Y-68293928D02*
X185914252Y-68374741D01*
X185914252Y-68374741D02*
X185833439Y-68401678D01*
X185833439Y-68401678D02*
X185725690Y-68401678D01*
X185725690Y-68401678D02*
X185617940Y-68347803D01*
X185617940Y-68347803D02*
X185564065Y-68293928D01*
X185564065Y-68293928D02*
X185510191Y-68186179D01*
X185510191Y-68186179D02*
X185510191Y-68132304D01*
X185510191Y-68132304D02*
X185698752Y-67943742D01*
X185698752Y-67943742D02*
X185806502Y-68051492D01*
X185213879Y-67943742D02*
X185779565Y-67378057D01*
X185779565Y-67378057D02*
X185564065Y-67162557D01*
X185564065Y-67162557D02*
X185483253Y-67135620D01*
X185483253Y-67135620D02*
X185429378Y-67135620D01*
X185429378Y-67135620D02*
X185348566Y-67162557D01*
X185348566Y-67162557D02*
X185267754Y-67243370D01*
X185267754Y-67243370D02*
X185240817Y-67324182D01*
X185240817Y-67324182D02*
X185240817Y-67378057D01*
X185240817Y-67378057D02*
X185267754Y-67458869D01*
X185267754Y-67458869D02*
X185483253Y-67674368D01*
X185186942Y-66893183D02*
X185186942Y-66839309D01*
X185186942Y-66839309D02*
X185160004Y-66758496D01*
X185160004Y-66758496D02*
X185025317Y-66623809D01*
X185025317Y-66623809D02*
X184944505Y-66596872D01*
X184944505Y-66596872D02*
X184890630Y-66596872D01*
X184890630Y-66596872D02*
X184809818Y-66623809D01*
X184809818Y-66623809D02*
X184755943Y-66677684D01*
X184755943Y-66677684D02*
X184702069Y-66785434D01*
X184702069Y-66785434D02*
X184702069Y-67431931D01*
X184702069Y-67431931D02*
X184351882Y-67081745D01*
X184729006Y-66327498D02*
X184351882Y-65950374D01*
X184351882Y-65950374D02*
X184028633Y-66758496D01*
X185281348Y-73027210D02*
X185739283Y-72946398D01*
X185604596Y-73350459D02*
X186170282Y-72784774D01*
X186170282Y-72784774D02*
X185954783Y-72569275D01*
X185954783Y-72569275D02*
X185873970Y-72542337D01*
X185873970Y-72542337D02*
X185820096Y-72542337D01*
X185820096Y-72542337D02*
X185739283Y-72569275D01*
X185739283Y-72569275D02*
X185658471Y-72650087D01*
X185658471Y-72650087D02*
X185631534Y-72730899D01*
X185631534Y-72730899D02*
X185631534Y-72784774D01*
X185631534Y-72784774D02*
X185658471Y-72865586D01*
X185658471Y-72865586D02*
X185873970Y-73081085D01*
X185604596Y-72219088D02*
X185146661Y-72677024D01*
X185146661Y-72677024D02*
X185065848Y-72703962D01*
X185065848Y-72703962D02*
X185011974Y-72703962D01*
X185011974Y-72703962D02*
X184931161Y-72677024D01*
X184931161Y-72677024D02*
X184823412Y-72569275D01*
X184823412Y-72569275D02*
X184796474Y-72488462D01*
X184796474Y-72488462D02*
X184796474Y-72434588D01*
X184796474Y-72434588D02*
X184823412Y-72353775D01*
X184823412Y-72353775D02*
X185281348Y-71895840D01*
X184446288Y-72192151D02*
X185011974Y-71626466D01*
X185011974Y-71626466D02*
X184123040Y-71868902D01*
X184123040Y-71868902D02*
X184688725Y-71303217D01*
X211606627Y-67394994D02*
X211687439Y-67421931D01*
X211687439Y-67421931D02*
X211768251Y-67502743D01*
X211768251Y-67502743D02*
X211822126Y-67610493D01*
X211822126Y-67610493D02*
X211822126Y-67718242D01*
X211822126Y-67718242D02*
X211795189Y-67799055D01*
X211795189Y-67799055D02*
X211714376Y-67933742D01*
X211714376Y-67933742D02*
X211633564Y-68014554D01*
X211633564Y-68014554D02*
X211498877Y-68095366D01*
X211498877Y-68095366D02*
X211418065Y-68122303D01*
X211418065Y-68122303D02*
X211310315Y-68122303D01*
X211310315Y-68122303D02*
X211202566Y-68068429D01*
X211202566Y-68068429D02*
X211148691Y-68014554D01*
X211148691Y-68014554D02*
X211094816Y-67906804D01*
X211094816Y-67906804D02*
X211094816Y-67852929D01*
X211094816Y-67852929D02*
X211283378Y-67664368D01*
X211283378Y-67664368D02*
X211391128Y-67772117D01*
X210798505Y-67664368D02*
X211364190Y-67098682D01*
X211364190Y-67098682D02*
X211148691Y-66883183D01*
X211148691Y-66883183D02*
X211067879Y-66856246D01*
X211067879Y-66856246D02*
X211014004Y-66856246D01*
X211014004Y-66856246D02*
X210933192Y-66883183D01*
X210933192Y-66883183D02*
X210852380Y-66963995D01*
X210852380Y-66963995D02*
X210825442Y-67044807D01*
X210825442Y-67044807D02*
X210825442Y-67098682D01*
X210825442Y-67098682D02*
X210852380Y-67179494D01*
X210852380Y-67179494D02*
X211067879Y-67394994D01*
X210556068Y-66290560D02*
X210663818Y-66398310D01*
X210663818Y-66398310D02*
X210690755Y-66479122D01*
X210690755Y-66479122D02*
X210690755Y-66532997D01*
X210690755Y-66532997D02*
X210663818Y-66667684D01*
X210663818Y-66667684D02*
X210583006Y-66802371D01*
X210583006Y-66802371D02*
X210367506Y-67017870D01*
X210367506Y-67017870D02*
X210286694Y-67044807D01*
X210286694Y-67044807D02*
X210232819Y-67044807D01*
X210232819Y-67044807D02*
X210152007Y-67017870D01*
X210152007Y-67017870D02*
X210044258Y-66910120D01*
X210044258Y-66910120D02*
X210017320Y-66829308D01*
X210017320Y-66829308D02*
X210017320Y-66775433D01*
X210017320Y-66775433D02*
X210044258Y-66694621D01*
X210044258Y-66694621D02*
X210178945Y-66559934D01*
X210178945Y-66559934D02*
X210259757Y-66532997D01*
X210259757Y-66532997D02*
X210313632Y-66532997D01*
X210313632Y-66532997D02*
X210394444Y-66559934D01*
X210394444Y-66559934D02*
X210502193Y-66667684D01*
X210502193Y-66667684D02*
X210529131Y-66748496D01*
X210529131Y-66748496D02*
X210529131Y-66802371D01*
X210529131Y-66802371D02*
X210502193Y-66883183D01*
X186033564Y-52181931D02*
X186114376Y-52208868D01*
X186114376Y-52208868D02*
X186195188Y-52289680D01*
X186195188Y-52289680D02*
X186249063Y-52397430D01*
X186249063Y-52397430D02*
X186249063Y-52505180D01*
X186249063Y-52505180D02*
X186222126Y-52585992D01*
X186222126Y-52585992D02*
X186141314Y-52720679D01*
X186141314Y-52720679D02*
X186060501Y-52801491D01*
X186060501Y-52801491D02*
X185925814Y-52882303D01*
X185925814Y-52882303D02*
X185845002Y-52909241D01*
X185845002Y-52909241D02*
X185737253Y-52909241D01*
X185737253Y-52909241D02*
X185629503Y-52855366D01*
X185629503Y-52855366D02*
X185575628Y-52801491D01*
X185575628Y-52801491D02*
X185521753Y-52693741D01*
X185521753Y-52693741D02*
X185521753Y-52639867D01*
X185521753Y-52639867D02*
X185710315Y-52451305D01*
X185710315Y-52451305D02*
X185818065Y-52559054D01*
X185225442Y-52451305D02*
X185791127Y-51885619D01*
X185791127Y-51885619D02*
X184902193Y-52128056D01*
X184902193Y-52128056D02*
X185467879Y-51562371D01*
X184632819Y-51858682D02*
X185198505Y-51292997D01*
X185198505Y-51292997D02*
X185063818Y-51158310D01*
X185063818Y-51158310D02*
X184956068Y-51104435D01*
X184956068Y-51104435D02*
X184848319Y-51104435D01*
X184848319Y-51104435D02*
X184767506Y-51131372D01*
X184767506Y-51131372D02*
X184632819Y-51212185D01*
X184632819Y-51212185D02*
X184552007Y-51292997D01*
X184552007Y-51292997D02*
X184471195Y-51427684D01*
X184471195Y-51427684D02*
X184444258Y-51508496D01*
X184444258Y-51508496D02*
X184444258Y-51616246D01*
X184444258Y-51616246D02*
X184498132Y-51723995D01*
X184498132Y-51723995D02*
X184632819Y-51858682D01*
X186022001Y-93064368D02*
X186102814Y-93091305D01*
X186102814Y-93091305D02*
X186183626Y-93172118D01*
X186183626Y-93172118D02*
X186237501Y-93279867D01*
X186237501Y-93279867D02*
X186237501Y-93387617D01*
X186237501Y-93387617D02*
X186210563Y-93468429D01*
X186210563Y-93468429D02*
X186129751Y-93603116D01*
X186129751Y-93603116D02*
X186048939Y-93683928D01*
X186048939Y-93683928D02*
X185914252Y-93764741D01*
X185914252Y-93764741D02*
X185833439Y-93791678D01*
X185833439Y-93791678D02*
X185725690Y-93791678D01*
X185725690Y-93791678D02*
X185617940Y-93737803D01*
X185617940Y-93737803D02*
X185564065Y-93683928D01*
X185564065Y-93683928D02*
X185510191Y-93576179D01*
X185510191Y-93576179D02*
X185510191Y-93522304D01*
X185510191Y-93522304D02*
X185698752Y-93333742D01*
X185698752Y-93333742D02*
X185806502Y-93441492D01*
X185213879Y-93333742D02*
X185779565Y-92768057D01*
X185779565Y-92768057D02*
X185564065Y-92552557D01*
X185564065Y-92552557D02*
X185483253Y-92525620D01*
X185483253Y-92525620D02*
X185429378Y-92525620D01*
X185429378Y-92525620D02*
X185348566Y-92552557D01*
X185348566Y-92552557D02*
X185267754Y-92633370D01*
X185267754Y-92633370D02*
X185240817Y-92714182D01*
X185240817Y-92714182D02*
X185240817Y-92768057D01*
X185240817Y-92768057D02*
X185267754Y-92848869D01*
X185267754Y-92848869D02*
X185483253Y-93064368D01*
X184351882Y-92471745D02*
X184675131Y-92794994D01*
X184513507Y-92633370D02*
X185079192Y-92067684D01*
X185079192Y-92067684D02*
X185052255Y-92202371D01*
X185052255Y-92202371D02*
X185052255Y-92310121D01*
X185052255Y-92310121D02*
X185079192Y-92390933D01*
X184729006Y-91717498D02*
X184351882Y-91340374D01*
X184351882Y-91340374D02*
X184028633Y-92148496D01*
X211633564Y-90281931D02*
X211714376Y-90308868D01*
X211714376Y-90308868D02*
X211795188Y-90389680D01*
X211795188Y-90389680D02*
X211849063Y-90497430D01*
X211849063Y-90497430D02*
X211849063Y-90605180D01*
X211849063Y-90605180D02*
X211822126Y-90685992D01*
X211822126Y-90685992D02*
X211741314Y-90820679D01*
X211741314Y-90820679D02*
X211660501Y-90901491D01*
X211660501Y-90901491D02*
X211525814Y-90982303D01*
X211525814Y-90982303D02*
X211445002Y-91009241D01*
X211445002Y-91009241D02*
X211337253Y-91009241D01*
X211337253Y-91009241D02*
X211229503Y-90955366D01*
X211229503Y-90955366D02*
X211175628Y-90901491D01*
X211175628Y-90901491D02*
X211121753Y-90793741D01*
X211121753Y-90793741D02*
X211121753Y-90739867D01*
X211121753Y-90739867D02*
X211310315Y-90551305D01*
X211310315Y-90551305D02*
X211418065Y-90659054D01*
X210825442Y-90551305D02*
X211391127Y-89985619D01*
X211391127Y-89985619D02*
X210502193Y-90228056D01*
X210502193Y-90228056D02*
X211067879Y-89662371D01*
X210232819Y-89958682D02*
X210798505Y-89392997D01*
X210798505Y-89392997D02*
X210663818Y-89258310D01*
X210663818Y-89258310D02*
X210556068Y-89204435D01*
X210556068Y-89204435D02*
X210448319Y-89204435D01*
X210448319Y-89204435D02*
X210367506Y-89231372D01*
X210367506Y-89231372D02*
X210232819Y-89312185D01*
X210232819Y-89312185D02*
X210152007Y-89392997D01*
X210152007Y-89392997D02*
X210071195Y-89527684D01*
X210071195Y-89527684D02*
X210044258Y-89608496D01*
X210044258Y-89608496D02*
X210044258Y-89716246D01*
X210044258Y-89716246D02*
X210098132Y-89823995D01*
X210098132Y-89823995D02*
X210232819Y-89958682D01*
X186022001Y-82904368D02*
X186102814Y-82931305D01*
X186102814Y-82931305D02*
X186183626Y-83012118D01*
X186183626Y-83012118D02*
X186237501Y-83119867D01*
X186237501Y-83119867D02*
X186237501Y-83227617D01*
X186237501Y-83227617D02*
X186210563Y-83308429D01*
X186210563Y-83308429D02*
X186129751Y-83443116D01*
X186129751Y-83443116D02*
X186048939Y-83523928D01*
X186048939Y-83523928D02*
X185914252Y-83604741D01*
X185914252Y-83604741D02*
X185833439Y-83631678D01*
X185833439Y-83631678D02*
X185725690Y-83631678D01*
X185725690Y-83631678D02*
X185617940Y-83577803D01*
X185617940Y-83577803D02*
X185564065Y-83523928D01*
X185564065Y-83523928D02*
X185510191Y-83416179D01*
X185510191Y-83416179D02*
X185510191Y-83362304D01*
X185510191Y-83362304D02*
X185698752Y-83173742D01*
X185698752Y-83173742D02*
X185806502Y-83281492D01*
X185213879Y-83173742D02*
X185779565Y-82608057D01*
X185779565Y-82608057D02*
X185564065Y-82392557D01*
X185564065Y-82392557D02*
X185483253Y-82365620D01*
X185483253Y-82365620D02*
X185429378Y-82365620D01*
X185429378Y-82365620D02*
X185348566Y-82392557D01*
X185348566Y-82392557D02*
X185267754Y-82473370D01*
X185267754Y-82473370D02*
X185240817Y-82554182D01*
X185240817Y-82554182D02*
X185240817Y-82608057D01*
X185240817Y-82608057D02*
X185267754Y-82688869D01*
X185267754Y-82688869D02*
X185483253Y-82904368D01*
X185186942Y-82123183D02*
X185186942Y-82069309D01*
X185186942Y-82069309D02*
X185160004Y-81988496D01*
X185160004Y-81988496D02*
X185025317Y-81853809D01*
X185025317Y-81853809D02*
X184944505Y-81826872D01*
X184944505Y-81826872D02*
X184890630Y-81826872D01*
X184890630Y-81826872D02*
X184809818Y-81853809D01*
X184809818Y-81853809D02*
X184755943Y-81907684D01*
X184755943Y-81907684D02*
X184702069Y-82015434D01*
X184702069Y-82015434D02*
X184702069Y-82661931D01*
X184702069Y-82661931D02*
X184351882Y-82311745D01*
X184567381Y-81395873D02*
X184513507Y-81341999D01*
X184513507Y-81341999D02*
X184432694Y-81315061D01*
X184432694Y-81315061D02*
X184378820Y-81315061D01*
X184378820Y-81315061D02*
X184298007Y-81341999D01*
X184298007Y-81341999D02*
X184163320Y-81422811D01*
X184163320Y-81422811D02*
X184028633Y-81557498D01*
X184028633Y-81557498D02*
X183947821Y-81692185D01*
X183947821Y-81692185D02*
X183920884Y-81772997D01*
X183920884Y-81772997D02*
X183920884Y-81826872D01*
X183920884Y-81826872D02*
X183947821Y-81907684D01*
X183947821Y-81907684D02*
X184001696Y-81961559D01*
X184001696Y-81961559D02*
X184082508Y-81988496D01*
X184082508Y-81988496D02*
X184136383Y-81988496D01*
X184136383Y-81988496D02*
X184217195Y-81961559D01*
X184217195Y-81961559D02*
X184351882Y-81880747D01*
X184351882Y-81880747D02*
X184486569Y-81746060D01*
X184486569Y-81746060D02*
X184567381Y-81611373D01*
X184567381Y-81611373D02*
X184594319Y-81530560D01*
X184594319Y-81530560D02*
X184594319Y-81476686D01*
X184594319Y-81476686D02*
X184567381Y-81395873D01*
X211633564Y-64881931D02*
X211714376Y-64908868D01*
X211714376Y-64908868D02*
X211795188Y-64989680D01*
X211795188Y-64989680D02*
X211849063Y-65097430D01*
X211849063Y-65097430D02*
X211849063Y-65205180D01*
X211849063Y-65205180D02*
X211822126Y-65285992D01*
X211822126Y-65285992D02*
X211741314Y-65420679D01*
X211741314Y-65420679D02*
X211660501Y-65501491D01*
X211660501Y-65501491D02*
X211525814Y-65582303D01*
X211525814Y-65582303D02*
X211445002Y-65609241D01*
X211445002Y-65609241D02*
X211337253Y-65609241D01*
X211337253Y-65609241D02*
X211229503Y-65555366D01*
X211229503Y-65555366D02*
X211175628Y-65501491D01*
X211175628Y-65501491D02*
X211121753Y-65393741D01*
X211121753Y-65393741D02*
X211121753Y-65339867D01*
X211121753Y-65339867D02*
X211310315Y-65151305D01*
X211310315Y-65151305D02*
X211418065Y-65259054D01*
X210825442Y-65151305D02*
X211391127Y-64585619D01*
X211391127Y-64585619D02*
X210502193Y-64828056D01*
X210502193Y-64828056D02*
X211067879Y-64262371D01*
X210232819Y-64558682D02*
X210798505Y-63992997D01*
X210798505Y-63992997D02*
X210663818Y-63858310D01*
X210663818Y-63858310D02*
X210556068Y-63804435D01*
X210556068Y-63804435D02*
X210448319Y-63804435D01*
X210448319Y-63804435D02*
X210367506Y-63831372D01*
X210367506Y-63831372D02*
X210232819Y-63912185D01*
X210232819Y-63912185D02*
X210152007Y-63992997D01*
X210152007Y-63992997D02*
X210071195Y-64127684D01*
X210071195Y-64127684D02*
X210044258Y-64208496D01*
X210044258Y-64208496D02*
X210044258Y-64316246D01*
X210044258Y-64316246D02*
X210098132Y-64423995D01*
X210098132Y-64423995D02*
X210232819Y-64558682D01*
X211606627Y-57234994D02*
X211687439Y-57261931D01*
X211687439Y-57261931D02*
X211768251Y-57342743D01*
X211768251Y-57342743D02*
X211822126Y-57450493D01*
X211822126Y-57450493D02*
X211822126Y-57558242D01*
X211822126Y-57558242D02*
X211795189Y-57639055D01*
X211795189Y-57639055D02*
X211714376Y-57773742D01*
X211714376Y-57773742D02*
X211633564Y-57854554D01*
X211633564Y-57854554D02*
X211498877Y-57935366D01*
X211498877Y-57935366D02*
X211418065Y-57962303D01*
X211418065Y-57962303D02*
X211310315Y-57962303D01*
X211310315Y-57962303D02*
X211202566Y-57908429D01*
X211202566Y-57908429D02*
X211148691Y-57854554D01*
X211148691Y-57854554D02*
X211094816Y-57746804D01*
X211094816Y-57746804D02*
X211094816Y-57692929D01*
X211094816Y-57692929D02*
X211283378Y-57504368D01*
X211283378Y-57504368D02*
X211391128Y-57612117D01*
X210798505Y-57504368D02*
X211364190Y-56938682D01*
X211364190Y-56938682D02*
X211148691Y-56723183D01*
X211148691Y-56723183D02*
X211067879Y-56696246D01*
X211067879Y-56696246D02*
X211014004Y-56696246D01*
X211014004Y-56696246D02*
X210933192Y-56723183D01*
X210933192Y-56723183D02*
X210852380Y-56803995D01*
X210852380Y-56803995D02*
X210825442Y-56884807D01*
X210825442Y-56884807D02*
X210825442Y-56938682D01*
X210825442Y-56938682D02*
X210852380Y-57019494D01*
X210852380Y-57019494D02*
X211067879Y-57234994D01*
X210852380Y-56426872D02*
X210502193Y-56076685D01*
X210502193Y-56076685D02*
X210475256Y-56480746D01*
X210475256Y-56480746D02*
X210394444Y-56399934D01*
X210394444Y-56399934D02*
X210313632Y-56372997D01*
X210313632Y-56372997D02*
X210259757Y-56372997D01*
X210259757Y-56372997D02*
X210178945Y-56399934D01*
X210178945Y-56399934D02*
X210044258Y-56534621D01*
X210044258Y-56534621D02*
X210017320Y-56615433D01*
X210017320Y-56615433D02*
X210017320Y-56669308D01*
X210017320Y-56669308D02*
X210044258Y-56750120D01*
X210044258Y-56750120D02*
X210205882Y-56911745D01*
X210205882Y-56911745D02*
X210286694Y-56938682D01*
X210286694Y-56938682D02*
X210340569Y-56938682D01*
X186022001Y-80374368D02*
X186102814Y-80401305D01*
X186102814Y-80401305D02*
X186183626Y-80482118D01*
X186183626Y-80482118D02*
X186237501Y-80589867D01*
X186237501Y-80589867D02*
X186237501Y-80697617D01*
X186237501Y-80697617D02*
X186210563Y-80778429D01*
X186210563Y-80778429D02*
X186129751Y-80913116D01*
X186129751Y-80913116D02*
X186048939Y-80993928D01*
X186048939Y-80993928D02*
X185914252Y-81074741D01*
X185914252Y-81074741D02*
X185833439Y-81101678D01*
X185833439Y-81101678D02*
X185725690Y-81101678D01*
X185725690Y-81101678D02*
X185617940Y-81047803D01*
X185617940Y-81047803D02*
X185564065Y-80993928D01*
X185564065Y-80993928D02*
X185510191Y-80886179D01*
X185510191Y-80886179D02*
X185510191Y-80832304D01*
X185510191Y-80832304D02*
X185698752Y-80643742D01*
X185698752Y-80643742D02*
X185806502Y-80751492D01*
X185213879Y-80643742D02*
X185779565Y-80078057D01*
X185779565Y-80078057D02*
X185564065Y-79862557D01*
X185564065Y-79862557D02*
X185483253Y-79835620D01*
X185483253Y-79835620D02*
X185429378Y-79835620D01*
X185429378Y-79835620D02*
X185348566Y-79862557D01*
X185348566Y-79862557D02*
X185267754Y-79943370D01*
X185267754Y-79943370D02*
X185240817Y-80024182D01*
X185240817Y-80024182D02*
X185240817Y-80078057D01*
X185240817Y-80078057D02*
X185267754Y-80158869D01*
X185267754Y-80158869D02*
X185483253Y-80374368D01*
X185186942Y-79593183D02*
X185186942Y-79539309D01*
X185186942Y-79539309D02*
X185160004Y-79458496D01*
X185160004Y-79458496D02*
X185025317Y-79323809D01*
X185025317Y-79323809D02*
X184944505Y-79296872D01*
X184944505Y-79296872D02*
X184890630Y-79296872D01*
X184890630Y-79296872D02*
X184809818Y-79323809D01*
X184809818Y-79323809D02*
X184755943Y-79377684D01*
X184755943Y-79377684D02*
X184702069Y-79485434D01*
X184702069Y-79485434D02*
X184702069Y-80131931D01*
X184702069Y-80131931D02*
X184351882Y-79781745D01*
X183813134Y-79242997D02*
X184136383Y-79566246D01*
X183974759Y-79404621D02*
X184540444Y-78838936D01*
X184540444Y-78838936D02*
X184513507Y-78973623D01*
X184513507Y-78973623D02*
X184513507Y-79081373D01*
X184513507Y-79081373D02*
X184540444Y-79162185D01*
X186166593Y-47611085D02*
X185412346Y-47988209D01*
X185412346Y-47988209D02*
X185789470Y-47233962D01*
X185142972Y-47126212D02*
X185035223Y-47072338D01*
X185035223Y-47072338D02*
X184981348Y-47072338D01*
X184981348Y-47072338D02*
X184900536Y-47099275D01*
X184900536Y-47099275D02*
X184819723Y-47180087D01*
X184819723Y-47180087D02*
X184792786Y-47260899D01*
X184792786Y-47260899D02*
X184792786Y-47314774D01*
X184792786Y-47314774D02*
X184819723Y-47395586D01*
X184819723Y-47395586D02*
X185035223Y-47611086D01*
X185035223Y-47611086D02*
X185600908Y-47045400D01*
X185600908Y-47045400D02*
X185412346Y-46856838D01*
X185412346Y-46856838D02*
X185331534Y-46829901D01*
X185331534Y-46829901D02*
X185277659Y-46829901D01*
X185277659Y-46829901D02*
X185196847Y-46856838D01*
X185196847Y-46856838D02*
X185142972Y-46910713D01*
X185142972Y-46910713D02*
X185116035Y-46991525D01*
X185116035Y-46991525D02*
X185116035Y-47045400D01*
X185116035Y-47045400D02*
X185142972Y-47126212D01*
X185142972Y-47126212D02*
X185331534Y-47314774D01*
X185035223Y-46479715D02*
X184577287Y-46937651D01*
X184577287Y-46937651D02*
X184496475Y-46964588D01*
X184496475Y-46964588D02*
X184442600Y-46964588D01*
X184442600Y-46964588D02*
X184361788Y-46937651D01*
X184361788Y-46937651D02*
X184254038Y-46829901D01*
X184254038Y-46829901D02*
X184227101Y-46749089D01*
X184227101Y-46749089D02*
X184227101Y-46695214D01*
X184227101Y-46695214D02*
X184254038Y-46614402D01*
X184254038Y-46614402D02*
X184711974Y-46156466D01*
X183930789Y-46452777D02*
X183823040Y-46398903D01*
X183823040Y-46398903D02*
X183688353Y-46264216D01*
X183688353Y-46264216D02*
X183661415Y-46183403D01*
X183661415Y-46183403D02*
X183661415Y-46129529D01*
X183661415Y-46129529D02*
X183688353Y-46048716D01*
X183688353Y-46048716D02*
X183742228Y-45994842D01*
X183742228Y-45994842D02*
X183823040Y-45967904D01*
X183823040Y-45967904D02*
X183876915Y-45967904D01*
X183876915Y-45967904D02*
X183957727Y-45994842D01*
X183957727Y-45994842D02*
X184092414Y-46075654D01*
X184092414Y-46075654D02*
X184173226Y-46102591D01*
X184173226Y-46102591D02*
X184227101Y-46102591D01*
X184227101Y-46102591D02*
X184307913Y-46075654D01*
X184307913Y-46075654D02*
X184361788Y-46021779D01*
X184361788Y-46021779D02*
X184388725Y-45940967D01*
X184388725Y-45940967D02*
X184388725Y-45887092D01*
X184388725Y-45887092D02*
X184361788Y-45806280D01*
X184361788Y-45806280D02*
X184227101Y-45671593D01*
X184227101Y-45671593D02*
X184119351Y-45617718D01*
X212130001Y-80364368D02*
X212210814Y-80391305D01*
X212210814Y-80391305D02*
X212291626Y-80472118D01*
X212291626Y-80472118D02*
X212345501Y-80579867D01*
X212345501Y-80579867D02*
X212345501Y-80687617D01*
X212345501Y-80687617D02*
X212318563Y-80768429D01*
X212318563Y-80768429D02*
X212237751Y-80903116D01*
X212237751Y-80903116D02*
X212156939Y-80983928D01*
X212156939Y-80983928D02*
X212022252Y-81064741D01*
X212022252Y-81064741D02*
X211941439Y-81091678D01*
X211941439Y-81091678D02*
X211833690Y-81091678D01*
X211833690Y-81091678D02*
X211725940Y-81037803D01*
X211725940Y-81037803D02*
X211672065Y-80983928D01*
X211672065Y-80983928D02*
X211618191Y-80876179D01*
X211618191Y-80876179D02*
X211618191Y-80822304D01*
X211618191Y-80822304D02*
X211806752Y-80633742D01*
X211806752Y-80633742D02*
X211914502Y-80741492D01*
X211321879Y-80633742D02*
X211887565Y-80068057D01*
X211887565Y-80068057D02*
X211672065Y-79852557D01*
X211672065Y-79852557D02*
X211591253Y-79825620D01*
X211591253Y-79825620D02*
X211537378Y-79825620D01*
X211537378Y-79825620D02*
X211456566Y-79852557D01*
X211456566Y-79852557D02*
X211375754Y-79933370D01*
X211375754Y-79933370D02*
X211348817Y-80014182D01*
X211348817Y-80014182D02*
X211348817Y-80068057D01*
X211348817Y-80068057D02*
X211375754Y-80148869D01*
X211375754Y-80148869D02*
X211591253Y-80364368D01*
X210459882Y-79771745D02*
X210783131Y-80094994D01*
X210621507Y-79933370D02*
X211187192Y-79367684D01*
X211187192Y-79367684D02*
X211160255Y-79502371D01*
X211160255Y-79502371D02*
X211160255Y-79610121D01*
X211160255Y-79610121D02*
X211187192Y-79690933D01*
X210675381Y-78855873D02*
X210621507Y-78801999D01*
X210621507Y-78801999D02*
X210540694Y-78775061D01*
X210540694Y-78775061D02*
X210486820Y-78775061D01*
X210486820Y-78775061D02*
X210406007Y-78801999D01*
X210406007Y-78801999D02*
X210271320Y-78882811D01*
X210271320Y-78882811D02*
X210136633Y-79017498D01*
X210136633Y-79017498D02*
X210055821Y-79152185D01*
X210055821Y-79152185D02*
X210028884Y-79232997D01*
X210028884Y-79232997D02*
X210028884Y-79286872D01*
X210028884Y-79286872D02*
X210055821Y-79367684D01*
X210055821Y-79367684D02*
X210109696Y-79421559D01*
X210109696Y-79421559D02*
X210190508Y-79448496D01*
X210190508Y-79448496D02*
X210244383Y-79448496D01*
X210244383Y-79448496D02*
X210325195Y-79421559D01*
X210325195Y-79421559D02*
X210459882Y-79340747D01*
X210459882Y-79340747D02*
X210594569Y-79206060D01*
X210594569Y-79206060D02*
X210675381Y-79071373D01*
X210675381Y-79071373D02*
X210702319Y-78990560D01*
X210702319Y-78990560D02*
X210702319Y-78936686D01*
X210702319Y-78936686D02*
X210675381Y-78855873D01*
X186197592Y-55042084D02*
X185847406Y-54691898D01*
X185847406Y-54691898D02*
X185820468Y-55095959D01*
X185820468Y-55095959D02*
X185739656Y-55015146D01*
X185739656Y-55015146D02*
X185658844Y-54988209D01*
X185658844Y-54988209D02*
X185604969Y-54988209D01*
X185604969Y-54988209D02*
X185524157Y-55015146D01*
X185524157Y-55015146D02*
X185389470Y-55149833D01*
X185389470Y-55149833D02*
X185362532Y-55230646D01*
X185362532Y-55230646D02*
X185362532Y-55284520D01*
X185362532Y-55284520D02*
X185389470Y-55365333D01*
X185389470Y-55365333D02*
X185551094Y-55526957D01*
X185551094Y-55526957D02*
X185631906Y-55553894D01*
X185631906Y-55553894D02*
X185685781Y-55553894D01*
X185685781Y-54530273D02*
X184931534Y-54907397D01*
X184931534Y-54907397D02*
X185308657Y-54153149D01*
X185173971Y-54018463D02*
X184823784Y-53668276D01*
X184823784Y-53668276D02*
X184796847Y-54072337D01*
X184796847Y-54072337D02*
X184716035Y-53991525D01*
X184716035Y-53991525D02*
X184635223Y-53964588D01*
X184635223Y-53964588D02*
X184581348Y-53964588D01*
X184581348Y-53964588D02*
X184500535Y-53991525D01*
X184500535Y-53991525D02*
X184365848Y-54126212D01*
X184365848Y-54126212D02*
X184338911Y-54207024D01*
X184338911Y-54207024D02*
X184338911Y-54260899D01*
X184338911Y-54260899D02*
X184365848Y-54341711D01*
X184365848Y-54341711D02*
X184527473Y-54503336D01*
X184527473Y-54503336D02*
X184608285Y-54530273D01*
X184608285Y-54530273D02*
X184662160Y-54530273D01*
X184096474Y-54180087D02*
X183665476Y-53749088D01*
X183880975Y-53264215D02*
X183692413Y-53075653D01*
X183315290Y-53291152D02*
X183584664Y-53560526D01*
X183584664Y-53560526D02*
X184150349Y-52994841D01*
X184150349Y-52994841D02*
X183880975Y-52725467D01*
X183072853Y-53048715D02*
X183638538Y-52483030D01*
X183638538Y-52483030D02*
X182749604Y-52725467D01*
X182749604Y-52725467D02*
X183315289Y-52159781D01*
X212276001Y-82904368D02*
X212356814Y-82931305D01*
X212356814Y-82931305D02*
X212437626Y-83012118D01*
X212437626Y-83012118D02*
X212491501Y-83119867D01*
X212491501Y-83119867D02*
X212491501Y-83227617D01*
X212491501Y-83227617D02*
X212464563Y-83308429D01*
X212464563Y-83308429D02*
X212383751Y-83443116D01*
X212383751Y-83443116D02*
X212302939Y-83523928D01*
X212302939Y-83523928D02*
X212168252Y-83604741D01*
X212168252Y-83604741D02*
X212087439Y-83631678D01*
X212087439Y-83631678D02*
X211979690Y-83631678D01*
X211979690Y-83631678D02*
X211871940Y-83577803D01*
X211871940Y-83577803D02*
X211818065Y-83523928D01*
X211818065Y-83523928D02*
X211764191Y-83416179D01*
X211764191Y-83416179D02*
X211764191Y-83362304D01*
X211764191Y-83362304D02*
X211952752Y-83173742D01*
X211952752Y-83173742D02*
X212060502Y-83281492D01*
X211467879Y-83173742D02*
X212033565Y-82608057D01*
X212033565Y-82608057D02*
X211818065Y-82392557D01*
X211818065Y-82392557D02*
X211737253Y-82365620D01*
X211737253Y-82365620D02*
X211683378Y-82365620D01*
X211683378Y-82365620D02*
X211602566Y-82392557D01*
X211602566Y-82392557D02*
X211521754Y-82473370D01*
X211521754Y-82473370D02*
X211494817Y-82554182D01*
X211494817Y-82554182D02*
X211494817Y-82608057D01*
X211494817Y-82608057D02*
X211521754Y-82688869D01*
X211521754Y-82688869D02*
X211737253Y-82904368D01*
X210605882Y-82311745D02*
X210929131Y-82634994D01*
X210767507Y-82473370D02*
X211333192Y-81907684D01*
X211333192Y-81907684D02*
X211306255Y-82042371D01*
X211306255Y-82042371D02*
X211306255Y-82150121D01*
X211306255Y-82150121D02*
X211333192Y-82230933D01*
X210067134Y-81772997D02*
X210390383Y-82096246D01*
X210228759Y-81934621D02*
X210794444Y-81368936D01*
X210794444Y-81368936D02*
X210767507Y-81503623D01*
X210767507Y-81503623D02*
X210767507Y-81611373D01*
X210767507Y-81611373D02*
X210794444Y-81692185D01*
X186022001Y-87984368D02*
X186102814Y-88011305D01*
X186102814Y-88011305D02*
X186183626Y-88092118D01*
X186183626Y-88092118D02*
X186237501Y-88199867D01*
X186237501Y-88199867D02*
X186237501Y-88307617D01*
X186237501Y-88307617D02*
X186210563Y-88388429D01*
X186210563Y-88388429D02*
X186129751Y-88523116D01*
X186129751Y-88523116D02*
X186048939Y-88603928D01*
X186048939Y-88603928D02*
X185914252Y-88684741D01*
X185914252Y-88684741D02*
X185833439Y-88711678D01*
X185833439Y-88711678D02*
X185725690Y-88711678D01*
X185725690Y-88711678D02*
X185617940Y-88657803D01*
X185617940Y-88657803D02*
X185564065Y-88603928D01*
X185564065Y-88603928D02*
X185510191Y-88496179D01*
X185510191Y-88496179D02*
X185510191Y-88442304D01*
X185510191Y-88442304D02*
X185698752Y-88253742D01*
X185698752Y-88253742D02*
X185806502Y-88361492D01*
X185213879Y-88253742D02*
X185779565Y-87688057D01*
X185779565Y-87688057D02*
X185564065Y-87472557D01*
X185564065Y-87472557D02*
X185483253Y-87445620D01*
X185483253Y-87445620D02*
X185429378Y-87445620D01*
X185429378Y-87445620D02*
X185348566Y-87472557D01*
X185348566Y-87472557D02*
X185267754Y-87553370D01*
X185267754Y-87553370D02*
X185240817Y-87634182D01*
X185240817Y-87634182D02*
X185240817Y-87688057D01*
X185240817Y-87688057D02*
X185267754Y-87768869D01*
X185267754Y-87768869D02*
X185483253Y-87984368D01*
X184351882Y-87391745D02*
X184675131Y-87714994D01*
X184513507Y-87553370D02*
X185079192Y-86987684D01*
X185079192Y-86987684D02*
X185052255Y-87122371D01*
X185052255Y-87122371D02*
X185052255Y-87230121D01*
X185052255Y-87230121D02*
X185079192Y-87310933D01*
X184351882Y-86745247D02*
X184432694Y-86772185D01*
X184432694Y-86772185D02*
X184486569Y-86772185D01*
X184486569Y-86772185D02*
X184567381Y-86745247D01*
X184567381Y-86745247D02*
X184594319Y-86718310D01*
X184594319Y-86718310D02*
X184621256Y-86637498D01*
X184621256Y-86637498D02*
X184621256Y-86583623D01*
X184621256Y-86583623D02*
X184594319Y-86502811D01*
X184594319Y-86502811D02*
X184486569Y-86395061D01*
X184486569Y-86395061D02*
X184405757Y-86368124D01*
X184405757Y-86368124D02*
X184351882Y-86368124D01*
X184351882Y-86368124D02*
X184271070Y-86395061D01*
X184271070Y-86395061D02*
X184244133Y-86421999D01*
X184244133Y-86421999D02*
X184217195Y-86502811D01*
X184217195Y-86502811D02*
X184217195Y-86556686D01*
X184217195Y-86556686D02*
X184244133Y-86637498D01*
X184244133Y-86637498D02*
X184351882Y-86745247D01*
X184351882Y-86745247D02*
X184378820Y-86826060D01*
X184378820Y-86826060D02*
X184378820Y-86879934D01*
X184378820Y-86879934D02*
X184351882Y-86960747D01*
X184351882Y-86960747D02*
X184244133Y-87068496D01*
X184244133Y-87068496D02*
X184163320Y-87095434D01*
X184163320Y-87095434D02*
X184109446Y-87095434D01*
X184109446Y-87095434D02*
X184028633Y-87068496D01*
X184028633Y-87068496D02*
X183920884Y-86960747D01*
X183920884Y-86960747D02*
X183893946Y-86879934D01*
X183893946Y-86879934D02*
X183893946Y-86826060D01*
X183893946Y-86826060D02*
X183920884Y-86745247D01*
X183920884Y-86745247D02*
X184028633Y-86637498D01*
X184028633Y-86637498D02*
X184109446Y-86610560D01*
X184109446Y-86610560D02*
X184163320Y-86610560D01*
X184163320Y-86610560D02*
X184244133Y-86637498D01*
X211606627Y-62314994D02*
X211687439Y-62341931D01*
X211687439Y-62341931D02*
X211768251Y-62422743D01*
X211768251Y-62422743D02*
X211822126Y-62530493D01*
X211822126Y-62530493D02*
X211822126Y-62638242D01*
X211822126Y-62638242D02*
X211795189Y-62719055D01*
X211795189Y-62719055D02*
X211714376Y-62853742D01*
X211714376Y-62853742D02*
X211633564Y-62934554D01*
X211633564Y-62934554D02*
X211498877Y-63015366D01*
X211498877Y-63015366D02*
X211418065Y-63042303D01*
X211418065Y-63042303D02*
X211310315Y-63042303D01*
X211310315Y-63042303D02*
X211202566Y-62988429D01*
X211202566Y-62988429D02*
X211148691Y-62934554D01*
X211148691Y-62934554D02*
X211094816Y-62826804D01*
X211094816Y-62826804D02*
X211094816Y-62772929D01*
X211094816Y-62772929D02*
X211283378Y-62584368D01*
X211283378Y-62584368D02*
X211391128Y-62692117D01*
X210798505Y-62584368D02*
X211364190Y-62018682D01*
X211364190Y-62018682D02*
X211148691Y-61803183D01*
X211148691Y-61803183D02*
X211067879Y-61776246D01*
X211067879Y-61776246D02*
X211014004Y-61776246D01*
X211014004Y-61776246D02*
X210933192Y-61803183D01*
X210933192Y-61803183D02*
X210852380Y-61883995D01*
X210852380Y-61883995D02*
X210825442Y-61964807D01*
X210825442Y-61964807D02*
X210825442Y-62018682D01*
X210825442Y-62018682D02*
X210852380Y-62099494D01*
X210852380Y-62099494D02*
X211067879Y-62314994D01*
X210529131Y-61183623D02*
X210798505Y-61452997D01*
X210798505Y-61452997D02*
X210556068Y-61749308D01*
X210556068Y-61749308D02*
X210556068Y-61695433D01*
X210556068Y-61695433D02*
X210529131Y-61614621D01*
X210529131Y-61614621D02*
X210394444Y-61479934D01*
X210394444Y-61479934D02*
X210313632Y-61452997D01*
X210313632Y-61452997D02*
X210259757Y-61452997D01*
X210259757Y-61452997D02*
X210178945Y-61479934D01*
X210178945Y-61479934D02*
X210044258Y-61614621D01*
X210044258Y-61614621D02*
X210017320Y-61695433D01*
X210017320Y-61695433D02*
X210017320Y-61749308D01*
X210017320Y-61749308D02*
X210044258Y-61830120D01*
X210044258Y-61830120D02*
X210178945Y-61964807D01*
X210178945Y-61964807D02*
X210259757Y-61991745D01*
X210259757Y-61991745D02*
X210313632Y-61991745D01*
X211706627Y-54694994D02*
X211787439Y-54721931D01*
X211787439Y-54721931D02*
X211868251Y-54802743D01*
X211868251Y-54802743D02*
X211922126Y-54910493D01*
X211922126Y-54910493D02*
X211922126Y-55018242D01*
X211922126Y-55018242D02*
X211895189Y-55099055D01*
X211895189Y-55099055D02*
X211814376Y-55233742D01*
X211814376Y-55233742D02*
X211733564Y-55314554D01*
X211733564Y-55314554D02*
X211598877Y-55395366D01*
X211598877Y-55395366D02*
X211518065Y-55422303D01*
X211518065Y-55422303D02*
X211410315Y-55422303D01*
X211410315Y-55422303D02*
X211302566Y-55368429D01*
X211302566Y-55368429D02*
X211248691Y-55314554D01*
X211248691Y-55314554D02*
X211194816Y-55206804D01*
X211194816Y-55206804D02*
X211194816Y-55152929D01*
X211194816Y-55152929D02*
X211383378Y-54964368D01*
X211383378Y-54964368D02*
X211491128Y-55072117D01*
X210898505Y-54964368D02*
X211464190Y-54398682D01*
X211464190Y-54398682D02*
X211248691Y-54183183D01*
X211248691Y-54183183D02*
X211167879Y-54156246D01*
X211167879Y-54156246D02*
X211114004Y-54156246D01*
X211114004Y-54156246D02*
X211033192Y-54183183D01*
X211033192Y-54183183D02*
X210952380Y-54263995D01*
X210952380Y-54263995D02*
X210925442Y-54344807D01*
X210925442Y-54344807D02*
X210925442Y-54398682D01*
X210925442Y-54398682D02*
X210952380Y-54479494D01*
X210952380Y-54479494D02*
X211167879Y-54694994D01*
X210871567Y-53913809D02*
X210871567Y-53859934D01*
X210871567Y-53859934D02*
X210844630Y-53779122D01*
X210844630Y-53779122D02*
X210709943Y-53644435D01*
X210709943Y-53644435D02*
X210629131Y-53617498D01*
X210629131Y-53617498D02*
X210575256Y-53617498D01*
X210575256Y-53617498D02*
X210494444Y-53644435D01*
X210494444Y-53644435D02*
X210440569Y-53698310D01*
X210440569Y-53698310D02*
X210386694Y-53806059D01*
X210386694Y-53806059D02*
X210386694Y-54452557D01*
X210386694Y-54452557D02*
X210036508Y-54102371D01*
X186022001Y-85444368D02*
X186102814Y-85471305D01*
X186102814Y-85471305D02*
X186183626Y-85552118D01*
X186183626Y-85552118D02*
X186237501Y-85659867D01*
X186237501Y-85659867D02*
X186237501Y-85767617D01*
X186237501Y-85767617D02*
X186210563Y-85848429D01*
X186210563Y-85848429D02*
X186129751Y-85983116D01*
X186129751Y-85983116D02*
X186048939Y-86063928D01*
X186048939Y-86063928D02*
X185914252Y-86144741D01*
X185914252Y-86144741D02*
X185833439Y-86171678D01*
X185833439Y-86171678D02*
X185725690Y-86171678D01*
X185725690Y-86171678D02*
X185617940Y-86117803D01*
X185617940Y-86117803D02*
X185564065Y-86063928D01*
X185564065Y-86063928D02*
X185510191Y-85956179D01*
X185510191Y-85956179D02*
X185510191Y-85902304D01*
X185510191Y-85902304D02*
X185698752Y-85713742D01*
X185698752Y-85713742D02*
X185806502Y-85821492D01*
X185213879Y-85713742D02*
X185779565Y-85148057D01*
X185779565Y-85148057D02*
X185564065Y-84932557D01*
X185564065Y-84932557D02*
X185483253Y-84905620D01*
X185483253Y-84905620D02*
X185429378Y-84905620D01*
X185429378Y-84905620D02*
X185348566Y-84932557D01*
X185348566Y-84932557D02*
X185267754Y-85013370D01*
X185267754Y-85013370D02*
X185240817Y-85094182D01*
X185240817Y-85094182D02*
X185240817Y-85148057D01*
X185240817Y-85148057D02*
X185267754Y-85228869D01*
X185267754Y-85228869D02*
X185483253Y-85444368D01*
X184351882Y-84851745D02*
X184675131Y-85174994D01*
X184513507Y-85013370D02*
X185079192Y-84447684D01*
X185079192Y-84447684D02*
X185052255Y-84582371D01*
X185052255Y-84582371D02*
X185052255Y-84690121D01*
X185052255Y-84690121D02*
X185079192Y-84770933D01*
X184082508Y-84582371D02*
X183974759Y-84474621D01*
X183974759Y-84474621D02*
X183947821Y-84393809D01*
X183947821Y-84393809D02*
X183947821Y-84339934D01*
X183947821Y-84339934D02*
X183974759Y-84205247D01*
X183974759Y-84205247D02*
X184055571Y-84070560D01*
X184055571Y-84070560D02*
X184271070Y-83855061D01*
X184271070Y-83855061D02*
X184351882Y-83828124D01*
X184351882Y-83828124D02*
X184405757Y-83828124D01*
X184405757Y-83828124D02*
X184486569Y-83855061D01*
X184486569Y-83855061D02*
X184594319Y-83962811D01*
X184594319Y-83962811D02*
X184621256Y-84043623D01*
X184621256Y-84043623D02*
X184621256Y-84097498D01*
X184621256Y-84097498D02*
X184594319Y-84178310D01*
X184594319Y-84178310D02*
X184459632Y-84312997D01*
X184459632Y-84312997D02*
X184378820Y-84339934D01*
X184378820Y-84339934D02*
X184324945Y-84339934D01*
X184324945Y-84339934D02*
X184244133Y-84312997D01*
X184244133Y-84312997D02*
X184136383Y-84205247D01*
X184136383Y-84205247D02*
X184109446Y-84124435D01*
X184109446Y-84124435D02*
X184109446Y-84070560D01*
X184109446Y-84070560D02*
X184136383Y-83989748D01*
X186022001Y-62330368D02*
X186102814Y-62357305D01*
X186102814Y-62357305D02*
X186183626Y-62438118D01*
X186183626Y-62438118D02*
X186237501Y-62545867D01*
X186237501Y-62545867D02*
X186237501Y-62653617D01*
X186237501Y-62653617D02*
X186210563Y-62734429D01*
X186210563Y-62734429D02*
X186129751Y-62869116D01*
X186129751Y-62869116D02*
X186048939Y-62949928D01*
X186048939Y-62949928D02*
X185914252Y-63030741D01*
X185914252Y-63030741D02*
X185833439Y-63057678D01*
X185833439Y-63057678D02*
X185725690Y-63057678D01*
X185725690Y-63057678D02*
X185617940Y-63003803D01*
X185617940Y-63003803D02*
X185564065Y-62949928D01*
X185564065Y-62949928D02*
X185510191Y-62842179D01*
X185510191Y-62842179D02*
X185510191Y-62788304D01*
X185510191Y-62788304D02*
X185698752Y-62599742D01*
X185698752Y-62599742D02*
X185806502Y-62707492D01*
X185213879Y-62599742D02*
X185779565Y-62034057D01*
X185779565Y-62034057D02*
X185564065Y-61818557D01*
X185564065Y-61818557D02*
X185483253Y-61791620D01*
X185483253Y-61791620D02*
X185429378Y-61791620D01*
X185429378Y-61791620D02*
X185348566Y-61818557D01*
X185348566Y-61818557D02*
X185267754Y-61899370D01*
X185267754Y-61899370D02*
X185240817Y-61980182D01*
X185240817Y-61980182D02*
X185240817Y-62034057D01*
X185240817Y-62034057D02*
X185267754Y-62114869D01*
X185267754Y-62114869D02*
X185483253Y-62330368D01*
X185186942Y-61549183D02*
X185186942Y-61495309D01*
X185186942Y-61495309D02*
X185160004Y-61414496D01*
X185160004Y-61414496D02*
X185025317Y-61279809D01*
X185025317Y-61279809D02*
X184944505Y-61252872D01*
X184944505Y-61252872D02*
X184890630Y-61252872D01*
X184890630Y-61252872D02*
X184809818Y-61279809D01*
X184809818Y-61279809D02*
X184755943Y-61333684D01*
X184755943Y-61333684D02*
X184702069Y-61441434D01*
X184702069Y-61441434D02*
X184702069Y-62087931D01*
X184702069Y-62087931D02*
X184351882Y-61737745D01*
X184351882Y-61091247D02*
X184432694Y-61118185D01*
X184432694Y-61118185D02*
X184486569Y-61118185D01*
X184486569Y-61118185D02*
X184567381Y-61091247D01*
X184567381Y-61091247D02*
X184594319Y-61064310D01*
X184594319Y-61064310D02*
X184621256Y-60983498D01*
X184621256Y-60983498D02*
X184621256Y-60929623D01*
X184621256Y-60929623D02*
X184594319Y-60848811D01*
X184594319Y-60848811D02*
X184486569Y-60741061D01*
X184486569Y-60741061D02*
X184405757Y-60714124D01*
X184405757Y-60714124D02*
X184351882Y-60714124D01*
X184351882Y-60714124D02*
X184271070Y-60741061D01*
X184271070Y-60741061D02*
X184244133Y-60767999D01*
X184244133Y-60767999D02*
X184217195Y-60848811D01*
X184217195Y-60848811D02*
X184217195Y-60902686D01*
X184217195Y-60902686D02*
X184244133Y-60983498D01*
X184244133Y-60983498D02*
X184351882Y-61091247D01*
X184351882Y-61091247D02*
X184378820Y-61172060D01*
X184378820Y-61172060D02*
X184378820Y-61225934D01*
X184378820Y-61225934D02*
X184351882Y-61306747D01*
X184351882Y-61306747D02*
X184244133Y-61414496D01*
X184244133Y-61414496D02*
X184163320Y-61441434D01*
X184163320Y-61441434D02*
X184109446Y-61441434D01*
X184109446Y-61441434D02*
X184028633Y-61414496D01*
X184028633Y-61414496D02*
X183920884Y-61306747D01*
X183920884Y-61306747D02*
X183893946Y-61225934D01*
X183893946Y-61225934D02*
X183893946Y-61172060D01*
X183893946Y-61172060D02*
X183920884Y-61091247D01*
X183920884Y-61091247D02*
X184028633Y-60983498D01*
X184028633Y-60983498D02*
X184109446Y-60956560D01*
X184109446Y-60956560D02*
X184163320Y-60956560D01*
X184163320Y-60956560D02*
X184244133Y-60983498D01*
X185968126Y-65824740D02*
X185698752Y-65555366D01*
X185860376Y-66040239D02*
X186237500Y-65285992D01*
X186237500Y-65285992D02*
X185483253Y-65663115D01*
X185537128Y-64639494D02*
X185617940Y-64666432D01*
X185617940Y-64666432D02*
X185698752Y-64747244D01*
X185698752Y-64747244D02*
X185752627Y-64854994D01*
X185752627Y-64854994D02*
X185752627Y-64962743D01*
X185752627Y-64962743D02*
X185725689Y-65043555D01*
X185725689Y-65043555D02*
X185644877Y-65178242D01*
X185644877Y-65178242D02*
X185564065Y-65259055D01*
X185564065Y-65259055D02*
X185429378Y-65339867D01*
X185429378Y-65339867D02*
X185348566Y-65366804D01*
X185348566Y-65366804D02*
X185240816Y-65366804D01*
X185240816Y-65366804D02*
X185133067Y-65312929D01*
X185133067Y-65312929D02*
X185079192Y-65259055D01*
X185079192Y-65259055D02*
X185025317Y-65151305D01*
X185025317Y-65151305D02*
X185025317Y-65097430D01*
X185025317Y-65097430D02*
X185213879Y-64908868D01*
X185213879Y-64908868D02*
X185321628Y-65016618D01*
X184729006Y-64908868D02*
X185294691Y-64343183D01*
X185294691Y-64343183D02*
X184405757Y-64585620D01*
X184405757Y-64585620D02*
X184971442Y-64019934D01*
X184136383Y-64316246D02*
X184702068Y-63750560D01*
X184702068Y-63750560D02*
X184567381Y-63615873D01*
X184567381Y-63615873D02*
X184459632Y-63561998D01*
X184459632Y-63561998D02*
X184351882Y-63561998D01*
X184351882Y-63561998D02*
X184271070Y-63588936D01*
X184271070Y-63588936D02*
X184136383Y-63669748D01*
X184136383Y-63669748D02*
X184055571Y-63750560D01*
X184055571Y-63750560D02*
X183974758Y-63885247D01*
X183974758Y-63885247D02*
X183947821Y-63966060D01*
X183947821Y-63966060D02*
X183947821Y-64073809D01*
X183947821Y-64073809D02*
X184001696Y-64181559D01*
X184001696Y-64181559D02*
X184136383Y-64316246D01*
X186022001Y-95604368D02*
X186102814Y-95631305D01*
X186102814Y-95631305D02*
X186183626Y-95712118D01*
X186183626Y-95712118D02*
X186237501Y-95819867D01*
X186237501Y-95819867D02*
X186237501Y-95927617D01*
X186237501Y-95927617D02*
X186210563Y-96008429D01*
X186210563Y-96008429D02*
X186129751Y-96143116D01*
X186129751Y-96143116D02*
X186048939Y-96223928D01*
X186048939Y-96223928D02*
X185914252Y-96304741D01*
X185914252Y-96304741D02*
X185833439Y-96331678D01*
X185833439Y-96331678D02*
X185725690Y-96331678D01*
X185725690Y-96331678D02*
X185617940Y-96277803D01*
X185617940Y-96277803D02*
X185564065Y-96223928D01*
X185564065Y-96223928D02*
X185510191Y-96116179D01*
X185510191Y-96116179D02*
X185510191Y-96062304D01*
X185510191Y-96062304D02*
X185698752Y-95873742D01*
X185698752Y-95873742D02*
X185806502Y-95981492D01*
X185213879Y-95873742D02*
X185779565Y-95308057D01*
X185779565Y-95308057D02*
X185564065Y-95092557D01*
X185564065Y-95092557D02*
X185483253Y-95065620D01*
X185483253Y-95065620D02*
X185429378Y-95065620D01*
X185429378Y-95065620D02*
X185348566Y-95092557D01*
X185348566Y-95092557D02*
X185267754Y-95173370D01*
X185267754Y-95173370D02*
X185240817Y-95254182D01*
X185240817Y-95254182D02*
X185240817Y-95308057D01*
X185240817Y-95308057D02*
X185267754Y-95388869D01*
X185267754Y-95388869D02*
X185483253Y-95604368D01*
X184351882Y-95011745D02*
X184675131Y-95334994D01*
X184513507Y-95173370D02*
X185079192Y-94607684D01*
X185079192Y-94607684D02*
X185052255Y-94742371D01*
X185052255Y-94742371D02*
X185052255Y-94850121D01*
X185052255Y-94850121D02*
X185079192Y-94930933D01*
X184432694Y-93961186D02*
X184540444Y-94068936D01*
X184540444Y-94068936D02*
X184567381Y-94149748D01*
X184567381Y-94149748D02*
X184567381Y-94203623D01*
X184567381Y-94203623D02*
X184540444Y-94338310D01*
X184540444Y-94338310D02*
X184459632Y-94472997D01*
X184459632Y-94472997D02*
X184244133Y-94688496D01*
X184244133Y-94688496D02*
X184163320Y-94715434D01*
X184163320Y-94715434D02*
X184109446Y-94715434D01*
X184109446Y-94715434D02*
X184028633Y-94688496D01*
X184028633Y-94688496D02*
X183920884Y-94580747D01*
X183920884Y-94580747D02*
X183893946Y-94499934D01*
X183893946Y-94499934D02*
X183893946Y-94446060D01*
X183893946Y-94446060D02*
X183920884Y-94365247D01*
X183920884Y-94365247D02*
X184055571Y-94230560D01*
X184055571Y-94230560D02*
X184136383Y-94203623D01*
X184136383Y-94203623D02*
X184190258Y-94203623D01*
X184190258Y-94203623D02*
X184271070Y-94230560D01*
X184271070Y-94230560D02*
X184378820Y-94338310D01*
X184378820Y-94338310D02*
X184405757Y-94419122D01*
X184405757Y-94419122D02*
X184405757Y-94472997D01*
X184405757Y-94472997D02*
X184378820Y-94553809D01*
X211606627Y-72474994D02*
X211687439Y-72501931D01*
X211687439Y-72501931D02*
X211768251Y-72582743D01*
X211768251Y-72582743D02*
X211822126Y-72690493D01*
X211822126Y-72690493D02*
X211822126Y-72798242D01*
X211822126Y-72798242D02*
X211795189Y-72879055D01*
X211795189Y-72879055D02*
X211714376Y-73013742D01*
X211714376Y-73013742D02*
X211633564Y-73094554D01*
X211633564Y-73094554D02*
X211498877Y-73175366D01*
X211498877Y-73175366D02*
X211418065Y-73202303D01*
X211418065Y-73202303D02*
X211310315Y-73202303D01*
X211310315Y-73202303D02*
X211202566Y-73148429D01*
X211202566Y-73148429D02*
X211148691Y-73094554D01*
X211148691Y-73094554D02*
X211094816Y-72986804D01*
X211094816Y-72986804D02*
X211094816Y-72932929D01*
X211094816Y-72932929D02*
X211283378Y-72744368D01*
X211283378Y-72744368D02*
X211391128Y-72852117D01*
X210798505Y-72744368D02*
X211364190Y-72178682D01*
X211364190Y-72178682D02*
X211148691Y-71963183D01*
X211148691Y-71963183D02*
X211067879Y-71936246D01*
X211067879Y-71936246D02*
X211014004Y-71936246D01*
X211014004Y-71936246D02*
X210933192Y-71963183D01*
X210933192Y-71963183D02*
X210852380Y-72043995D01*
X210852380Y-72043995D02*
X210825442Y-72124807D01*
X210825442Y-72124807D02*
X210825442Y-72178682D01*
X210825442Y-72178682D02*
X210852380Y-72259494D01*
X210852380Y-72259494D02*
X211067879Y-72474994D01*
X210475256Y-71774621D02*
X210556068Y-71801559D01*
X210556068Y-71801559D02*
X210609943Y-71801559D01*
X210609943Y-71801559D02*
X210690755Y-71774621D01*
X210690755Y-71774621D02*
X210717693Y-71747684D01*
X210717693Y-71747684D02*
X210744630Y-71666872D01*
X210744630Y-71666872D02*
X210744630Y-71612997D01*
X210744630Y-71612997D02*
X210717693Y-71532185D01*
X210717693Y-71532185D02*
X210609943Y-71424435D01*
X210609943Y-71424435D02*
X210529131Y-71397498D01*
X210529131Y-71397498D02*
X210475256Y-71397498D01*
X210475256Y-71397498D02*
X210394444Y-71424435D01*
X210394444Y-71424435D02*
X210367506Y-71451372D01*
X210367506Y-71451372D02*
X210340569Y-71532185D01*
X210340569Y-71532185D02*
X210340569Y-71586059D01*
X210340569Y-71586059D02*
X210367506Y-71666872D01*
X210367506Y-71666872D02*
X210475256Y-71774621D01*
X210475256Y-71774621D02*
X210502193Y-71855433D01*
X210502193Y-71855433D02*
X210502193Y-71909308D01*
X210502193Y-71909308D02*
X210475256Y-71990120D01*
X210475256Y-71990120D02*
X210367506Y-72097870D01*
X210367506Y-72097870D02*
X210286694Y-72124807D01*
X210286694Y-72124807D02*
X210232819Y-72124807D01*
X210232819Y-72124807D02*
X210152007Y-72097870D01*
X210152007Y-72097870D02*
X210044258Y-71990120D01*
X210044258Y-71990120D02*
X210017320Y-71909308D01*
X210017320Y-71909308D02*
X210017320Y-71855433D01*
X210017320Y-71855433D02*
X210044258Y-71774621D01*
X210044258Y-71774621D02*
X210152007Y-71666872D01*
X210152007Y-71666872D02*
X210232819Y-71639934D01*
X210232819Y-71639934D02*
X210286694Y-71639934D01*
X210286694Y-71639934D02*
X210367506Y-71666872D01*
X186022001Y-75284368D02*
X186102814Y-75311305D01*
X186102814Y-75311305D02*
X186183626Y-75392118D01*
X186183626Y-75392118D02*
X186237501Y-75499867D01*
X186237501Y-75499867D02*
X186237501Y-75607617D01*
X186237501Y-75607617D02*
X186210563Y-75688429D01*
X186210563Y-75688429D02*
X186129751Y-75823116D01*
X186129751Y-75823116D02*
X186048939Y-75903928D01*
X186048939Y-75903928D02*
X185914252Y-75984741D01*
X185914252Y-75984741D02*
X185833439Y-76011678D01*
X185833439Y-76011678D02*
X185725690Y-76011678D01*
X185725690Y-76011678D02*
X185617940Y-75957803D01*
X185617940Y-75957803D02*
X185564065Y-75903928D01*
X185564065Y-75903928D02*
X185510191Y-75796179D01*
X185510191Y-75796179D02*
X185510191Y-75742304D01*
X185510191Y-75742304D02*
X185698752Y-75553742D01*
X185698752Y-75553742D02*
X185806502Y-75661492D01*
X185213879Y-75553742D02*
X185779565Y-74988057D01*
X185779565Y-74988057D02*
X185564065Y-74772557D01*
X185564065Y-74772557D02*
X185483253Y-74745620D01*
X185483253Y-74745620D02*
X185429378Y-74745620D01*
X185429378Y-74745620D02*
X185348566Y-74772557D01*
X185348566Y-74772557D02*
X185267754Y-74853370D01*
X185267754Y-74853370D02*
X185240817Y-74934182D01*
X185240817Y-74934182D02*
X185240817Y-74988057D01*
X185240817Y-74988057D02*
X185267754Y-75068869D01*
X185267754Y-75068869D02*
X185483253Y-75284368D01*
X185186942Y-74503183D02*
X185186942Y-74449309D01*
X185186942Y-74449309D02*
X185160004Y-74368496D01*
X185160004Y-74368496D02*
X185025317Y-74233809D01*
X185025317Y-74233809D02*
X184944505Y-74206872D01*
X184944505Y-74206872D02*
X184890630Y-74206872D01*
X184890630Y-74206872D02*
X184809818Y-74233809D01*
X184809818Y-74233809D02*
X184755943Y-74287684D01*
X184755943Y-74287684D02*
X184702069Y-74395434D01*
X184702069Y-74395434D02*
X184702069Y-75041931D01*
X184702069Y-75041931D02*
X184351882Y-74691745D01*
X184648194Y-73964435D02*
X184648194Y-73910560D01*
X184648194Y-73910560D02*
X184621256Y-73829748D01*
X184621256Y-73829748D02*
X184486569Y-73695061D01*
X184486569Y-73695061D02*
X184405757Y-73668124D01*
X184405757Y-73668124D02*
X184351882Y-73668124D01*
X184351882Y-73668124D02*
X184271070Y-73695061D01*
X184271070Y-73695061D02*
X184217195Y-73748936D01*
X184217195Y-73748936D02*
X184163320Y-73856686D01*
X184163320Y-73856686D02*
X184163320Y-74503183D01*
X184163320Y-74503183D02*
X183813134Y-74152997D01*
X212130001Y-95604368D02*
X212210814Y-95631305D01*
X212210814Y-95631305D02*
X212291626Y-95712118D01*
X212291626Y-95712118D02*
X212345501Y-95819867D01*
X212345501Y-95819867D02*
X212345501Y-95927617D01*
X212345501Y-95927617D02*
X212318563Y-96008429D01*
X212318563Y-96008429D02*
X212237751Y-96143116D01*
X212237751Y-96143116D02*
X212156939Y-96223928D01*
X212156939Y-96223928D02*
X212022252Y-96304741D01*
X212022252Y-96304741D02*
X211941439Y-96331678D01*
X211941439Y-96331678D02*
X211833690Y-96331678D01*
X211833690Y-96331678D02*
X211725940Y-96277803D01*
X211725940Y-96277803D02*
X211672065Y-96223928D01*
X211672065Y-96223928D02*
X211618191Y-96116179D01*
X211618191Y-96116179D02*
X211618191Y-96062304D01*
X211618191Y-96062304D02*
X211806752Y-95873742D01*
X211806752Y-95873742D02*
X211914502Y-95981492D01*
X211321879Y-95873742D02*
X211887565Y-95308057D01*
X211887565Y-95308057D02*
X211672065Y-95092557D01*
X211672065Y-95092557D02*
X211591253Y-95065620D01*
X211591253Y-95065620D02*
X211537378Y-95065620D01*
X211537378Y-95065620D02*
X211456566Y-95092557D01*
X211456566Y-95092557D02*
X211375754Y-95173370D01*
X211375754Y-95173370D02*
X211348817Y-95254182D01*
X211348817Y-95254182D02*
X211348817Y-95308057D01*
X211348817Y-95308057D02*
X211375754Y-95388869D01*
X211375754Y-95388869D02*
X211591253Y-95604368D01*
X210459882Y-95011745D02*
X210783131Y-95334994D01*
X210621507Y-95173370D02*
X211187192Y-94607684D01*
X211187192Y-94607684D02*
X211160255Y-94742371D01*
X211160255Y-94742371D02*
X211160255Y-94850121D01*
X211160255Y-94850121D02*
X211187192Y-94930933D01*
X210513757Y-93934249D02*
X210783131Y-94203623D01*
X210783131Y-94203623D02*
X210540694Y-94499934D01*
X210540694Y-94499934D02*
X210540694Y-94446060D01*
X210540694Y-94446060D02*
X210513757Y-94365247D01*
X210513757Y-94365247D02*
X210379070Y-94230560D01*
X210379070Y-94230560D02*
X210298258Y-94203623D01*
X210298258Y-94203623D02*
X210244383Y-94203623D01*
X210244383Y-94203623D02*
X210163571Y-94230560D01*
X210163571Y-94230560D02*
X210028884Y-94365247D01*
X210028884Y-94365247D02*
X210001946Y-94446060D01*
X210001946Y-94446060D02*
X210001946Y-94499934D01*
X210001946Y-94499934D02*
X210028884Y-94580747D01*
X210028884Y-94580747D02*
X210163571Y-94715434D01*
X210163571Y-94715434D02*
X210244383Y-94742371D01*
X210244383Y-94742371D02*
X210298258Y-94742371D01*
X132257619Y-90684200D02*
X132143333Y-90722295D01*
X132143333Y-90722295D02*
X131952857Y-90722295D01*
X131952857Y-90722295D02*
X131876666Y-90684200D01*
X131876666Y-90684200D02*
X131838571Y-90646104D01*
X131838571Y-90646104D02*
X131800476Y-90569914D01*
X131800476Y-90569914D02*
X131800476Y-90493723D01*
X131800476Y-90493723D02*
X131838571Y-90417533D01*
X131838571Y-90417533D02*
X131876666Y-90379438D01*
X131876666Y-90379438D02*
X131952857Y-90341342D01*
X131952857Y-90341342D02*
X132105238Y-90303247D01*
X132105238Y-90303247D02*
X132181428Y-90265152D01*
X132181428Y-90265152D02*
X132219523Y-90227057D01*
X132219523Y-90227057D02*
X132257619Y-90150866D01*
X132257619Y-90150866D02*
X132257619Y-90074676D01*
X132257619Y-90074676D02*
X132219523Y-89998485D01*
X132219523Y-89998485D02*
X132181428Y-89960390D01*
X132181428Y-89960390D02*
X132105238Y-89922295D01*
X132105238Y-89922295D02*
X131914761Y-89922295D01*
X131914761Y-89922295D02*
X131800476Y-89960390D01*
X131533809Y-89922295D02*
X131343333Y-90722295D01*
X131343333Y-90722295D02*
X131190952Y-90150866D01*
X131190952Y-90150866D02*
X131038571Y-90722295D01*
X131038571Y-90722295D02*
X130848095Y-89922295D01*
X130124285Y-90722295D02*
X130581428Y-90722295D01*
X130352856Y-90722295D02*
X130352856Y-89922295D01*
X130352856Y-89922295D02*
X130429047Y-90036580D01*
X130429047Y-90036580D02*
X130505237Y-90112771D01*
X130505237Y-90112771D02*
X130581428Y-90150866D01*
X129438570Y-89922295D02*
X129590951Y-89922295D01*
X129590951Y-89922295D02*
X129667142Y-89960390D01*
X129667142Y-89960390D02*
X129705237Y-89998485D01*
X129705237Y-89998485D02*
X129781427Y-90112771D01*
X129781427Y-90112771D02*
X129819523Y-90265152D01*
X129819523Y-90265152D02*
X129819523Y-90569914D01*
X129819523Y-90569914D02*
X129781427Y-90646104D01*
X129781427Y-90646104D02*
X129743332Y-90684200D01*
X129743332Y-90684200D02*
X129667142Y-90722295D01*
X129667142Y-90722295D02*
X129514761Y-90722295D01*
X129514761Y-90722295D02*
X129438570Y-90684200D01*
X129438570Y-90684200D02*
X129400475Y-90646104D01*
X129400475Y-90646104D02*
X129362380Y-90569914D01*
X129362380Y-90569914D02*
X129362380Y-90379438D01*
X129362380Y-90379438D02*
X129400475Y-90303247D01*
X129400475Y-90303247D02*
X129438570Y-90265152D01*
X129438570Y-90265152D02*
X129514761Y-90227057D01*
X129514761Y-90227057D02*
X129667142Y-90227057D01*
X129667142Y-90227057D02*
X129743332Y-90265152D01*
X129743332Y-90265152D02*
X129781427Y-90303247D01*
X129781427Y-90303247D02*
X129819523Y-90379438D01*
%TO.C,J2*%
X219742500Y-103850000D02*
X207642500Y-103850000D01*
X219742500Y-103850000D02*
X219742500Y-109950000D01*
X207642500Y-103850000D02*
X207642500Y-109950000D01*
X221742500Y-104100000D02*
X221742500Y-109700000D01*
X219742500Y-104100000D02*
X221742500Y-104100000D01*
X219742500Y-109700000D02*
X221742500Y-109700000D01*
X219742500Y-109950000D02*
X207642500Y-109950000D01*
D11*
%TO.C,U1*%
X187620000Y-45583500D02*
X187620000Y-45883500D01*
X187620000Y-47983500D02*
X187620000Y-48383500D01*
X187620000Y-50583500D02*
X187620000Y-50983500D01*
X187620000Y-53083500D02*
X187620000Y-53483500D01*
X187620000Y-55683500D02*
X187620000Y-56083500D01*
X187620000Y-58183500D02*
X187620000Y-58583500D01*
X187620000Y-60683500D02*
X187620000Y-61083500D01*
X187620000Y-63283500D02*
X187620000Y-63683500D01*
X187620000Y-65783500D02*
X187620000Y-66183500D01*
X187620000Y-68383500D02*
X187620000Y-68783500D01*
X187620000Y-70883500D02*
X187620000Y-71283500D01*
X187620000Y-73383500D02*
X187620000Y-73783500D01*
X187620000Y-75983500D02*
X187620000Y-76383500D01*
X187620000Y-78483500D02*
X187620000Y-78883500D01*
X187620000Y-81083500D02*
X187620000Y-81483500D01*
X187620000Y-83583500D02*
X187620000Y-83983500D01*
X187620000Y-86183500D02*
X187620000Y-86583500D01*
X187620000Y-88683500D02*
X187620000Y-89083500D01*
X187620000Y-91183500D02*
X187620000Y-91583500D01*
X187620000Y-93783500D02*
X187620000Y-94183500D01*
X187620000Y-96583500D02*
X194420000Y-96583500D01*
X197020000Y-96583500D02*
X196620000Y-96583500D01*
X199620000Y-96583500D02*
X199220000Y-96583500D01*
X201820000Y-96583500D02*
X208620000Y-96583500D01*
X205613000Y-48250500D02*
X205613000Y-45583500D01*
X208620000Y-45583500D02*
X187620000Y-45583500D01*
X208620000Y-45583500D02*
X208620000Y-45883500D01*
X208620000Y-47983500D02*
X208620000Y-48383500D01*
X208620000Y-48250500D02*
X205613000Y-48250500D01*
X208620000Y-50583500D02*
X208620000Y-50983500D01*
X208620000Y-53083500D02*
X208620000Y-53483500D01*
X208620000Y-55683500D02*
X208620000Y-56083500D01*
X208620000Y-58183500D02*
X208620000Y-58583500D01*
X208620000Y-60683500D02*
X208620000Y-61083500D01*
X208620000Y-63283500D02*
X208620000Y-63683500D01*
X208620000Y-65783500D02*
X208620000Y-66183500D01*
X208620000Y-68383500D02*
X208620000Y-68783500D01*
X208620000Y-70883500D02*
X208620000Y-71283500D01*
X208620000Y-73383500D02*
X208620000Y-73783500D01*
X208620000Y-75983500D02*
X208620000Y-76383500D01*
X208620000Y-78483500D02*
X208620000Y-78883500D01*
X208620000Y-81083500D02*
X208620000Y-81483500D01*
X208620000Y-83583500D02*
X208620000Y-83983500D01*
X208620000Y-86183500D02*
X208620000Y-86583500D01*
X208620000Y-88683500D02*
X208620000Y-89083500D01*
X208620000Y-91183500D02*
X208620000Y-91583500D01*
X208620000Y-93783500D02*
X208620000Y-94183500D01*
%TD*%
M02*
