%TF.GenerationSoftware,KiCad,Pcbnew,7.0.10*%
%TF.CreationDate,2024-02-16T13:50:48-07:00*%
%TF.ProjectId,kb42,6b623432-2e6b-4696-9361-645f70636258,rev?*%
%TF.SameCoordinates,Original*%
%TF.FileFunction,Drillmap*%
%TF.FilePolarity,Positive*%
%FSLAX45Y45*%
G04 Gerber Fmt 4.5, Leading zero omitted, Abs format (unit mm)*
G04 Created by KiCad (PCBNEW 7.0.10) date 2024-02-16 13:50:48*
%MOMM*%
%LPD*%
G01*
G04 APERTURE LIST*
%ADD10C,0.100000*%
%ADD11C,0.200000*%
%ADD12C,0.102000*%
%ADD13C,0.120000*%
G04 APERTURE END LIST*
D10*
X8229600Y-4699000D02*
G75*
G03*
X7981063Y-4900604I0J-254000D01*
G01*
X14605000Y-4064000D02*
X16002000Y-4064000D01*
X11430000Y-4191000D02*
G75*
G03*
X11684000Y-3937000I0J254000D01*
G01*
X10795000Y-10668000D02*
X12065000Y-10668000D01*
X8890000Y-11176000D02*
X10287000Y-11176000D01*
X16383000Y-4445000D02*
X21590000Y-4445000D01*
X22225000Y-5080000D02*
G75*
G03*
X21590000Y-4445000I-635000J0D01*
G01*
X21699323Y-13854258D02*
X22091029Y-12824386D01*
X7974184Y-4939592D02*
X7981063Y-4900604D01*
X10033000Y-4191000D02*
X11430000Y-4191000D01*
X5969000Y-5588000D02*
X5969000Y-11176000D01*
X12192000Y-3429000D02*
X13970000Y-3429000D01*
X7747000Y-5080000D02*
G75*
G03*
X7974184Y-4939592I0J254000D01*
G01*
X13843000Y-10414000D02*
G75*
G03*
X13589000Y-10160000I-254000J0D01*
G01*
X10033000Y-4191000D02*
G75*
G03*
X9779000Y-4445000I0J-254000D01*
G01*
X15113000Y-12573000D02*
G75*
G03*
X15621000Y-13081000I508000J0D01*
G01*
X16256000Y-4318000D02*
G75*
G03*
X16383000Y-4445000I127000J0D01*
G01*
X13843000Y-10414000D02*
G75*
G03*
X14097000Y-10668000I254000J0D01*
G01*
X12192000Y-3429000D02*
G75*
G03*
X11684000Y-3937000I0J-508000D01*
G01*
X10795000Y-10668000D02*
G75*
G03*
X10541000Y-10922000I0J-254000D01*
G01*
X8382000Y-11684000D02*
G75*
G03*
X8636000Y-11430000I0J254000D01*
G01*
X14478000Y-3937000D02*
G75*
G03*
X14605000Y-4064000I127000J0D01*
G01*
X14097000Y-10668000D02*
X14732000Y-10668000D01*
X20986361Y-14049124D02*
G75*
G03*
X21699323Y-13854258I222639J587124D01*
G01*
X20986361Y-14049124D02*
G75*
G03*
X15621000Y-13081000I-4222361J-8048876D01*
G01*
X22091029Y-12824386D02*
G75*
G03*
X22225000Y-12192000I-2025029J759386D01*
G01*
X12065000Y-10668000D02*
G75*
G03*
X12319000Y-10414000I0J254000D01*
G01*
X8229600Y-4699000D02*
X9525000Y-4699000D01*
X15113000Y-11049000D02*
G75*
G03*
X14732000Y-10668000I-381000J0D01*
G01*
X9525000Y-4699000D02*
G75*
G03*
X9779000Y-4445000I0J254000D01*
G01*
X10287000Y-11176000D02*
G75*
G03*
X10541000Y-10922000I0J254000D01*
G01*
X5969000Y-11176000D02*
G75*
G03*
X6477000Y-11684000I508000J0D01*
G01*
X16256000Y-4318000D02*
G75*
G03*
X16002000Y-4064000I-254000J0D01*
G01*
X22225000Y-5080000D02*
X22225000Y-12192000D01*
X6477000Y-5080000D02*
X7747000Y-5080000D01*
X12573000Y-10160000D02*
G75*
G03*
X12319000Y-10414000I0J-254000D01*
G01*
X8890000Y-11176000D02*
G75*
G03*
X8636000Y-11430000I0J-254000D01*
G01*
X12573000Y-10160000D02*
X13589000Y-10160000D01*
X6477000Y-11684000D02*
X8382000Y-11684000D01*
X15113000Y-11049000D02*
X15113000Y-12573000D01*
X14478000Y-3937000D02*
G75*
G03*
X13970000Y-3429000I-508000J0D01*
G01*
X6477000Y-5080000D02*
G75*
G03*
X5969000Y-5588000I0J-508000D01*
G01*
D11*
D10*
X20799250Y-10625000D02*
X20889250Y-10715000D01*
X20889250Y-10625000D02*
X20799250Y-10715000D01*
X20864250Y-10625000D02*
X20824250Y-10625000D01*
X20824250Y-10625000D02*
G75*
G03*
X20824250Y-10715000I0J-45000D01*
G01*
X20824250Y-10715000D02*
X20864250Y-10715000D01*
X20864250Y-10715000D02*
G75*
G03*
X20864250Y-10625000I0J45000D01*
G01*
X20799250Y-10875000D02*
X20889250Y-10965000D01*
X20889250Y-10875000D02*
X20799250Y-10965000D01*
X20864250Y-10875000D02*
X20824250Y-10875000D01*
X20824250Y-10875000D02*
G75*
G03*
X20824250Y-10965000I0J-45000D01*
G01*
X20824250Y-10965000D02*
X20864250Y-10965000D01*
X20864250Y-10965000D02*
G75*
G03*
X20864250Y-10875000I0J45000D01*
G01*
X20909250Y-10415000D02*
X20999250Y-10505000D01*
X20999250Y-10415000D02*
X20909250Y-10505000D01*
X20974250Y-10415000D02*
X20934250Y-10415000D01*
X20934250Y-10415000D02*
G75*
G03*
X20934250Y-10505000I0J-45000D01*
G01*
X20934250Y-10505000D02*
X20974250Y-10505000D01*
X20974250Y-10505000D02*
G75*
G03*
X20974250Y-10415000I0J45000D01*
G01*
X20909250Y-11085000D02*
X20999250Y-11175000D01*
X20999250Y-11085000D02*
X20909250Y-11175000D01*
X20974250Y-11085000D02*
X20934250Y-11085000D01*
X20934250Y-11085000D02*
G75*
G03*
X20934250Y-11175000I0J-45000D01*
G01*
X20934250Y-11175000D02*
X20974250Y-11175000D01*
X20974250Y-11175000D02*
G75*
G03*
X20974250Y-11085000I0J45000D01*
G01*
X21309250Y-10415000D02*
X21399250Y-10505000D01*
X21399250Y-10415000D02*
X21309250Y-10505000D01*
X21374250Y-10415000D02*
X21334250Y-10415000D01*
X21334250Y-10415000D02*
G75*
G03*
X21334250Y-10505000I0J-45000D01*
G01*
X21334250Y-10505000D02*
X21374250Y-10505000D01*
X21374250Y-10505000D02*
G75*
G03*
X21374250Y-10415000I0J45000D01*
G01*
X21309250Y-11085000D02*
X21399250Y-11175000D01*
X21399250Y-11085000D02*
X21309250Y-11175000D01*
X21374250Y-11085000D02*
X21334250Y-11085000D01*
X21334250Y-11085000D02*
G75*
G03*
X21334250Y-11175000I0J-45000D01*
G01*
X21334250Y-11175000D02*
X21374250Y-11175000D01*
X21374250Y-11175000D02*
G75*
G03*
X21374250Y-11085000I0J45000D01*
G01*
X21609250Y-10415000D02*
X21699250Y-10505000D01*
X21699250Y-10415000D02*
X21609250Y-10505000D01*
X21674250Y-10415000D02*
X21634250Y-10415000D01*
X21634250Y-10415000D02*
G75*
G03*
X21634250Y-10505000I0J-45000D01*
G01*
X21634250Y-10505000D02*
X21674250Y-10505000D01*
X21674250Y-10505000D02*
G75*
G03*
X21674250Y-10415000I0J45000D01*
G01*
X21609250Y-11085000D02*
X21699250Y-11175000D01*
X21699250Y-11085000D02*
X21609250Y-11175000D01*
X21674250Y-11085000D02*
X21634250Y-11085000D01*
X21634250Y-11085000D02*
G75*
G03*
X21634250Y-11175000I0J-45000D01*
G01*
X21634250Y-11175000D02*
X21674250Y-11175000D01*
X21674250Y-11175000D02*
G75*
G03*
X21674250Y-11085000I0J45000D01*
G01*
D12*
X18974000Y-4695350D02*
G75*
G03*
X18872000Y-4695350I-51000J0D01*
G01*
X18872000Y-4695350D02*
G75*
G03*
X18974000Y-4695350I51000J0D01*
G01*
X18974000Y-4949350D02*
G75*
G03*
X18872000Y-4949350I-51000J0D01*
G01*
X18872000Y-4949350D02*
G75*
G03*
X18974000Y-4949350I51000J0D01*
G01*
X18974000Y-5203350D02*
G75*
G03*
X18872000Y-5203350I-51000J0D01*
G01*
X18872000Y-5203350D02*
G75*
G03*
X18974000Y-5203350I51000J0D01*
G01*
X18974000Y-5457350D02*
G75*
G03*
X18872000Y-5457350I-51000J0D01*
G01*
X18872000Y-5457350D02*
G75*
G03*
X18974000Y-5457350I51000J0D01*
G01*
X18974000Y-5711350D02*
G75*
G03*
X18872000Y-5711350I-51000J0D01*
G01*
X18872000Y-5711350D02*
G75*
G03*
X18974000Y-5711350I51000J0D01*
G01*
X18974000Y-5965350D02*
G75*
G03*
X18872000Y-5965350I-51000J0D01*
G01*
X18872000Y-5965350D02*
G75*
G03*
X18974000Y-5965350I51000J0D01*
G01*
X18974000Y-6219350D02*
G75*
G03*
X18872000Y-6219350I-51000J0D01*
G01*
X18872000Y-6219350D02*
G75*
G03*
X18974000Y-6219350I51000J0D01*
G01*
X18974000Y-6473350D02*
G75*
G03*
X18872000Y-6473350I-51000J0D01*
G01*
X18872000Y-6473350D02*
G75*
G03*
X18974000Y-6473350I51000J0D01*
G01*
X18974000Y-6727350D02*
G75*
G03*
X18872000Y-6727350I-51000J0D01*
G01*
X18872000Y-6727350D02*
G75*
G03*
X18974000Y-6727350I51000J0D01*
G01*
X18974000Y-6981350D02*
G75*
G03*
X18872000Y-6981350I-51000J0D01*
G01*
X18872000Y-6981350D02*
G75*
G03*
X18974000Y-6981350I51000J0D01*
G01*
X18974000Y-7235350D02*
G75*
G03*
X18872000Y-7235350I-51000J0D01*
G01*
X18872000Y-7235350D02*
G75*
G03*
X18974000Y-7235350I51000J0D01*
G01*
X18974000Y-7489350D02*
G75*
G03*
X18872000Y-7489350I-51000J0D01*
G01*
X18872000Y-7489350D02*
G75*
G03*
X18974000Y-7489350I51000J0D01*
G01*
X18974000Y-7743350D02*
G75*
G03*
X18872000Y-7743350I-51000J0D01*
G01*
X18872000Y-7743350D02*
G75*
G03*
X18974000Y-7743350I51000J0D01*
G01*
X18974000Y-7997350D02*
G75*
G03*
X18872000Y-7997350I-51000J0D01*
G01*
X18872000Y-7997350D02*
G75*
G03*
X18974000Y-7997350I51000J0D01*
G01*
X18974000Y-8251350D02*
G75*
G03*
X18872000Y-8251350I-51000J0D01*
G01*
X18872000Y-8251350D02*
G75*
G03*
X18974000Y-8251350I51000J0D01*
G01*
X18974000Y-8505350D02*
G75*
G03*
X18872000Y-8505350I-51000J0D01*
G01*
X18872000Y-8505350D02*
G75*
G03*
X18974000Y-8505350I51000J0D01*
G01*
X18974000Y-8759350D02*
G75*
G03*
X18872000Y-8759350I-51000J0D01*
G01*
X18872000Y-8759350D02*
G75*
G03*
X18974000Y-8759350I51000J0D01*
G01*
X18974000Y-9013350D02*
G75*
G03*
X18872000Y-9013350I-51000J0D01*
G01*
X18872000Y-9013350D02*
G75*
G03*
X18974000Y-9013350I51000J0D01*
G01*
X18974000Y-9267350D02*
G75*
G03*
X18872000Y-9267350I-51000J0D01*
G01*
X18872000Y-9267350D02*
G75*
G03*
X18974000Y-9267350I51000J0D01*
G01*
X18974000Y-9521350D02*
G75*
G03*
X18872000Y-9521350I-51000J0D01*
G01*
X18872000Y-9521350D02*
G75*
G03*
X18974000Y-9521350I51000J0D01*
G01*
X19204000Y-4699000D02*
G75*
G03*
X19102000Y-4699000I-51000J0D01*
G01*
X19102000Y-4699000D02*
G75*
G03*
X19204000Y-4699000I51000J0D01*
G01*
X19204000Y-4953000D02*
G75*
G03*
X19102000Y-4953000I-51000J0D01*
G01*
X19102000Y-4953000D02*
G75*
G03*
X19204000Y-4953000I51000J0D01*
G01*
X19204000Y-5207000D02*
G75*
G03*
X19102000Y-5207000I-51000J0D01*
G01*
X19102000Y-5207000D02*
G75*
G03*
X19204000Y-5207000I51000J0D01*
G01*
X19204000Y-5461000D02*
G75*
G03*
X19102000Y-5461000I-51000J0D01*
G01*
X19102000Y-5461000D02*
G75*
G03*
X19204000Y-5461000I51000J0D01*
G01*
X19204000Y-5715000D02*
G75*
G03*
X19102000Y-5715000I-51000J0D01*
G01*
X19102000Y-5715000D02*
G75*
G03*
X19204000Y-5715000I51000J0D01*
G01*
X19204000Y-5969000D02*
G75*
G03*
X19102000Y-5969000I-51000J0D01*
G01*
X19102000Y-5969000D02*
G75*
G03*
X19204000Y-5969000I51000J0D01*
G01*
X19204000Y-6223000D02*
G75*
G03*
X19102000Y-6223000I-51000J0D01*
G01*
X19102000Y-6223000D02*
G75*
G03*
X19204000Y-6223000I51000J0D01*
G01*
X19204000Y-6477000D02*
G75*
G03*
X19102000Y-6477000I-51000J0D01*
G01*
X19102000Y-6477000D02*
G75*
G03*
X19204000Y-6477000I51000J0D01*
G01*
X19204000Y-6731000D02*
G75*
G03*
X19102000Y-6731000I-51000J0D01*
G01*
X19102000Y-6731000D02*
G75*
G03*
X19204000Y-6731000I51000J0D01*
G01*
X19204000Y-6985000D02*
G75*
G03*
X19102000Y-6985000I-51000J0D01*
G01*
X19102000Y-6985000D02*
G75*
G03*
X19204000Y-6985000I51000J0D01*
G01*
X19204000Y-7239000D02*
G75*
G03*
X19102000Y-7239000I-51000J0D01*
G01*
X19102000Y-7239000D02*
G75*
G03*
X19204000Y-7239000I51000J0D01*
G01*
X19204000Y-7493000D02*
G75*
G03*
X19102000Y-7493000I-51000J0D01*
G01*
X19102000Y-7493000D02*
G75*
G03*
X19204000Y-7493000I51000J0D01*
G01*
X19204000Y-7747000D02*
G75*
G03*
X19102000Y-7747000I-51000J0D01*
G01*
X19102000Y-7747000D02*
G75*
G03*
X19204000Y-7747000I51000J0D01*
G01*
X19204000Y-8001000D02*
G75*
G03*
X19102000Y-8001000I-51000J0D01*
G01*
X19102000Y-8001000D02*
G75*
G03*
X19204000Y-8001000I51000J0D01*
G01*
X19204000Y-8255000D02*
G75*
G03*
X19102000Y-8255000I-51000J0D01*
G01*
X19102000Y-8255000D02*
G75*
G03*
X19204000Y-8255000I51000J0D01*
G01*
X19204000Y-8509000D02*
G75*
G03*
X19102000Y-8509000I-51000J0D01*
G01*
X19102000Y-8509000D02*
G75*
G03*
X19204000Y-8509000I51000J0D01*
G01*
X19204000Y-8763000D02*
G75*
G03*
X19102000Y-8763000I-51000J0D01*
G01*
X19102000Y-8763000D02*
G75*
G03*
X19204000Y-8763000I51000J0D01*
G01*
X19204000Y-9017000D02*
G75*
G03*
X19102000Y-9017000I-51000J0D01*
G01*
X19102000Y-9017000D02*
G75*
G03*
X19204000Y-9017000I51000J0D01*
G01*
X19204000Y-9271000D02*
G75*
G03*
X19102000Y-9271000I-51000J0D01*
G01*
X19102000Y-9271000D02*
G75*
G03*
X19204000Y-9271000I51000J0D01*
G01*
X19204000Y-9525000D02*
G75*
G03*
X19102000Y-9525000I-51000J0D01*
G01*
X19102000Y-9525000D02*
G75*
G03*
X19204000Y-9525000I51000J0D01*
G01*
X20752000Y-4695350D02*
G75*
G03*
X20650000Y-4695350I-51000J0D01*
G01*
X20650000Y-4695350D02*
G75*
G03*
X20752000Y-4695350I51000J0D01*
G01*
X20752000Y-4949350D02*
G75*
G03*
X20650000Y-4949350I-51000J0D01*
G01*
X20650000Y-4949350D02*
G75*
G03*
X20752000Y-4949350I51000J0D01*
G01*
X20752000Y-5203350D02*
G75*
G03*
X20650000Y-5203350I-51000J0D01*
G01*
X20650000Y-5203350D02*
G75*
G03*
X20752000Y-5203350I51000J0D01*
G01*
X20752000Y-5457350D02*
G75*
G03*
X20650000Y-5457350I-51000J0D01*
G01*
X20650000Y-5457350D02*
G75*
G03*
X20752000Y-5457350I51000J0D01*
G01*
X20752000Y-5711350D02*
G75*
G03*
X20650000Y-5711350I-51000J0D01*
G01*
X20650000Y-5711350D02*
G75*
G03*
X20752000Y-5711350I51000J0D01*
G01*
X20752000Y-5965350D02*
G75*
G03*
X20650000Y-5965350I-51000J0D01*
G01*
X20650000Y-5965350D02*
G75*
G03*
X20752000Y-5965350I51000J0D01*
G01*
X20752000Y-6219350D02*
G75*
G03*
X20650000Y-6219350I-51000J0D01*
G01*
X20650000Y-6219350D02*
G75*
G03*
X20752000Y-6219350I51000J0D01*
G01*
X20752000Y-6473350D02*
G75*
G03*
X20650000Y-6473350I-51000J0D01*
G01*
X20650000Y-6473350D02*
G75*
G03*
X20752000Y-6473350I51000J0D01*
G01*
X20752000Y-6727350D02*
G75*
G03*
X20650000Y-6727350I-51000J0D01*
G01*
X20650000Y-6727350D02*
G75*
G03*
X20752000Y-6727350I51000J0D01*
G01*
X20752000Y-6981350D02*
G75*
G03*
X20650000Y-6981350I-51000J0D01*
G01*
X20650000Y-6981350D02*
G75*
G03*
X20752000Y-6981350I51000J0D01*
G01*
X20752000Y-7235350D02*
G75*
G03*
X20650000Y-7235350I-51000J0D01*
G01*
X20650000Y-7235350D02*
G75*
G03*
X20752000Y-7235350I51000J0D01*
G01*
X20752000Y-7489350D02*
G75*
G03*
X20650000Y-7489350I-51000J0D01*
G01*
X20650000Y-7489350D02*
G75*
G03*
X20752000Y-7489350I51000J0D01*
G01*
X20752000Y-7743350D02*
G75*
G03*
X20650000Y-7743350I-51000J0D01*
G01*
X20650000Y-7743350D02*
G75*
G03*
X20752000Y-7743350I51000J0D01*
G01*
X20752000Y-7997350D02*
G75*
G03*
X20650000Y-7997350I-51000J0D01*
G01*
X20650000Y-7997350D02*
G75*
G03*
X20752000Y-7997350I51000J0D01*
G01*
X20752000Y-8251350D02*
G75*
G03*
X20650000Y-8251350I-51000J0D01*
G01*
X20650000Y-8251350D02*
G75*
G03*
X20752000Y-8251350I51000J0D01*
G01*
X20752000Y-8505350D02*
G75*
G03*
X20650000Y-8505350I-51000J0D01*
G01*
X20650000Y-8505350D02*
G75*
G03*
X20752000Y-8505350I51000J0D01*
G01*
X20752000Y-8759350D02*
G75*
G03*
X20650000Y-8759350I-51000J0D01*
G01*
X20650000Y-8759350D02*
G75*
G03*
X20752000Y-8759350I51000J0D01*
G01*
X20752000Y-9013350D02*
G75*
G03*
X20650000Y-9013350I-51000J0D01*
G01*
X20650000Y-9013350D02*
G75*
G03*
X20752000Y-9013350I51000J0D01*
G01*
X20752000Y-9267350D02*
G75*
G03*
X20650000Y-9267350I-51000J0D01*
G01*
X20650000Y-9267350D02*
G75*
G03*
X20752000Y-9267350I51000J0D01*
G01*
X20752000Y-9521350D02*
G75*
G03*
X20650000Y-9521350I-51000J0D01*
G01*
X20650000Y-9521350D02*
G75*
G03*
X20752000Y-9521350I51000J0D01*
G01*
X20982000Y-4699000D02*
G75*
G03*
X20880000Y-4699000I-51000J0D01*
G01*
X20880000Y-4699000D02*
G75*
G03*
X20982000Y-4699000I51000J0D01*
G01*
X20982000Y-4953000D02*
G75*
G03*
X20880000Y-4953000I-51000J0D01*
G01*
X20880000Y-4953000D02*
G75*
G03*
X20982000Y-4953000I51000J0D01*
G01*
X20982000Y-5207000D02*
G75*
G03*
X20880000Y-5207000I-51000J0D01*
G01*
X20880000Y-5207000D02*
G75*
G03*
X20982000Y-5207000I51000J0D01*
G01*
X20982000Y-5461000D02*
G75*
G03*
X20880000Y-5461000I-51000J0D01*
G01*
X20880000Y-5461000D02*
G75*
G03*
X20982000Y-5461000I51000J0D01*
G01*
X20982000Y-5715000D02*
G75*
G03*
X20880000Y-5715000I-51000J0D01*
G01*
X20880000Y-5715000D02*
G75*
G03*
X20982000Y-5715000I51000J0D01*
G01*
X20982000Y-5969000D02*
G75*
G03*
X20880000Y-5969000I-51000J0D01*
G01*
X20880000Y-5969000D02*
G75*
G03*
X20982000Y-5969000I51000J0D01*
G01*
X20982000Y-6223000D02*
G75*
G03*
X20880000Y-6223000I-51000J0D01*
G01*
X20880000Y-6223000D02*
G75*
G03*
X20982000Y-6223000I51000J0D01*
G01*
X20982000Y-6477000D02*
G75*
G03*
X20880000Y-6477000I-51000J0D01*
G01*
X20880000Y-6477000D02*
G75*
G03*
X20982000Y-6477000I51000J0D01*
G01*
X20982000Y-6731000D02*
G75*
G03*
X20880000Y-6731000I-51000J0D01*
G01*
X20880000Y-6731000D02*
G75*
G03*
X20982000Y-6731000I51000J0D01*
G01*
X20982000Y-6985000D02*
G75*
G03*
X20880000Y-6985000I-51000J0D01*
G01*
X20880000Y-6985000D02*
G75*
G03*
X20982000Y-6985000I51000J0D01*
G01*
X20982000Y-7239000D02*
G75*
G03*
X20880000Y-7239000I-51000J0D01*
G01*
X20880000Y-7239000D02*
G75*
G03*
X20982000Y-7239000I51000J0D01*
G01*
X20982000Y-7493000D02*
G75*
G03*
X20880000Y-7493000I-51000J0D01*
G01*
X20880000Y-7493000D02*
G75*
G03*
X20982000Y-7493000I51000J0D01*
G01*
X20982000Y-7747000D02*
G75*
G03*
X20880000Y-7747000I-51000J0D01*
G01*
X20880000Y-7747000D02*
G75*
G03*
X20982000Y-7747000I51000J0D01*
G01*
X20982000Y-8001000D02*
G75*
G03*
X20880000Y-8001000I-51000J0D01*
G01*
X20880000Y-8001000D02*
G75*
G03*
X20982000Y-8001000I51000J0D01*
G01*
X20982000Y-8255000D02*
G75*
G03*
X20880000Y-8255000I-51000J0D01*
G01*
X20880000Y-8255000D02*
G75*
G03*
X20982000Y-8255000I51000J0D01*
G01*
X20982000Y-8509000D02*
G75*
G03*
X20880000Y-8509000I-51000J0D01*
G01*
X20880000Y-8509000D02*
G75*
G03*
X20982000Y-8509000I51000J0D01*
G01*
X20982000Y-8763000D02*
G75*
G03*
X20880000Y-8763000I-51000J0D01*
G01*
X20880000Y-8763000D02*
G75*
G03*
X20982000Y-8763000I51000J0D01*
G01*
X20982000Y-9017000D02*
G75*
G03*
X20880000Y-9017000I-51000J0D01*
G01*
X20880000Y-9017000D02*
G75*
G03*
X20982000Y-9017000I51000J0D01*
G01*
X20982000Y-9271000D02*
G75*
G03*
X20880000Y-9271000I-51000J0D01*
G01*
X20880000Y-9271000D02*
G75*
G03*
X20982000Y-9271000I51000J0D01*
G01*
X20982000Y-9525000D02*
G75*
G03*
X20880000Y-9525000I-51000J0D01*
G01*
X20880000Y-9525000D02*
G75*
G03*
X20982000Y-9525000I51000J0D01*
G01*
D13*
X6985000Y-6798000D02*
X6985000Y-6918000D01*
X6925000Y-6858000D02*
X7045000Y-6858000D01*
X6985000Y-8688000D02*
X6985000Y-8808000D01*
X6925000Y-8748000D02*
X7045000Y-8748000D01*
X6985000Y-10608000D02*
X6985000Y-10728000D01*
X6925000Y-10668000D02*
X7045000Y-10668000D01*
X7366000Y-7067000D02*
X7366000Y-7187000D01*
X7306000Y-7127000D02*
X7426000Y-7127000D01*
X7366000Y-8957000D02*
X7366000Y-9077000D01*
X7306000Y-9017000D02*
X7426000Y-9017000D01*
X7366000Y-10877000D02*
X7366000Y-10997000D01*
X7306000Y-10937000D02*
X7426000Y-10937000D01*
X7746000Y-6797000D02*
X7746000Y-6917000D01*
X7686000Y-6857000D02*
X7806000Y-6857000D01*
X7746000Y-8687000D02*
X7746000Y-8807000D01*
X7686000Y-8747000D02*
X7806000Y-8747000D01*
X7746000Y-10607000D02*
X7746000Y-10727000D01*
X7686000Y-10667000D02*
X7806000Y-10667000D01*
X8890000Y-6417000D02*
X8890000Y-6537000D01*
X8830000Y-6477000D02*
X8950000Y-6477000D01*
X8890000Y-8322000D02*
X8890000Y-8442000D01*
X8830000Y-8382000D02*
X8950000Y-8382000D01*
X8890000Y-10227000D02*
X8890000Y-10347000D01*
X8830000Y-10287000D02*
X8950000Y-10287000D01*
X9271000Y-6686000D02*
X9271000Y-6806000D01*
X9211000Y-6746000D02*
X9331000Y-6746000D01*
X9271000Y-8591000D02*
X9271000Y-8711000D01*
X9211000Y-8651000D02*
X9331000Y-8651000D01*
X9271000Y-10496000D02*
X9271000Y-10616000D01*
X9211000Y-10556000D02*
X9331000Y-10556000D01*
X9651000Y-6416000D02*
X9651000Y-6536000D01*
X9591000Y-6476000D02*
X9711000Y-6476000D01*
X9651000Y-8321000D02*
X9651000Y-8441000D01*
X9591000Y-8381000D02*
X9711000Y-8381000D01*
X9651000Y-10226000D02*
X9651000Y-10346000D01*
X9591000Y-10286000D02*
X9711000Y-10286000D01*
X10795000Y-7687000D02*
X10795000Y-7807000D01*
X10735000Y-7747000D02*
X10855000Y-7747000D01*
X10796000Y-5782000D02*
X10796000Y-5902000D01*
X10736000Y-5842000D02*
X10856000Y-5842000D01*
X10796000Y-9592000D02*
X10796000Y-9712000D01*
X10736000Y-9652000D02*
X10856000Y-9652000D01*
X11176000Y-7956000D02*
X11176000Y-8076000D01*
X11116000Y-8016000D02*
X11236000Y-8016000D01*
X11177000Y-6051000D02*
X11177000Y-6171000D01*
X11117000Y-6111000D02*
X11237000Y-6111000D01*
X11177000Y-9861000D02*
X11177000Y-9981000D01*
X11117000Y-9921000D02*
X11237000Y-9921000D01*
X11556000Y-7686000D02*
X11556000Y-7806000D01*
X11496000Y-7746000D02*
X11616000Y-7746000D01*
X11557000Y-5781000D02*
X11557000Y-5901000D01*
X11497000Y-5841000D02*
X11617000Y-5841000D01*
X11557000Y-9591000D02*
X11557000Y-9711000D01*
X11497000Y-9651000D02*
X11617000Y-9651000D01*
X12700000Y-5147000D02*
X12700000Y-5267000D01*
X12640000Y-5207000D02*
X12760000Y-5207000D01*
X12700000Y-7037000D02*
X12700000Y-7157000D01*
X12640000Y-7097000D02*
X12760000Y-7097000D01*
X12700000Y-8957000D02*
X12700000Y-9077000D01*
X12640000Y-9017000D02*
X12760000Y-9017000D01*
X13081000Y-5416000D02*
X13081000Y-5536000D01*
X13021000Y-5476000D02*
X13141000Y-5476000D01*
X13081000Y-7306000D02*
X13081000Y-7426000D01*
X13021000Y-7366000D02*
X13141000Y-7366000D01*
X13081000Y-9226000D02*
X13081000Y-9346000D01*
X13021000Y-9286000D02*
X13141000Y-9286000D01*
X13461000Y-5146000D02*
X13461000Y-5266000D01*
X13401000Y-5206000D02*
X13521000Y-5206000D01*
X13461000Y-7036000D02*
X13461000Y-7156000D01*
X13401000Y-7096000D02*
X13521000Y-7096000D01*
X13461000Y-8956000D02*
X13461000Y-9076000D01*
X13401000Y-9016000D02*
X13521000Y-9016000D01*
X14605000Y-5655000D02*
X14605000Y-5775000D01*
X14545000Y-5715000D02*
X14665000Y-5715000D01*
X14605000Y-7560000D02*
X14605000Y-7680000D01*
X14545000Y-7620000D02*
X14665000Y-7620000D01*
X14605000Y-9465000D02*
X14605000Y-9585000D01*
X14545000Y-9525000D02*
X14665000Y-9525000D01*
X14986000Y-5924000D02*
X14986000Y-6044000D01*
X14926000Y-5984000D02*
X15046000Y-5984000D01*
X14986000Y-7829000D02*
X14986000Y-7949000D01*
X14926000Y-7889000D02*
X15046000Y-7889000D01*
X14986000Y-9734000D02*
X14986000Y-9854000D01*
X14926000Y-9794000D02*
X15046000Y-9794000D01*
X15366000Y-5654000D02*
X15366000Y-5774000D01*
X15306000Y-5714000D02*
X15426000Y-5714000D01*
X15366000Y-7559000D02*
X15366000Y-7679000D01*
X15306000Y-7619000D02*
X15426000Y-7619000D01*
X15366000Y-9464000D02*
X15366000Y-9584000D01*
X15306000Y-9524000D02*
X15426000Y-9524000D01*
X16130000Y-12006000D02*
X16130000Y-12126000D01*
X16070000Y-12066000D02*
X16190000Y-12066000D01*
X16510000Y-7926000D02*
X16510000Y-8046000D01*
X16450000Y-7986000D02*
X16570000Y-7986000D01*
X16510000Y-9831000D02*
X16510000Y-9951000D01*
X16450000Y-9891000D02*
X16570000Y-9891000D01*
X16511000Y-6037000D02*
X16511000Y-6157000D01*
X16451000Y-6097000D02*
X16571000Y-6097000D01*
X16511000Y-12275000D02*
X16511000Y-12395000D01*
X16451000Y-12335000D02*
X16571000Y-12335000D01*
X16891000Y-8195000D02*
X16891000Y-8315000D01*
X16831000Y-8255000D02*
X16951000Y-8255000D01*
X16891000Y-10100000D02*
X16891000Y-10220000D01*
X16831000Y-10160000D02*
X16951000Y-10160000D01*
X16891000Y-12005000D02*
X16891000Y-12125000D01*
X16831000Y-12065000D02*
X16951000Y-12065000D01*
X16892000Y-6306000D02*
X16892000Y-6426000D01*
X16832000Y-6366000D02*
X16952000Y-6366000D01*
X17271000Y-7925000D02*
X17271000Y-8045000D01*
X17211000Y-7985000D02*
X17331000Y-7985000D01*
X17271000Y-9830000D02*
X17271000Y-9950000D01*
X17211000Y-9890000D02*
X17331000Y-9890000D01*
X17272000Y-6036000D02*
X17272000Y-6156000D01*
X17212000Y-6096000D02*
X17332000Y-6096000D01*
X18227628Y-12061052D02*
X18227628Y-12181052D01*
X18167628Y-12121052D02*
X18287628Y-12121052D01*
X18556129Y-12392125D02*
X18556129Y-12512125D01*
X18496129Y-12452125D02*
X18616129Y-12452125D01*
X18977241Y-12192213D02*
X18977241Y-12312213D01*
X18917241Y-12252213D02*
X19037241Y-12252213D01*
X20381105Y-12597574D02*
X20381105Y-12717574D01*
X20321105Y-12657574D02*
X20441105Y-12657574D01*
X20626711Y-12994058D02*
X20626711Y-13114058D01*
X20566711Y-13054058D02*
X20686711Y-13054058D01*
X21082000Y-12894000D02*
X21082000Y-13014000D01*
X21022000Y-12954000D02*
X21142000Y-12954000D01*
D11*
X6224777Y-14406403D02*
X6224777Y-14206403D01*
X6224777Y-14206403D02*
X6272396Y-14206403D01*
X6272396Y-14206403D02*
X6300967Y-14215927D01*
X6300967Y-14215927D02*
X6320015Y-14234975D01*
X6320015Y-14234975D02*
X6329539Y-14254022D01*
X6329539Y-14254022D02*
X6339062Y-14292117D01*
X6339062Y-14292117D02*
X6339062Y-14320689D01*
X6339062Y-14320689D02*
X6329539Y-14358784D01*
X6329539Y-14358784D02*
X6320015Y-14377832D01*
X6320015Y-14377832D02*
X6300967Y-14396879D01*
X6300967Y-14396879D02*
X6272396Y-14406403D01*
X6272396Y-14406403D02*
X6224777Y-14406403D01*
X6424777Y-14406403D02*
X6424777Y-14273070D01*
X6424777Y-14311165D02*
X6434301Y-14292117D01*
X6434301Y-14292117D02*
X6443824Y-14282594D01*
X6443824Y-14282594D02*
X6462872Y-14273070D01*
X6462872Y-14273070D02*
X6481920Y-14273070D01*
X6548586Y-14406403D02*
X6548586Y-14273070D01*
X6548586Y-14206403D02*
X6539062Y-14215927D01*
X6539062Y-14215927D02*
X6548586Y-14225451D01*
X6548586Y-14225451D02*
X6558110Y-14215927D01*
X6558110Y-14215927D02*
X6548586Y-14206403D01*
X6548586Y-14206403D02*
X6548586Y-14225451D01*
X6672396Y-14406403D02*
X6653348Y-14396879D01*
X6653348Y-14396879D02*
X6643824Y-14377832D01*
X6643824Y-14377832D02*
X6643824Y-14206403D01*
X6777158Y-14406403D02*
X6758110Y-14396879D01*
X6758110Y-14396879D02*
X6748586Y-14377832D01*
X6748586Y-14377832D02*
X6748586Y-14206403D01*
X7005729Y-14406403D02*
X7005729Y-14206403D01*
X7005729Y-14206403D02*
X7072396Y-14349260D01*
X7072396Y-14349260D02*
X7139062Y-14206403D01*
X7139062Y-14206403D02*
X7139062Y-14406403D01*
X7320015Y-14406403D02*
X7320015Y-14301641D01*
X7320015Y-14301641D02*
X7310491Y-14282594D01*
X7310491Y-14282594D02*
X7291443Y-14273070D01*
X7291443Y-14273070D02*
X7253348Y-14273070D01*
X7253348Y-14273070D02*
X7234301Y-14282594D01*
X7320015Y-14396879D02*
X7300967Y-14406403D01*
X7300967Y-14406403D02*
X7253348Y-14406403D01*
X7253348Y-14406403D02*
X7234301Y-14396879D01*
X7234301Y-14396879D02*
X7224777Y-14377832D01*
X7224777Y-14377832D02*
X7224777Y-14358784D01*
X7224777Y-14358784D02*
X7234301Y-14339736D01*
X7234301Y-14339736D02*
X7253348Y-14330213D01*
X7253348Y-14330213D02*
X7300967Y-14330213D01*
X7300967Y-14330213D02*
X7320015Y-14320689D01*
X7415253Y-14273070D02*
X7415253Y-14473070D01*
X7415253Y-14282594D02*
X7434301Y-14273070D01*
X7434301Y-14273070D02*
X7472396Y-14273070D01*
X7472396Y-14273070D02*
X7491443Y-14282594D01*
X7491443Y-14282594D02*
X7500967Y-14292117D01*
X7500967Y-14292117D02*
X7510491Y-14311165D01*
X7510491Y-14311165D02*
X7510491Y-14368308D01*
X7510491Y-14368308D02*
X7500967Y-14387355D01*
X7500967Y-14387355D02*
X7491443Y-14396879D01*
X7491443Y-14396879D02*
X7472396Y-14406403D01*
X7472396Y-14406403D02*
X7434301Y-14406403D01*
X7434301Y-14406403D02*
X7415253Y-14396879D01*
X7596205Y-14387355D02*
X7605729Y-14396879D01*
X7605729Y-14396879D02*
X7596205Y-14406403D01*
X7596205Y-14406403D02*
X7586682Y-14396879D01*
X7586682Y-14396879D02*
X7596205Y-14387355D01*
X7596205Y-14387355D02*
X7596205Y-14406403D01*
X7596205Y-14282594D02*
X7605729Y-14292117D01*
X7605729Y-14292117D02*
X7596205Y-14301641D01*
X7596205Y-14301641D02*
X7586682Y-14292117D01*
X7586682Y-14292117D02*
X7596205Y-14282594D01*
X7596205Y-14282594D02*
X7596205Y-14301641D01*
D10*
X5874000Y-14689919D02*
X5964000Y-14779919D01*
X5964000Y-14689919D02*
X5874000Y-14779919D01*
D11*
X6262872Y-14626403D02*
X6281920Y-14626403D01*
X6281920Y-14626403D02*
X6300967Y-14635927D01*
X6300967Y-14635927D02*
X6310491Y-14645451D01*
X6310491Y-14645451D02*
X6320015Y-14664498D01*
X6320015Y-14664498D02*
X6329539Y-14702594D01*
X6329539Y-14702594D02*
X6329539Y-14750213D01*
X6329539Y-14750213D02*
X6320015Y-14788308D01*
X6320015Y-14788308D02*
X6310491Y-14807355D01*
X6310491Y-14807355D02*
X6300967Y-14816879D01*
X6300967Y-14816879D02*
X6281920Y-14826403D01*
X6281920Y-14826403D02*
X6262872Y-14826403D01*
X6262872Y-14826403D02*
X6243824Y-14816879D01*
X6243824Y-14816879D02*
X6234301Y-14807355D01*
X6234301Y-14807355D02*
X6224777Y-14788308D01*
X6224777Y-14788308D02*
X6215253Y-14750213D01*
X6215253Y-14750213D02*
X6215253Y-14702594D01*
X6215253Y-14702594D02*
X6224777Y-14664498D01*
X6224777Y-14664498D02*
X6234301Y-14645451D01*
X6234301Y-14645451D02*
X6243824Y-14635927D01*
X6243824Y-14635927D02*
X6262872Y-14626403D01*
X6415253Y-14807355D02*
X6424777Y-14816879D01*
X6424777Y-14816879D02*
X6415253Y-14826403D01*
X6415253Y-14826403D02*
X6405729Y-14816879D01*
X6405729Y-14816879D02*
X6415253Y-14807355D01*
X6415253Y-14807355D02*
X6415253Y-14826403D01*
X6520015Y-14826403D02*
X6558110Y-14826403D01*
X6558110Y-14826403D02*
X6577158Y-14816879D01*
X6577158Y-14816879D02*
X6586682Y-14807355D01*
X6586682Y-14807355D02*
X6605729Y-14778784D01*
X6605729Y-14778784D02*
X6615253Y-14740689D01*
X6615253Y-14740689D02*
X6615253Y-14664498D01*
X6615253Y-14664498D02*
X6605729Y-14645451D01*
X6605729Y-14645451D02*
X6596205Y-14635927D01*
X6596205Y-14635927D02*
X6577158Y-14626403D01*
X6577158Y-14626403D02*
X6539062Y-14626403D01*
X6539062Y-14626403D02*
X6520015Y-14635927D01*
X6520015Y-14635927D02*
X6510491Y-14645451D01*
X6510491Y-14645451D02*
X6500967Y-14664498D01*
X6500967Y-14664498D02*
X6500967Y-14712117D01*
X6500967Y-14712117D02*
X6510491Y-14731165D01*
X6510491Y-14731165D02*
X6520015Y-14740689D01*
X6520015Y-14740689D02*
X6539062Y-14750213D01*
X6539062Y-14750213D02*
X6577158Y-14750213D01*
X6577158Y-14750213D02*
X6596205Y-14740689D01*
X6596205Y-14740689D02*
X6605729Y-14731165D01*
X6605729Y-14731165D02*
X6615253Y-14712117D01*
X6739062Y-14626403D02*
X6758110Y-14626403D01*
X6758110Y-14626403D02*
X6777158Y-14635927D01*
X6777158Y-14635927D02*
X6786682Y-14645451D01*
X6786682Y-14645451D02*
X6796205Y-14664498D01*
X6796205Y-14664498D02*
X6805729Y-14702594D01*
X6805729Y-14702594D02*
X6805729Y-14750213D01*
X6805729Y-14750213D02*
X6796205Y-14788308D01*
X6796205Y-14788308D02*
X6786682Y-14807355D01*
X6786682Y-14807355D02*
X6777158Y-14816879D01*
X6777158Y-14816879D02*
X6758110Y-14826403D01*
X6758110Y-14826403D02*
X6739062Y-14826403D01*
X6739062Y-14826403D02*
X6720015Y-14816879D01*
X6720015Y-14816879D02*
X6710491Y-14807355D01*
X6710491Y-14807355D02*
X6700967Y-14788308D01*
X6700967Y-14788308D02*
X6691443Y-14750213D01*
X6691443Y-14750213D02*
X6691443Y-14702594D01*
X6691443Y-14702594D02*
X6700967Y-14664498D01*
X6700967Y-14664498D02*
X6710491Y-14645451D01*
X6710491Y-14645451D02*
X6720015Y-14635927D01*
X6720015Y-14635927D02*
X6739062Y-14626403D01*
X6929539Y-14626403D02*
X6948586Y-14626403D01*
X6948586Y-14626403D02*
X6967634Y-14635927D01*
X6967634Y-14635927D02*
X6977158Y-14645451D01*
X6977158Y-14645451D02*
X6986682Y-14664498D01*
X6986682Y-14664498D02*
X6996205Y-14702594D01*
X6996205Y-14702594D02*
X6996205Y-14750213D01*
X6996205Y-14750213D02*
X6986682Y-14788308D01*
X6986682Y-14788308D02*
X6977158Y-14807355D01*
X6977158Y-14807355D02*
X6967634Y-14816879D01*
X6967634Y-14816879D02*
X6948586Y-14826403D01*
X6948586Y-14826403D02*
X6929539Y-14826403D01*
X6929539Y-14826403D02*
X6910491Y-14816879D01*
X6910491Y-14816879D02*
X6900967Y-14807355D01*
X6900967Y-14807355D02*
X6891443Y-14788308D01*
X6891443Y-14788308D02*
X6881920Y-14750213D01*
X6881920Y-14750213D02*
X6881920Y-14702594D01*
X6881920Y-14702594D02*
X6891443Y-14664498D01*
X6891443Y-14664498D02*
X6900967Y-14645451D01*
X6900967Y-14645451D02*
X6910491Y-14635927D01*
X6910491Y-14635927D02*
X6929539Y-14626403D01*
X7081920Y-14826403D02*
X7081920Y-14693070D01*
X7081920Y-14712117D02*
X7091443Y-14702594D01*
X7091443Y-14702594D02*
X7110491Y-14693070D01*
X7110491Y-14693070D02*
X7139063Y-14693070D01*
X7139063Y-14693070D02*
X7158110Y-14702594D01*
X7158110Y-14702594D02*
X7167634Y-14721641D01*
X7167634Y-14721641D02*
X7167634Y-14826403D01*
X7167634Y-14721641D02*
X7177158Y-14702594D01*
X7177158Y-14702594D02*
X7196205Y-14693070D01*
X7196205Y-14693070D02*
X7224777Y-14693070D01*
X7224777Y-14693070D02*
X7243824Y-14702594D01*
X7243824Y-14702594D02*
X7253348Y-14721641D01*
X7253348Y-14721641D02*
X7253348Y-14826403D01*
X7348586Y-14826403D02*
X7348586Y-14693070D01*
X7348586Y-14712117D02*
X7358110Y-14702594D01*
X7358110Y-14702594D02*
X7377158Y-14693070D01*
X7377158Y-14693070D02*
X7405729Y-14693070D01*
X7405729Y-14693070D02*
X7424777Y-14702594D01*
X7424777Y-14702594D02*
X7434301Y-14721641D01*
X7434301Y-14721641D02*
X7434301Y-14826403D01*
X7434301Y-14721641D02*
X7443824Y-14702594D01*
X7443824Y-14702594D02*
X7462872Y-14693070D01*
X7462872Y-14693070D02*
X7491443Y-14693070D01*
X7491443Y-14693070D02*
X7510491Y-14702594D01*
X7510491Y-14702594D02*
X7520015Y-14721641D01*
X7520015Y-14721641D02*
X7520015Y-14826403D01*
X7910491Y-14616879D02*
X7739063Y-14874022D01*
X8167634Y-14626403D02*
X8186682Y-14626403D01*
X8186682Y-14626403D02*
X8205729Y-14635927D01*
X8205729Y-14635927D02*
X8215253Y-14645451D01*
X8215253Y-14645451D02*
X8224777Y-14664498D01*
X8224777Y-14664498D02*
X8234301Y-14702594D01*
X8234301Y-14702594D02*
X8234301Y-14750213D01*
X8234301Y-14750213D02*
X8224777Y-14788308D01*
X8224777Y-14788308D02*
X8215253Y-14807355D01*
X8215253Y-14807355D02*
X8205729Y-14816879D01*
X8205729Y-14816879D02*
X8186682Y-14826403D01*
X8186682Y-14826403D02*
X8167634Y-14826403D01*
X8167634Y-14826403D02*
X8148586Y-14816879D01*
X8148586Y-14816879D02*
X8139063Y-14807355D01*
X8139063Y-14807355D02*
X8129539Y-14788308D01*
X8129539Y-14788308D02*
X8120015Y-14750213D01*
X8120015Y-14750213D02*
X8120015Y-14702594D01*
X8120015Y-14702594D02*
X8129539Y-14664498D01*
X8129539Y-14664498D02*
X8139063Y-14645451D01*
X8139063Y-14645451D02*
X8148586Y-14635927D01*
X8148586Y-14635927D02*
X8167634Y-14626403D01*
X8320015Y-14807355D02*
X8329539Y-14816879D01*
X8329539Y-14816879D02*
X8320015Y-14826403D01*
X8320015Y-14826403D02*
X8310491Y-14816879D01*
X8310491Y-14816879D02*
X8320015Y-14807355D01*
X8320015Y-14807355D02*
X8320015Y-14826403D01*
X8453348Y-14626403D02*
X8472396Y-14626403D01*
X8472396Y-14626403D02*
X8491444Y-14635927D01*
X8491444Y-14635927D02*
X8500968Y-14645451D01*
X8500968Y-14645451D02*
X8510491Y-14664498D01*
X8510491Y-14664498D02*
X8520015Y-14702594D01*
X8520015Y-14702594D02*
X8520015Y-14750213D01*
X8520015Y-14750213D02*
X8510491Y-14788308D01*
X8510491Y-14788308D02*
X8500968Y-14807355D01*
X8500968Y-14807355D02*
X8491444Y-14816879D01*
X8491444Y-14816879D02*
X8472396Y-14826403D01*
X8472396Y-14826403D02*
X8453348Y-14826403D01*
X8453348Y-14826403D02*
X8434301Y-14816879D01*
X8434301Y-14816879D02*
X8424777Y-14807355D01*
X8424777Y-14807355D02*
X8415253Y-14788308D01*
X8415253Y-14788308D02*
X8405729Y-14750213D01*
X8405729Y-14750213D02*
X8405729Y-14702594D01*
X8405729Y-14702594D02*
X8415253Y-14664498D01*
X8415253Y-14664498D02*
X8424777Y-14645451D01*
X8424777Y-14645451D02*
X8434301Y-14635927D01*
X8434301Y-14635927D02*
X8453348Y-14626403D01*
X8586682Y-14626403D02*
X8710491Y-14626403D01*
X8710491Y-14626403D02*
X8643825Y-14702594D01*
X8643825Y-14702594D02*
X8672396Y-14702594D01*
X8672396Y-14702594D02*
X8691444Y-14712117D01*
X8691444Y-14712117D02*
X8700968Y-14721641D01*
X8700968Y-14721641D02*
X8710491Y-14740689D01*
X8710491Y-14740689D02*
X8710491Y-14788308D01*
X8710491Y-14788308D02*
X8700968Y-14807355D01*
X8700968Y-14807355D02*
X8691444Y-14816879D01*
X8691444Y-14816879D02*
X8672396Y-14826403D01*
X8672396Y-14826403D02*
X8615253Y-14826403D01*
X8615253Y-14826403D02*
X8596206Y-14816879D01*
X8596206Y-14816879D02*
X8586682Y-14807355D01*
X8891444Y-14626403D02*
X8796206Y-14626403D01*
X8796206Y-14626403D02*
X8786682Y-14721641D01*
X8786682Y-14721641D02*
X8796206Y-14712117D01*
X8796206Y-14712117D02*
X8815253Y-14702594D01*
X8815253Y-14702594D02*
X8862872Y-14702594D01*
X8862872Y-14702594D02*
X8881920Y-14712117D01*
X8881920Y-14712117D02*
X8891444Y-14721641D01*
X8891444Y-14721641D02*
X8900968Y-14740689D01*
X8900968Y-14740689D02*
X8900968Y-14788308D01*
X8900968Y-14788308D02*
X8891444Y-14807355D01*
X8891444Y-14807355D02*
X8881920Y-14816879D01*
X8881920Y-14816879D02*
X8862872Y-14826403D01*
X8862872Y-14826403D02*
X8815253Y-14826403D01*
X8815253Y-14826403D02*
X8796206Y-14816879D01*
X8796206Y-14816879D02*
X8786682Y-14807355D01*
X9072396Y-14693070D02*
X9072396Y-14826403D01*
X9024777Y-14616879D02*
X8977158Y-14759736D01*
X8977158Y-14759736D02*
X9100968Y-14759736D01*
X9167634Y-14626403D02*
X9167634Y-14664498D01*
X9243825Y-14626403D02*
X9243825Y-14664498D01*
X9539063Y-14902594D02*
X9529539Y-14893070D01*
X9529539Y-14893070D02*
X9510491Y-14864498D01*
X9510491Y-14864498D02*
X9500968Y-14845451D01*
X9500968Y-14845451D02*
X9491444Y-14816879D01*
X9491444Y-14816879D02*
X9481920Y-14769260D01*
X9481920Y-14769260D02*
X9481920Y-14731165D01*
X9481920Y-14731165D02*
X9491444Y-14683546D01*
X9491444Y-14683546D02*
X9500968Y-14654975D01*
X9500968Y-14654975D02*
X9510491Y-14635927D01*
X9510491Y-14635927D02*
X9529539Y-14607355D01*
X9529539Y-14607355D02*
X9539063Y-14597832D01*
X9653349Y-14626403D02*
X9672396Y-14626403D01*
X9672396Y-14626403D02*
X9691444Y-14635927D01*
X9691444Y-14635927D02*
X9700968Y-14645451D01*
X9700968Y-14645451D02*
X9710491Y-14664498D01*
X9710491Y-14664498D02*
X9720015Y-14702594D01*
X9720015Y-14702594D02*
X9720015Y-14750213D01*
X9720015Y-14750213D02*
X9710491Y-14788308D01*
X9710491Y-14788308D02*
X9700968Y-14807355D01*
X9700968Y-14807355D02*
X9691444Y-14816879D01*
X9691444Y-14816879D02*
X9672396Y-14826403D01*
X9672396Y-14826403D02*
X9653349Y-14826403D01*
X9653349Y-14826403D02*
X9634301Y-14816879D01*
X9634301Y-14816879D02*
X9624777Y-14807355D01*
X9624777Y-14807355D02*
X9615253Y-14788308D01*
X9615253Y-14788308D02*
X9605730Y-14750213D01*
X9605730Y-14750213D02*
X9605730Y-14702594D01*
X9605730Y-14702594D02*
X9615253Y-14664498D01*
X9615253Y-14664498D02*
X9624777Y-14645451D01*
X9624777Y-14645451D02*
X9634301Y-14635927D01*
X9634301Y-14635927D02*
X9653349Y-14626403D01*
X9958111Y-14826403D02*
X9958111Y-14626403D01*
X10043825Y-14826403D02*
X10043825Y-14721641D01*
X10043825Y-14721641D02*
X10034301Y-14702594D01*
X10034301Y-14702594D02*
X10015253Y-14693070D01*
X10015253Y-14693070D02*
X9986682Y-14693070D01*
X9986682Y-14693070D02*
X9967634Y-14702594D01*
X9967634Y-14702594D02*
X9958111Y-14712117D01*
X10167634Y-14826403D02*
X10148587Y-14816879D01*
X10148587Y-14816879D02*
X10139063Y-14807355D01*
X10139063Y-14807355D02*
X10129539Y-14788308D01*
X10129539Y-14788308D02*
X10129539Y-14731165D01*
X10129539Y-14731165D02*
X10139063Y-14712117D01*
X10139063Y-14712117D02*
X10148587Y-14702594D01*
X10148587Y-14702594D02*
X10167634Y-14693070D01*
X10167634Y-14693070D02*
X10196206Y-14693070D01*
X10196206Y-14693070D02*
X10215253Y-14702594D01*
X10215253Y-14702594D02*
X10224777Y-14712117D01*
X10224777Y-14712117D02*
X10234301Y-14731165D01*
X10234301Y-14731165D02*
X10234301Y-14788308D01*
X10234301Y-14788308D02*
X10224777Y-14807355D01*
X10224777Y-14807355D02*
X10215253Y-14816879D01*
X10215253Y-14816879D02*
X10196206Y-14826403D01*
X10196206Y-14826403D02*
X10167634Y-14826403D01*
X10348587Y-14826403D02*
X10329539Y-14816879D01*
X10329539Y-14816879D02*
X10320015Y-14797832D01*
X10320015Y-14797832D02*
X10320015Y-14626403D01*
X10500968Y-14816879D02*
X10481920Y-14826403D01*
X10481920Y-14826403D02*
X10443825Y-14826403D01*
X10443825Y-14826403D02*
X10424777Y-14816879D01*
X10424777Y-14816879D02*
X10415253Y-14797832D01*
X10415253Y-14797832D02*
X10415253Y-14721641D01*
X10415253Y-14721641D02*
X10424777Y-14702594D01*
X10424777Y-14702594D02*
X10443825Y-14693070D01*
X10443825Y-14693070D02*
X10481920Y-14693070D01*
X10481920Y-14693070D02*
X10500968Y-14702594D01*
X10500968Y-14702594D02*
X10510492Y-14721641D01*
X10510492Y-14721641D02*
X10510492Y-14740689D01*
X10510492Y-14740689D02*
X10415253Y-14759736D01*
X10586682Y-14816879D02*
X10605730Y-14826403D01*
X10605730Y-14826403D02*
X10643825Y-14826403D01*
X10643825Y-14826403D02*
X10662873Y-14816879D01*
X10662873Y-14816879D02*
X10672396Y-14797832D01*
X10672396Y-14797832D02*
X10672396Y-14788308D01*
X10672396Y-14788308D02*
X10662873Y-14769260D01*
X10662873Y-14769260D02*
X10643825Y-14759736D01*
X10643825Y-14759736D02*
X10615253Y-14759736D01*
X10615253Y-14759736D02*
X10596206Y-14750213D01*
X10596206Y-14750213D02*
X10586682Y-14731165D01*
X10586682Y-14731165D02*
X10586682Y-14721641D01*
X10586682Y-14721641D02*
X10596206Y-14702594D01*
X10596206Y-14702594D02*
X10615253Y-14693070D01*
X10615253Y-14693070D02*
X10643825Y-14693070D01*
X10643825Y-14693070D02*
X10662873Y-14702594D01*
X10910492Y-14750213D02*
X11062873Y-14750213D01*
X10986682Y-14826403D02*
X10986682Y-14674022D01*
X11339063Y-14712117D02*
X11320015Y-14702594D01*
X11320015Y-14702594D02*
X11310492Y-14693070D01*
X11310492Y-14693070D02*
X11300968Y-14674022D01*
X11300968Y-14674022D02*
X11300968Y-14664498D01*
X11300968Y-14664498D02*
X11310492Y-14645451D01*
X11310492Y-14645451D02*
X11320015Y-14635927D01*
X11320015Y-14635927D02*
X11339063Y-14626403D01*
X11339063Y-14626403D02*
X11377158Y-14626403D01*
X11377158Y-14626403D02*
X11396206Y-14635927D01*
X11396206Y-14635927D02*
X11405730Y-14645451D01*
X11405730Y-14645451D02*
X11415253Y-14664498D01*
X11415253Y-14664498D02*
X11415253Y-14674022D01*
X11415253Y-14674022D02*
X11405730Y-14693070D01*
X11405730Y-14693070D02*
X11396206Y-14702594D01*
X11396206Y-14702594D02*
X11377158Y-14712117D01*
X11377158Y-14712117D02*
X11339063Y-14712117D01*
X11339063Y-14712117D02*
X11320015Y-14721641D01*
X11320015Y-14721641D02*
X11310492Y-14731165D01*
X11310492Y-14731165D02*
X11300968Y-14750213D01*
X11300968Y-14750213D02*
X11300968Y-14788308D01*
X11300968Y-14788308D02*
X11310492Y-14807355D01*
X11310492Y-14807355D02*
X11320015Y-14816879D01*
X11320015Y-14816879D02*
X11339063Y-14826403D01*
X11339063Y-14826403D02*
X11377158Y-14826403D01*
X11377158Y-14826403D02*
X11396206Y-14816879D01*
X11396206Y-14816879D02*
X11405730Y-14807355D01*
X11405730Y-14807355D02*
X11415253Y-14788308D01*
X11415253Y-14788308D02*
X11415253Y-14750213D01*
X11415253Y-14750213D02*
X11405730Y-14731165D01*
X11405730Y-14731165D02*
X11396206Y-14721641D01*
X11396206Y-14721641D02*
X11377158Y-14712117D01*
X11643825Y-14816879D02*
X11662873Y-14826403D01*
X11662873Y-14826403D02*
X11700968Y-14826403D01*
X11700968Y-14826403D02*
X11720015Y-14816879D01*
X11720015Y-14816879D02*
X11729539Y-14797832D01*
X11729539Y-14797832D02*
X11729539Y-14788308D01*
X11729539Y-14788308D02*
X11720015Y-14769260D01*
X11720015Y-14769260D02*
X11700968Y-14759736D01*
X11700968Y-14759736D02*
X11672396Y-14759736D01*
X11672396Y-14759736D02*
X11653349Y-14750213D01*
X11653349Y-14750213D02*
X11643825Y-14731165D01*
X11643825Y-14731165D02*
X11643825Y-14721641D01*
X11643825Y-14721641D02*
X11653349Y-14702594D01*
X11653349Y-14702594D02*
X11672396Y-14693070D01*
X11672396Y-14693070D02*
X11700968Y-14693070D01*
X11700968Y-14693070D02*
X11720015Y-14702594D01*
X11843825Y-14826403D02*
X11824777Y-14816879D01*
X11824777Y-14816879D02*
X11815254Y-14797832D01*
X11815254Y-14797832D02*
X11815254Y-14626403D01*
X11948587Y-14826403D02*
X11929539Y-14816879D01*
X11929539Y-14816879D02*
X11920015Y-14807355D01*
X11920015Y-14807355D02*
X11910492Y-14788308D01*
X11910492Y-14788308D02*
X11910492Y-14731165D01*
X11910492Y-14731165D02*
X11920015Y-14712117D01*
X11920015Y-14712117D02*
X11929539Y-14702594D01*
X11929539Y-14702594D02*
X11948587Y-14693070D01*
X11948587Y-14693070D02*
X11977158Y-14693070D01*
X11977158Y-14693070D02*
X11996206Y-14702594D01*
X11996206Y-14702594D02*
X12005730Y-14712117D01*
X12005730Y-14712117D02*
X12015254Y-14731165D01*
X12015254Y-14731165D02*
X12015254Y-14788308D01*
X12015254Y-14788308D02*
X12005730Y-14807355D01*
X12005730Y-14807355D02*
X11996206Y-14816879D01*
X11996206Y-14816879D02*
X11977158Y-14826403D01*
X11977158Y-14826403D02*
X11948587Y-14826403D01*
X12072396Y-14693070D02*
X12148587Y-14693070D01*
X12100968Y-14626403D02*
X12100968Y-14797832D01*
X12100968Y-14797832D02*
X12110492Y-14816879D01*
X12110492Y-14816879D02*
X12129539Y-14826403D01*
X12129539Y-14826403D02*
X12148587Y-14826403D01*
X12205730Y-14816879D02*
X12224777Y-14826403D01*
X12224777Y-14826403D02*
X12262873Y-14826403D01*
X12262873Y-14826403D02*
X12281920Y-14816879D01*
X12281920Y-14816879D02*
X12291444Y-14797832D01*
X12291444Y-14797832D02*
X12291444Y-14788308D01*
X12291444Y-14788308D02*
X12281920Y-14769260D01*
X12281920Y-14769260D02*
X12262873Y-14759736D01*
X12262873Y-14759736D02*
X12234301Y-14759736D01*
X12234301Y-14759736D02*
X12215254Y-14750213D01*
X12215254Y-14750213D02*
X12205730Y-14731165D01*
X12205730Y-14731165D02*
X12205730Y-14721641D01*
X12205730Y-14721641D02*
X12215254Y-14702594D01*
X12215254Y-14702594D02*
X12234301Y-14693070D01*
X12234301Y-14693070D02*
X12262873Y-14693070D01*
X12262873Y-14693070D02*
X12281920Y-14702594D01*
X12358111Y-14902594D02*
X12367635Y-14893070D01*
X12367635Y-14893070D02*
X12386682Y-14864498D01*
X12386682Y-14864498D02*
X12396206Y-14845451D01*
X12396206Y-14845451D02*
X12405730Y-14816879D01*
X12405730Y-14816879D02*
X12415254Y-14769260D01*
X12415254Y-14769260D02*
X12415254Y-14731165D01*
X12415254Y-14731165D02*
X12405730Y-14683546D01*
X12405730Y-14683546D02*
X12396206Y-14654975D01*
X12396206Y-14654975D02*
X12386682Y-14635927D01*
X12386682Y-14635927D02*
X12367635Y-14607355D01*
X12367635Y-14607355D02*
X12358111Y-14597832D01*
D12*
X5964000Y-14998919D02*
G75*
G03*
X5862000Y-14998919I-51000J0D01*
G01*
X5862000Y-14998919D02*
G75*
G03*
X5964000Y-14998919I51000J0D01*
G01*
D11*
X6329539Y-15090403D02*
X6215253Y-15090403D01*
X6272396Y-15090403D02*
X6272396Y-14890403D01*
X6272396Y-14890403D02*
X6253348Y-14918975D01*
X6253348Y-14918975D02*
X6234301Y-14938022D01*
X6234301Y-14938022D02*
X6215253Y-14947546D01*
X6415253Y-15071355D02*
X6424777Y-15080879D01*
X6424777Y-15080879D02*
X6415253Y-15090403D01*
X6415253Y-15090403D02*
X6405729Y-15080879D01*
X6405729Y-15080879D02*
X6415253Y-15071355D01*
X6415253Y-15071355D02*
X6415253Y-15090403D01*
X6548586Y-14890403D02*
X6567634Y-14890403D01*
X6567634Y-14890403D02*
X6586682Y-14899927D01*
X6586682Y-14899927D02*
X6596205Y-14909451D01*
X6596205Y-14909451D02*
X6605729Y-14928498D01*
X6605729Y-14928498D02*
X6615253Y-14966594D01*
X6615253Y-14966594D02*
X6615253Y-15014213D01*
X6615253Y-15014213D02*
X6605729Y-15052308D01*
X6605729Y-15052308D02*
X6596205Y-15071355D01*
X6596205Y-15071355D02*
X6586682Y-15080879D01*
X6586682Y-15080879D02*
X6567634Y-15090403D01*
X6567634Y-15090403D02*
X6548586Y-15090403D01*
X6548586Y-15090403D02*
X6529539Y-15080879D01*
X6529539Y-15080879D02*
X6520015Y-15071355D01*
X6520015Y-15071355D02*
X6510491Y-15052308D01*
X6510491Y-15052308D02*
X6500967Y-15014213D01*
X6500967Y-15014213D02*
X6500967Y-14966594D01*
X6500967Y-14966594D02*
X6510491Y-14928498D01*
X6510491Y-14928498D02*
X6520015Y-14909451D01*
X6520015Y-14909451D02*
X6529539Y-14899927D01*
X6529539Y-14899927D02*
X6548586Y-14890403D01*
X6691443Y-14909451D02*
X6700967Y-14899927D01*
X6700967Y-14899927D02*
X6720015Y-14890403D01*
X6720015Y-14890403D02*
X6767634Y-14890403D01*
X6767634Y-14890403D02*
X6786682Y-14899927D01*
X6786682Y-14899927D02*
X6796205Y-14909451D01*
X6796205Y-14909451D02*
X6805729Y-14928498D01*
X6805729Y-14928498D02*
X6805729Y-14947546D01*
X6805729Y-14947546D02*
X6796205Y-14976117D01*
X6796205Y-14976117D02*
X6681920Y-15090403D01*
X6681920Y-15090403D02*
X6805729Y-15090403D01*
X6929539Y-14890403D02*
X6948586Y-14890403D01*
X6948586Y-14890403D02*
X6967634Y-14899927D01*
X6967634Y-14899927D02*
X6977158Y-14909451D01*
X6977158Y-14909451D02*
X6986682Y-14928498D01*
X6986682Y-14928498D02*
X6996205Y-14966594D01*
X6996205Y-14966594D02*
X6996205Y-15014213D01*
X6996205Y-15014213D02*
X6986682Y-15052308D01*
X6986682Y-15052308D02*
X6977158Y-15071355D01*
X6977158Y-15071355D02*
X6967634Y-15080879D01*
X6967634Y-15080879D02*
X6948586Y-15090403D01*
X6948586Y-15090403D02*
X6929539Y-15090403D01*
X6929539Y-15090403D02*
X6910491Y-15080879D01*
X6910491Y-15080879D02*
X6900967Y-15071355D01*
X6900967Y-15071355D02*
X6891443Y-15052308D01*
X6891443Y-15052308D02*
X6881920Y-15014213D01*
X6881920Y-15014213D02*
X6881920Y-14966594D01*
X6881920Y-14966594D02*
X6891443Y-14928498D01*
X6891443Y-14928498D02*
X6900967Y-14909451D01*
X6900967Y-14909451D02*
X6910491Y-14899927D01*
X6910491Y-14899927D02*
X6929539Y-14890403D01*
X7081920Y-15090403D02*
X7081920Y-14957070D01*
X7081920Y-14976117D02*
X7091443Y-14966594D01*
X7091443Y-14966594D02*
X7110491Y-14957070D01*
X7110491Y-14957070D02*
X7139063Y-14957070D01*
X7139063Y-14957070D02*
X7158110Y-14966594D01*
X7158110Y-14966594D02*
X7167634Y-14985641D01*
X7167634Y-14985641D02*
X7167634Y-15090403D01*
X7167634Y-14985641D02*
X7177158Y-14966594D01*
X7177158Y-14966594D02*
X7196205Y-14957070D01*
X7196205Y-14957070D02*
X7224777Y-14957070D01*
X7224777Y-14957070D02*
X7243824Y-14966594D01*
X7243824Y-14966594D02*
X7253348Y-14985641D01*
X7253348Y-14985641D02*
X7253348Y-15090403D01*
X7348586Y-15090403D02*
X7348586Y-14957070D01*
X7348586Y-14976117D02*
X7358110Y-14966594D01*
X7358110Y-14966594D02*
X7377158Y-14957070D01*
X7377158Y-14957070D02*
X7405729Y-14957070D01*
X7405729Y-14957070D02*
X7424777Y-14966594D01*
X7424777Y-14966594D02*
X7434301Y-14985641D01*
X7434301Y-14985641D02*
X7434301Y-15090403D01*
X7434301Y-14985641D02*
X7443824Y-14966594D01*
X7443824Y-14966594D02*
X7462872Y-14957070D01*
X7462872Y-14957070D02*
X7491443Y-14957070D01*
X7491443Y-14957070D02*
X7510491Y-14966594D01*
X7510491Y-14966594D02*
X7520015Y-14985641D01*
X7520015Y-14985641D02*
X7520015Y-15090403D01*
X7910491Y-14880879D02*
X7739063Y-15138022D01*
X8167634Y-14890403D02*
X8186682Y-14890403D01*
X8186682Y-14890403D02*
X8205729Y-14899927D01*
X8205729Y-14899927D02*
X8215253Y-14909451D01*
X8215253Y-14909451D02*
X8224777Y-14928498D01*
X8224777Y-14928498D02*
X8234301Y-14966594D01*
X8234301Y-14966594D02*
X8234301Y-15014213D01*
X8234301Y-15014213D02*
X8224777Y-15052308D01*
X8224777Y-15052308D02*
X8215253Y-15071355D01*
X8215253Y-15071355D02*
X8205729Y-15080879D01*
X8205729Y-15080879D02*
X8186682Y-15090403D01*
X8186682Y-15090403D02*
X8167634Y-15090403D01*
X8167634Y-15090403D02*
X8148586Y-15080879D01*
X8148586Y-15080879D02*
X8139063Y-15071355D01*
X8139063Y-15071355D02*
X8129539Y-15052308D01*
X8129539Y-15052308D02*
X8120015Y-15014213D01*
X8120015Y-15014213D02*
X8120015Y-14966594D01*
X8120015Y-14966594D02*
X8129539Y-14928498D01*
X8129539Y-14928498D02*
X8139063Y-14909451D01*
X8139063Y-14909451D02*
X8148586Y-14899927D01*
X8148586Y-14899927D02*
X8167634Y-14890403D01*
X8320015Y-15071355D02*
X8329539Y-15080879D01*
X8329539Y-15080879D02*
X8320015Y-15090403D01*
X8320015Y-15090403D02*
X8310491Y-15080879D01*
X8310491Y-15080879D02*
X8320015Y-15071355D01*
X8320015Y-15071355D02*
X8320015Y-15090403D01*
X8453348Y-14890403D02*
X8472396Y-14890403D01*
X8472396Y-14890403D02*
X8491444Y-14899927D01*
X8491444Y-14899927D02*
X8500968Y-14909451D01*
X8500968Y-14909451D02*
X8510491Y-14928498D01*
X8510491Y-14928498D02*
X8520015Y-14966594D01*
X8520015Y-14966594D02*
X8520015Y-15014213D01*
X8520015Y-15014213D02*
X8510491Y-15052308D01*
X8510491Y-15052308D02*
X8500968Y-15071355D01*
X8500968Y-15071355D02*
X8491444Y-15080879D01*
X8491444Y-15080879D02*
X8472396Y-15090403D01*
X8472396Y-15090403D02*
X8453348Y-15090403D01*
X8453348Y-15090403D02*
X8434301Y-15080879D01*
X8434301Y-15080879D02*
X8424777Y-15071355D01*
X8424777Y-15071355D02*
X8415253Y-15052308D01*
X8415253Y-15052308D02*
X8405729Y-15014213D01*
X8405729Y-15014213D02*
X8405729Y-14966594D01*
X8405729Y-14966594D02*
X8415253Y-14928498D01*
X8415253Y-14928498D02*
X8424777Y-14909451D01*
X8424777Y-14909451D02*
X8434301Y-14899927D01*
X8434301Y-14899927D02*
X8453348Y-14890403D01*
X8691444Y-14957070D02*
X8691444Y-15090403D01*
X8643825Y-14880879D02*
X8596206Y-15023736D01*
X8596206Y-15023736D02*
X8720015Y-15023736D01*
X8834301Y-14890403D02*
X8853349Y-14890403D01*
X8853349Y-14890403D02*
X8872396Y-14899927D01*
X8872396Y-14899927D02*
X8881920Y-14909451D01*
X8881920Y-14909451D02*
X8891444Y-14928498D01*
X8891444Y-14928498D02*
X8900968Y-14966594D01*
X8900968Y-14966594D02*
X8900968Y-15014213D01*
X8900968Y-15014213D02*
X8891444Y-15052308D01*
X8891444Y-15052308D02*
X8881920Y-15071355D01*
X8881920Y-15071355D02*
X8872396Y-15080879D01*
X8872396Y-15080879D02*
X8853349Y-15090403D01*
X8853349Y-15090403D02*
X8834301Y-15090403D01*
X8834301Y-15090403D02*
X8815253Y-15080879D01*
X8815253Y-15080879D02*
X8805729Y-15071355D01*
X8805729Y-15071355D02*
X8796206Y-15052308D01*
X8796206Y-15052308D02*
X8786682Y-15014213D01*
X8786682Y-15014213D02*
X8786682Y-14966594D01*
X8786682Y-14966594D02*
X8796206Y-14928498D01*
X8796206Y-14928498D02*
X8805729Y-14909451D01*
X8805729Y-14909451D02*
X8815253Y-14899927D01*
X8815253Y-14899927D02*
X8834301Y-14890403D01*
X8977158Y-14909451D02*
X8986682Y-14899927D01*
X8986682Y-14899927D02*
X9005729Y-14890403D01*
X9005729Y-14890403D02*
X9053349Y-14890403D01*
X9053349Y-14890403D02*
X9072396Y-14899927D01*
X9072396Y-14899927D02*
X9081920Y-14909451D01*
X9081920Y-14909451D02*
X9091444Y-14928498D01*
X9091444Y-14928498D02*
X9091444Y-14947546D01*
X9091444Y-14947546D02*
X9081920Y-14976117D01*
X9081920Y-14976117D02*
X8967634Y-15090403D01*
X8967634Y-15090403D02*
X9091444Y-15090403D01*
X9167634Y-14890403D02*
X9167634Y-14928498D01*
X9243825Y-14890403D02*
X9243825Y-14928498D01*
X9539063Y-15166594D02*
X9529539Y-15157070D01*
X9529539Y-15157070D02*
X9510491Y-15128498D01*
X9510491Y-15128498D02*
X9500968Y-15109451D01*
X9500968Y-15109451D02*
X9491444Y-15080879D01*
X9491444Y-15080879D02*
X9481920Y-15033260D01*
X9481920Y-15033260D02*
X9481920Y-14995165D01*
X9481920Y-14995165D02*
X9491444Y-14947546D01*
X9491444Y-14947546D02*
X9500968Y-14918975D01*
X9500968Y-14918975D02*
X9510491Y-14899927D01*
X9510491Y-14899927D02*
X9529539Y-14871355D01*
X9529539Y-14871355D02*
X9539063Y-14861832D01*
X9643825Y-14976117D02*
X9624777Y-14966594D01*
X9624777Y-14966594D02*
X9615253Y-14957070D01*
X9615253Y-14957070D02*
X9605730Y-14938022D01*
X9605730Y-14938022D02*
X9605730Y-14928498D01*
X9605730Y-14928498D02*
X9615253Y-14909451D01*
X9615253Y-14909451D02*
X9624777Y-14899927D01*
X9624777Y-14899927D02*
X9643825Y-14890403D01*
X9643825Y-14890403D02*
X9681920Y-14890403D01*
X9681920Y-14890403D02*
X9700968Y-14899927D01*
X9700968Y-14899927D02*
X9710491Y-14909451D01*
X9710491Y-14909451D02*
X9720015Y-14928498D01*
X9720015Y-14928498D02*
X9720015Y-14938022D01*
X9720015Y-14938022D02*
X9710491Y-14957070D01*
X9710491Y-14957070D02*
X9700968Y-14966594D01*
X9700968Y-14966594D02*
X9681920Y-14976117D01*
X9681920Y-14976117D02*
X9643825Y-14976117D01*
X9643825Y-14976117D02*
X9624777Y-14985641D01*
X9624777Y-14985641D02*
X9615253Y-14995165D01*
X9615253Y-14995165D02*
X9605730Y-15014213D01*
X9605730Y-15014213D02*
X9605730Y-15052308D01*
X9605730Y-15052308D02*
X9615253Y-15071355D01*
X9615253Y-15071355D02*
X9624777Y-15080879D01*
X9624777Y-15080879D02*
X9643825Y-15090403D01*
X9643825Y-15090403D02*
X9681920Y-15090403D01*
X9681920Y-15090403D02*
X9700968Y-15080879D01*
X9700968Y-15080879D02*
X9710491Y-15071355D01*
X9710491Y-15071355D02*
X9720015Y-15052308D01*
X9720015Y-15052308D02*
X9720015Y-15014213D01*
X9720015Y-15014213D02*
X9710491Y-14995165D01*
X9710491Y-14995165D02*
X9700968Y-14985641D01*
X9700968Y-14985641D02*
X9681920Y-14976117D01*
X9843825Y-14890403D02*
X9862872Y-14890403D01*
X9862872Y-14890403D02*
X9881920Y-14899927D01*
X9881920Y-14899927D02*
X9891444Y-14909451D01*
X9891444Y-14909451D02*
X9900968Y-14928498D01*
X9900968Y-14928498D02*
X9910491Y-14966594D01*
X9910491Y-14966594D02*
X9910491Y-15014213D01*
X9910491Y-15014213D02*
X9900968Y-15052308D01*
X9900968Y-15052308D02*
X9891444Y-15071355D01*
X9891444Y-15071355D02*
X9881920Y-15080879D01*
X9881920Y-15080879D02*
X9862872Y-15090403D01*
X9862872Y-15090403D02*
X9843825Y-15090403D01*
X9843825Y-15090403D02*
X9824777Y-15080879D01*
X9824777Y-15080879D02*
X9815253Y-15071355D01*
X9815253Y-15071355D02*
X9805730Y-15052308D01*
X9805730Y-15052308D02*
X9796206Y-15014213D01*
X9796206Y-15014213D02*
X9796206Y-14966594D01*
X9796206Y-14966594D02*
X9805730Y-14928498D01*
X9805730Y-14928498D02*
X9815253Y-14909451D01*
X9815253Y-14909451D02*
X9824777Y-14899927D01*
X9824777Y-14899927D02*
X9843825Y-14890403D01*
X10148587Y-15090403D02*
X10148587Y-14890403D01*
X10234301Y-15090403D02*
X10234301Y-14985641D01*
X10234301Y-14985641D02*
X10224777Y-14966594D01*
X10224777Y-14966594D02*
X10205730Y-14957070D01*
X10205730Y-14957070D02*
X10177158Y-14957070D01*
X10177158Y-14957070D02*
X10158111Y-14966594D01*
X10158111Y-14966594D02*
X10148587Y-14976117D01*
X10358111Y-15090403D02*
X10339063Y-15080879D01*
X10339063Y-15080879D02*
X10329539Y-15071355D01*
X10329539Y-15071355D02*
X10320015Y-15052308D01*
X10320015Y-15052308D02*
X10320015Y-14995165D01*
X10320015Y-14995165D02*
X10329539Y-14976117D01*
X10329539Y-14976117D02*
X10339063Y-14966594D01*
X10339063Y-14966594D02*
X10358111Y-14957070D01*
X10358111Y-14957070D02*
X10386682Y-14957070D01*
X10386682Y-14957070D02*
X10405730Y-14966594D01*
X10405730Y-14966594D02*
X10415253Y-14976117D01*
X10415253Y-14976117D02*
X10424777Y-14995165D01*
X10424777Y-14995165D02*
X10424777Y-15052308D01*
X10424777Y-15052308D02*
X10415253Y-15071355D01*
X10415253Y-15071355D02*
X10405730Y-15080879D01*
X10405730Y-15080879D02*
X10386682Y-15090403D01*
X10386682Y-15090403D02*
X10358111Y-15090403D01*
X10539063Y-15090403D02*
X10520015Y-15080879D01*
X10520015Y-15080879D02*
X10510492Y-15061832D01*
X10510492Y-15061832D02*
X10510492Y-14890403D01*
X10691444Y-15080879D02*
X10672396Y-15090403D01*
X10672396Y-15090403D02*
X10634301Y-15090403D01*
X10634301Y-15090403D02*
X10615253Y-15080879D01*
X10615253Y-15080879D02*
X10605730Y-15061832D01*
X10605730Y-15061832D02*
X10605730Y-14985641D01*
X10605730Y-14985641D02*
X10615253Y-14966594D01*
X10615253Y-14966594D02*
X10634301Y-14957070D01*
X10634301Y-14957070D02*
X10672396Y-14957070D01*
X10672396Y-14957070D02*
X10691444Y-14966594D01*
X10691444Y-14966594D02*
X10700968Y-14985641D01*
X10700968Y-14985641D02*
X10700968Y-15004689D01*
X10700968Y-15004689D02*
X10605730Y-15023736D01*
X10777158Y-15080879D02*
X10796206Y-15090403D01*
X10796206Y-15090403D02*
X10834301Y-15090403D01*
X10834301Y-15090403D02*
X10853349Y-15080879D01*
X10853349Y-15080879D02*
X10862873Y-15061832D01*
X10862873Y-15061832D02*
X10862873Y-15052308D01*
X10862873Y-15052308D02*
X10853349Y-15033260D01*
X10853349Y-15033260D02*
X10834301Y-15023736D01*
X10834301Y-15023736D02*
X10805730Y-15023736D01*
X10805730Y-15023736D02*
X10786682Y-15014213D01*
X10786682Y-15014213D02*
X10777158Y-14995165D01*
X10777158Y-14995165D02*
X10777158Y-14985641D01*
X10777158Y-14985641D02*
X10786682Y-14966594D01*
X10786682Y-14966594D02*
X10805730Y-14957070D01*
X10805730Y-14957070D02*
X10834301Y-14957070D01*
X10834301Y-14957070D02*
X10853349Y-14966594D01*
X10929539Y-15166594D02*
X10939063Y-15157070D01*
X10939063Y-15157070D02*
X10958111Y-15128498D01*
X10958111Y-15128498D02*
X10967634Y-15109451D01*
X10967634Y-15109451D02*
X10977158Y-15080879D01*
X10977158Y-15080879D02*
X10986682Y-15033260D01*
X10986682Y-15033260D02*
X10986682Y-14995165D01*
X10986682Y-14995165D02*
X10977158Y-14947546D01*
X10977158Y-14947546D02*
X10967634Y-14918975D01*
X10967634Y-14918975D02*
X10958111Y-14899927D01*
X10958111Y-14899927D02*
X10939063Y-14871355D01*
X10939063Y-14871355D02*
X10929539Y-14861832D01*
D13*
X5904000Y-15202919D02*
X5904000Y-15322919D01*
X5844000Y-15262919D02*
X5964000Y-15262919D01*
D11*
X6329539Y-15354403D02*
X6215253Y-15354403D01*
X6272396Y-15354403D02*
X6272396Y-15154403D01*
X6272396Y-15154403D02*
X6253348Y-15182975D01*
X6253348Y-15182975D02*
X6234301Y-15202022D01*
X6234301Y-15202022D02*
X6215253Y-15211546D01*
X6415253Y-15335355D02*
X6424777Y-15344879D01*
X6424777Y-15344879D02*
X6415253Y-15354403D01*
X6415253Y-15354403D02*
X6405729Y-15344879D01*
X6405729Y-15344879D02*
X6415253Y-15335355D01*
X6415253Y-15335355D02*
X6415253Y-15354403D01*
X6500967Y-15173451D02*
X6510491Y-15163927D01*
X6510491Y-15163927D02*
X6529539Y-15154403D01*
X6529539Y-15154403D02*
X6577158Y-15154403D01*
X6577158Y-15154403D02*
X6596205Y-15163927D01*
X6596205Y-15163927D02*
X6605729Y-15173451D01*
X6605729Y-15173451D02*
X6615253Y-15192498D01*
X6615253Y-15192498D02*
X6615253Y-15211546D01*
X6615253Y-15211546D02*
X6605729Y-15240117D01*
X6605729Y-15240117D02*
X6491443Y-15354403D01*
X6491443Y-15354403D02*
X6615253Y-15354403D01*
X6739062Y-15154403D02*
X6758110Y-15154403D01*
X6758110Y-15154403D02*
X6777158Y-15163927D01*
X6777158Y-15163927D02*
X6786682Y-15173451D01*
X6786682Y-15173451D02*
X6796205Y-15192498D01*
X6796205Y-15192498D02*
X6805729Y-15230594D01*
X6805729Y-15230594D02*
X6805729Y-15278213D01*
X6805729Y-15278213D02*
X6796205Y-15316308D01*
X6796205Y-15316308D02*
X6786682Y-15335355D01*
X6786682Y-15335355D02*
X6777158Y-15344879D01*
X6777158Y-15344879D02*
X6758110Y-15354403D01*
X6758110Y-15354403D02*
X6739062Y-15354403D01*
X6739062Y-15354403D02*
X6720015Y-15344879D01*
X6720015Y-15344879D02*
X6710491Y-15335355D01*
X6710491Y-15335355D02*
X6700967Y-15316308D01*
X6700967Y-15316308D02*
X6691443Y-15278213D01*
X6691443Y-15278213D02*
X6691443Y-15230594D01*
X6691443Y-15230594D02*
X6700967Y-15192498D01*
X6700967Y-15192498D02*
X6710491Y-15173451D01*
X6710491Y-15173451D02*
X6720015Y-15163927D01*
X6720015Y-15163927D02*
X6739062Y-15154403D01*
X6929539Y-15154403D02*
X6948586Y-15154403D01*
X6948586Y-15154403D02*
X6967634Y-15163927D01*
X6967634Y-15163927D02*
X6977158Y-15173451D01*
X6977158Y-15173451D02*
X6986682Y-15192498D01*
X6986682Y-15192498D02*
X6996205Y-15230594D01*
X6996205Y-15230594D02*
X6996205Y-15278213D01*
X6996205Y-15278213D02*
X6986682Y-15316308D01*
X6986682Y-15316308D02*
X6977158Y-15335355D01*
X6977158Y-15335355D02*
X6967634Y-15344879D01*
X6967634Y-15344879D02*
X6948586Y-15354403D01*
X6948586Y-15354403D02*
X6929539Y-15354403D01*
X6929539Y-15354403D02*
X6910491Y-15344879D01*
X6910491Y-15344879D02*
X6900967Y-15335355D01*
X6900967Y-15335355D02*
X6891443Y-15316308D01*
X6891443Y-15316308D02*
X6881920Y-15278213D01*
X6881920Y-15278213D02*
X6881920Y-15230594D01*
X6881920Y-15230594D02*
X6891443Y-15192498D01*
X6891443Y-15192498D02*
X6900967Y-15173451D01*
X6900967Y-15173451D02*
X6910491Y-15163927D01*
X6910491Y-15163927D02*
X6929539Y-15154403D01*
X7081920Y-15354403D02*
X7081920Y-15221070D01*
X7081920Y-15240117D02*
X7091443Y-15230594D01*
X7091443Y-15230594D02*
X7110491Y-15221070D01*
X7110491Y-15221070D02*
X7139063Y-15221070D01*
X7139063Y-15221070D02*
X7158110Y-15230594D01*
X7158110Y-15230594D02*
X7167634Y-15249641D01*
X7167634Y-15249641D02*
X7167634Y-15354403D01*
X7167634Y-15249641D02*
X7177158Y-15230594D01*
X7177158Y-15230594D02*
X7196205Y-15221070D01*
X7196205Y-15221070D02*
X7224777Y-15221070D01*
X7224777Y-15221070D02*
X7243824Y-15230594D01*
X7243824Y-15230594D02*
X7253348Y-15249641D01*
X7253348Y-15249641D02*
X7253348Y-15354403D01*
X7348586Y-15354403D02*
X7348586Y-15221070D01*
X7348586Y-15240117D02*
X7358110Y-15230594D01*
X7358110Y-15230594D02*
X7377158Y-15221070D01*
X7377158Y-15221070D02*
X7405729Y-15221070D01*
X7405729Y-15221070D02*
X7424777Y-15230594D01*
X7424777Y-15230594D02*
X7434301Y-15249641D01*
X7434301Y-15249641D02*
X7434301Y-15354403D01*
X7434301Y-15249641D02*
X7443824Y-15230594D01*
X7443824Y-15230594D02*
X7462872Y-15221070D01*
X7462872Y-15221070D02*
X7491443Y-15221070D01*
X7491443Y-15221070D02*
X7510491Y-15230594D01*
X7510491Y-15230594D02*
X7520015Y-15249641D01*
X7520015Y-15249641D02*
X7520015Y-15354403D01*
X7910491Y-15144879D02*
X7739063Y-15402022D01*
X8167634Y-15154403D02*
X8186682Y-15154403D01*
X8186682Y-15154403D02*
X8205729Y-15163927D01*
X8205729Y-15163927D02*
X8215253Y-15173451D01*
X8215253Y-15173451D02*
X8224777Y-15192498D01*
X8224777Y-15192498D02*
X8234301Y-15230594D01*
X8234301Y-15230594D02*
X8234301Y-15278213D01*
X8234301Y-15278213D02*
X8224777Y-15316308D01*
X8224777Y-15316308D02*
X8215253Y-15335355D01*
X8215253Y-15335355D02*
X8205729Y-15344879D01*
X8205729Y-15344879D02*
X8186682Y-15354403D01*
X8186682Y-15354403D02*
X8167634Y-15354403D01*
X8167634Y-15354403D02*
X8148586Y-15344879D01*
X8148586Y-15344879D02*
X8139063Y-15335355D01*
X8139063Y-15335355D02*
X8129539Y-15316308D01*
X8129539Y-15316308D02*
X8120015Y-15278213D01*
X8120015Y-15278213D02*
X8120015Y-15230594D01*
X8120015Y-15230594D02*
X8129539Y-15192498D01*
X8129539Y-15192498D02*
X8139063Y-15173451D01*
X8139063Y-15173451D02*
X8148586Y-15163927D01*
X8148586Y-15163927D02*
X8167634Y-15154403D01*
X8320015Y-15335355D02*
X8329539Y-15344879D01*
X8329539Y-15344879D02*
X8320015Y-15354403D01*
X8320015Y-15354403D02*
X8310491Y-15344879D01*
X8310491Y-15344879D02*
X8320015Y-15335355D01*
X8320015Y-15335355D02*
X8320015Y-15354403D01*
X8453348Y-15154403D02*
X8472396Y-15154403D01*
X8472396Y-15154403D02*
X8491444Y-15163927D01*
X8491444Y-15163927D02*
X8500968Y-15173451D01*
X8500968Y-15173451D02*
X8510491Y-15192498D01*
X8510491Y-15192498D02*
X8520015Y-15230594D01*
X8520015Y-15230594D02*
X8520015Y-15278213D01*
X8520015Y-15278213D02*
X8510491Y-15316308D01*
X8510491Y-15316308D02*
X8500968Y-15335355D01*
X8500968Y-15335355D02*
X8491444Y-15344879D01*
X8491444Y-15344879D02*
X8472396Y-15354403D01*
X8472396Y-15354403D02*
X8453348Y-15354403D01*
X8453348Y-15354403D02*
X8434301Y-15344879D01*
X8434301Y-15344879D02*
X8424777Y-15335355D01*
X8424777Y-15335355D02*
X8415253Y-15316308D01*
X8415253Y-15316308D02*
X8405729Y-15278213D01*
X8405729Y-15278213D02*
X8405729Y-15230594D01*
X8405729Y-15230594D02*
X8415253Y-15192498D01*
X8415253Y-15192498D02*
X8424777Y-15173451D01*
X8424777Y-15173451D02*
X8434301Y-15163927D01*
X8434301Y-15163927D02*
X8453348Y-15154403D01*
X8691444Y-15221070D02*
X8691444Y-15354403D01*
X8643825Y-15144879D02*
X8596206Y-15287736D01*
X8596206Y-15287736D02*
X8720015Y-15287736D01*
X8777158Y-15154403D02*
X8910491Y-15154403D01*
X8910491Y-15154403D02*
X8824777Y-15354403D01*
X8977158Y-15173451D02*
X8986682Y-15163927D01*
X8986682Y-15163927D02*
X9005729Y-15154403D01*
X9005729Y-15154403D02*
X9053349Y-15154403D01*
X9053349Y-15154403D02*
X9072396Y-15163927D01*
X9072396Y-15163927D02*
X9081920Y-15173451D01*
X9081920Y-15173451D02*
X9091444Y-15192498D01*
X9091444Y-15192498D02*
X9091444Y-15211546D01*
X9091444Y-15211546D02*
X9081920Y-15240117D01*
X9081920Y-15240117D02*
X8967634Y-15354403D01*
X8967634Y-15354403D02*
X9091444Y-15354403D01*
X9167634Y-15154403D02*
X9167634Y-15192498D01*
X9243825Y-15154403D02*
X9243825Y-15192498D01*
X9539063Y-15430594D02*
X9529539Y-15421070D01*
X9529539Y-15421070D02*
X9510491Y-15392498D01*
X9510491Y-15392498D02*
X9500968Y-15373451D01*
X9500968Y-15373451D02*
X9491444Y-15344879D01*
X9491444Y-15344879D02*
X9481920Y-15297260D01*
X9481920Y-15297260D02*
X9481920Y-15259165D01*
X9481920Y-15259165D02*
X9491444Y-15211546D01*
X9491444Y-15211546D02*
X9500968Y-15182975D01*
X9500968Y-15182975D02*
X9510491Y-15163927D01*
X9510491Y-15163927D02*
X9529539Y-15135355D01*
X9529539Y-15135355D02*
X9539063Y-15125832D01*
X9700968Y-15154403D02*
X9662872Y-15154403D01*
X9662872Y-15154403D02*
X9643825Y-15163927D01*
X9643825Y-15163927D02*
X9634301Y-15173451D01*
X9634301Y-15173451D02*
X9615253Y-15202022D01*
X9615253Y-15202022D02*
X9605730Y-15240117D01*
X9605730Y-15240117D02*
X9605730Y-15316308D01*
X9605730Y-15316308D02*
X9615253Y-15335355D01*
X9615253Y-15335355D02*
X9624777Y-15344879D01*
X9624777Y-15344879D02*
X9643825Y-15354403D01*
X9643825Y-15354403D02*
X9681920Y-15354403D01*
X9681920Y-15354403D02*
X9700968Y-15344879D01*
X9700968Y-15344879D02*
X9710491Y-15335355D01*
X9710491Y-15335355D02*
X9720015Y-15316308D01*
X9720015Y-15316308D02*
X9720015Y-15268689D01*
X9720015Y-15268689D02*
X9710491Y-15249641D01*
X9710491Y-15249641D02*
X9700968Y-15240117D01*
X9700968Y-15240117D02*
X9681920Y-15230594D01*
X9681920Y-15230594D02*
X9643825Y-15230594D01*
X9643825Y-15230594D02*
X9624777Y-15240117D01*
X9624777Y-15240117D02*
X9615253Y-15249641D01*
X9615253Y-15249641D02*
X9605730Y-15268689D01*
X9786682Y-15154403D02*
X9910491Y-15154403D01*
X9910491Y-15154403D02*
X9843825Y-15230594D01*
X9843825Y-15230594D02*
X9872396Y-15230594D01*
X9872396Y-15230594D02*
X9891444Y-15240117D01*
X9891444Y-15240117D02*
X9900968Y-15249641D01*
X9900968Y-15249641D02*
X9910491Y-15268689D01*
X9910491Y-15268689D02*
X9910491Y-15316308D01*
X9910491Y-15316308D02*
X9900968Y-15335355D01*
X9900968Y-15335355D02*
X9891444Y-15344879D01*
X9891444Y-15344879D02*
X9872396Y-15354403D01*
X9872396Y-15354403D02*
X9815253Y-15354403D01*
X9815253Y-15354403D02*
X9796206Y-15344879D01*
X9796206Y-15344879D02*
X9786682Y-15335355D01*
X10148587Y-15354403D02*
X10148587Y-15154403D01*
X10234301Y-15354403D02*
X10234301Y-15249641D01*
X10234301Y-15249641D02*
X10224777Y-15230594D01*
X10224777Y-15230594D02*
X10205730Y-15221070D01*
X10205730Y-15221070D02*
X10177158Y-15221070D01*
X10177158Y-15221070D02*
X10158111Y-15230594D01*
X10158111Y-15230594D02*
X10148587Y-15240117D01*
X10358111Y-15354403D02*
X10339063Y-15344879D01*
X10339063Y-15344879D02*
X10329539Y-15335355D01*
X10329539Y-15335355D02*
X10320015Y-15316308D01*
X10320015Y-15316308D02*
X10320015Y-15259165D01*
X10320015Y-15259165D02*
X10329539Y-15240117D01*
X10329539Y-15240117D02*
X10339063Y-15230594D01*
X10339063Y-15230594D02*
X10358111Y-15221070D01*
X10358111Y-15221070D02*
X10386682Y-15221070D01*
X10386682Y-15221070D02*
X10405730Y-15230594D01*
X10405730Y-15230594D02*
X10415253Y-15240117D01*
X10415253Y-15240117D02*
X10424777Y-15259165D01*
X10424777Y-15259165D02*
X10424777Y-15316308D01*
X10424777Y-15316308D02*
X10415253Y-15335355D01*
X10415253Y-15335355D02*
X10405730Y-15344879D01*
X10405730Y-15344879D02*
X10386682Y-15354403D01*
X10386682Y-15354403D02*
X10358111Y-15354403D01*
X10539063Y-15354403D02*
X10520015Y-15344879D01*
X10520015Y-15344879D02*
X10510492Y-15325832D01*
X10510492Y-15325832D02*
X10510492Y-15154403D01*
X10691444Y-15344879D02*
X10672396Y-15354403D01*
X10672396Y-15354403D02*
X10634301Y-15354403D01*
X10634301Y-15354403D02*
X10615253Y-15344879D01*
X10615253Y-15344879D02*
X10605730Y-15325832D01*
X10605730Y-15325832D02*
X10605730Y-15249641D01*
X10605730Y-15249641D02*
X10615253Y-15230594D01*
X10615253Y-15230594D02*
X10634301Y-15221070D01*
X10634301Y-15221070D02*
X10672396Y-15221070D01*
X10672396Y-15221070D02*
X10691444Y-15230594D01*
X10691444Y-15230594D02*
X10700968Y-15249641D01*
X10700968Y-15249641D02*
X10700968Y-15268689D01*
X10700968Y-15268689D02*
X10605730Y-15287736D01*
X10777158Y-15344879D02*
X10796206Y-15354403D01*
X10796206Y-15354403D02*
X10834301Y-15354403D01*
X10834301Y-15354403D02*
X10853349Y-15344879D01*
X10853349Y-15344879D02*
X10862873Y-15325832D01*
X10862873Y-15325832D02*
X10862873Y-15316308D01*
X10862873Y-15316308D02*
X10853349Y-15297260D01*
X10853349Y-15297260D02*
X10834301Y-15287736D01*
X10834301Y-15287736D02*
X10805730Y-15287736D01*
X10805730Y-15287736D02*
X10786682Y-15278213D01*
X10786682Y-15278213D02*
X10777158Y-15259165D01*
X10777158Y-15259165D02*
X10777158Y-15249641D01*
X10777158Y-15249641D02*
X10786682Y-15230594D01*
X10786682Y-15230594D02*
X10805730Y-15221070D01*
X10805730Y-15221070D02*
X10834301Y-15221070D01*
X10834301Y-15221070D02*
X10853349Y-15230594D01*
X10929539Y-15430594D02*
X10939063Y-15421070D01*
X10939063Y-15421070D02*
X10958111Y-15392498D01*
X10958111Y-15392498D02*
X10967634Y-15373451D01*
X10967634Y-15373451D02*
X10977158Y-15344879D01*
X10977158Y-15344879D02*
X10986682Y-15297260D01*
X10986682Y-15297260D02*
X10986682Y-15259165D01*
X10986682Y-15259165D02*
X10977158Y-15211546D01*
X10977158Y-15211546D02*
X10967634Y-15182975D01*
X10967634Y-15182975D02*
X10958111Y-15163927D01*
X10958111Y-15163927D02*
X10939063Y-15135355D01*
X10939063Y-15135355D02*
X10929539Y-15125832D01*
M02*
